<?xml version="1.0" encoding="UTF-8" standalone="no"?>
<svg
   xmlns:dc="http://purl.org/dc/elements/1.1/"
   xmlns:cc="http://creativecommons.org/ns#"
   xmlns:rdf="http://www.w3.org/1999/02/22-rdf-syntax-ns#"
   xmlns:svg="http://www.w3.org/2000/svg"
   xmlns="http://www.w3.org/2000/svg"
   width="602.52899"
   height="208"
   viewBox="0 0 602.52899 208"
   fill="none"
   version="1.1"
   id="svg10">
  <metadata
     id="metadata16">
    <rdf:RDF>
      <cc:Work
         rdf:about="">
        <dc:format>image/svg+xml</dc:format>
        <dc:type
           rdf:resource="http://purl.org/dc/dcmitype/StillImage" />
        <dc:title></dc:title>
      </cc:Work>
    </rdf:RDF>
  </metadata>
  <defs
     id="defs14" />
  <path
     d="M 30.68,195.52 C 30.68,203.84 25.567,208 15.34,208 5.113,208 0,203.84 0,195.52 V 15.6 C 0,11.6133 1.127,8.06 3.38,4.94 5.633,1.6467 9.967,0 16.38,0 h 88.4 c 6.24,0 9.533,4.3333 9.88,13 0.347,8.84 -2.947,13.26 -9.88,13.26 H 30.68 Z M 97.24,99.06 c 0,2.947 -0.607,5.807 -1.82,8.58 -1.04,2.6 -2.6,4.853 -4.68,6.76 -1.907,1.907 -4.16,3.467 -6.76,4.68 -2.6,1.04 -5.46,1.56 -8.58,1.56 -5.893,0 -10.92,-2.08 -15.08,-6.24 -4.16,-4.16 -6.24,-9.273 -6.24,-15.34 0,-6.067 2.08,-11.18 6.24,-15.34 4.16,-4.16 9.187,-6.24 15.08,-6.24 3.12,0 5.98,0.607 8.58,1.82 2.6,1.04 4.853,2.6 6.76,4.68 2.08,1.907 3.64,4.16 4.68,6.76 1.213,2.6 1.82,5.373 1.82,8.32 z"
     fill="#373535"
     id="path2" />
  <path
     d="m 169.203,195.52 c 0,8.32 -4.767,12.48 -14.3,12.48 -9.533,0 -14.3,-4.16 -14.3,-12.48 V 91 c 0,-7.107 1.127,-13.26 3.38,-18.46 2.253,-5.2 5.807,-9.447 10.66,-12.74 9.187,-6.587 18.373,-9.88 27.56,-9.88 h 41.86 c 8.84,0 18.027,3.293 27.56,9.88 9.36,6.587 14.04,16.987 14.04,31.2 v 104.52 c 0,8.32 -4.767,12.48 -14.3,12.48 -9.533,0 -14.3,-4.16 -14.3,-12.48 V 93.34 c 0,-4.507 -1.387,-8.84 -4.16,-13 l 0.26,0.26 c -2.253,-4.16 -6.847,-6.24 -13.78,-6.24 h -32.5 c -7.107,0 -11.787,2.08 -14.04,6.24 -2.427,3.64 -3.64,7.887 -3.64,12.74 z"
     fill="#0e8162"
     id="path4" />
  <path
     d="m 328.365,120.44 h 10.763 V 99.41 h 20.707 V 90.536 H 339.128 V 78.405 h 22.944 v -8.874 h -33.707 z m 51.157,0.721 c 5.643,0 9.297,-2.461 11.162,-6.016 h 0.298 v 5.295 h 10.043 V 94.687 c 0,-9.098 -7.706,-12.926 -16.208,-12.926 -9.148,0 -15.163,4.375 -16.63,11.335 l 9.794,0.796 c 0.721,-2.536 2.983,-4.4 6.786,-4.4 3.605,0 5.668,1.814 5.668,4.947 v 0.149 c 0,2.461 -2.61,2.784 -9.247,3.43 -7.557,0.696 -14.343,3.232 -14.343,11.758 0,7.557 5.394,11.385 12.677,11.385 z m 3.033,-7.308 c -3.256,0 -5.593,-1.517 -5.593,-4.425 0,-2.983 2.461,-4.45 6.19,-4.972 2.311,-0.323 6.09,-0.87 7.358,-1.715 v 4.052 c 0,4.002 -3.307,7.06 -7.955,7.06 z m 26.685,6.587 h 10.59 V 82.258 h -10.59 z m 5.32,-43.104 c 3.157,0 5.742,-2.411 5.742,-5.369 0,-2.933 -2.585,-5.344 -5.742,-5.344 -3.132,0 -5.718,2.411 -5.718,5.344 0,2.958 2.586,5.369 5.718,5.369 z m 49.573,57.422 v -52.5 h -10.441 v 6.414 h -0.472 c -1.417,-3.108 -4.474,-6.911 -10.863,-6.911 -8.377,0 -15.462,6.513 -15.462,19.638 0,12.777 6.787,19.662 15.487,19.662 6.165,0 9.371,-3.554 10.838,-6.736 h 0.323 v 20.433 z m -10.366,-33.409 c 0,6.811 -2.933,11.286 -8.029,11.286 -5.196,0 -8.029,-4.624 -8.029,-11.286 0,-6.612 2.784,-11.161 8.029,-11.161 5.145,0 8.029,4.35 8.029,11.161 z"
     fill="#373535"
     id="path6" />
  <path
     d="m 384.377,139.985 h -13.775 v 41.165 h -0.575 l -28.253,-41.165 h -12.145 v 65.455 h 13.839 v -41.197 h 0.479 l 28.477,41.197 h 11.953 z m 25.176,66.382 c 7.255,0 11.954,-3.164 14.351,-7.735 h 0.383 v 6.808 h 12.912 v -33.111 c 0,-11.697 -9.908,-16.619 -20.838,-16.619 -11.761,0 -19.496,5.625 -21.381,14.574 l 12.592,1.022 c 0.927,-3.259 3.835,-5.656 8.725,-5.656 4.634,0 7.287,2.333 7.287,6.36 v 0.191 c 0,3.164 -3.356,3.58 -11.889,4.411 -9.716,0.895 -18.441,4.155 -18.441,15.117 0,9.716 6.935,14.638 16.299,14.638 z m 3.9,-9.396 c -4.187,0 -7.191,-1.95 -7.191,-5.689 0,-3.836 3.164,-5.721 7.958,-6.392 2.972,-0.416 7.83,-1.119 9.46,-2.206 v 5.21 c 0,5.145 -4.251,9.077 -10.227,9.077 z m 65.79,-12.433 c 0.032,6.584 -4.475,10.036 -9.365,10.036 -5.145,0 -8.469,-3.612 -8.501,-9.397 v -28.828 h -13.615 v 31.257 c 0.032,11.474 6.744,18.473 16.619,18.473 7.383,0 12.688,-3.803 14.894,-9.556 h 0.511 v 8.917 h 13.072 v -49.091 h -13.615 z m 50.904,-28.189 H 520.4 v -3.292 c 0,-3.324 1.342,-5.273 5.337,-5.273 1.63,0 3.292,0.351 4.378,0.703 l 2.397,-10.227 c -1.693,-0.512 -5.433,-1.343 -9.62,-1.343 -9.236,0 -16.108,5.21 -16.108,15.885 v 3.547 h -6.935 v 10.227 h 6.935 V 205.44 H 520.4 v -38.864 h 9.747 z m 20.559,50.018 c 7.255,0 11.953,-3.164 14.35,-7.735 h 0.383 v 6.808 h 12.912 v -33.111 c 0,-11.697 -9.907,-16.619 -20.838,-16.619 -11.761,0 -19.495,5.625 -21.381,14.574 l 12.592,1.022 c 0.927,-3.259 3.835,-5.656 8.725,-5.656 4.635,0 7.287,2.333 7.287,6.36 v 0.191 c 0,3.164 -3.355,3.58 -11.889,4.411 -9.716,0.895 -18.441,4.155 -18.441,15.117 0,9.716 6.935,14.638 16.3,14.638 z m 3.899,-9.396 c -4.187,0 -7.191,-1.95 -7.191,-5.689 0,-3.836 3.164,-5.721 7.958,-6.392 2.972,-0.416 7.83,-1.119 9.46,-2.206 v 5.21 c 0,5.145 -4.25,9.077 -10.227,9.077 z m 47.924,-56.986 h -13.615 v 65.455 h 13.615 z"
     fill="#0e8162"
     id="path8" />
</svg>
