<svg width="512" height="512" viewBox="0 0 512 512" fill="none" xmlns="http://www.w3.org/2000/svg">
<rect width="512" height="512" rx="40" fill="#03A87C"/>
<path d="M101.888 292.805C98.3495 382.942 276.246 457.646 359.112 366.441C441.978 275.237 424.477 104.241 312.039 102.267C199.6 100.293 105.426 202.668 101.888 292.805Z" fill="white"/>
<path d="M361.709 175.2C365.442 175.733 367.975 176.867 369.309 178.6C370.775 180.333 371.509 182.6 371.509 185.4C371.509 194.6 366.575 198.867 356.709 198.2L349.709 197.6C341.842 196.933 333.975 196.4 326.109 196C318.375 195.6 310.242 195.4 301.709 195.4H292.709C291.109 215.133 289.442 233.133 287.709 249.4L322.109 248.8C327.042 248.8 330.309 249.667 331.909 251.4C333.642 253.133 334.509 255.467 334.509 258.4C334.509 262.933 333.175 266.533 330.509 269.2C327.842 271.733 324.042 273 319.109 273H284.909L283.709 281.6C280.909 303.6 274.909 319.267 265.709 328.6C256.642 337.933 244.109 342.6 228.109 342.6C219.042 342.6 210.709 340.667 203.109 336.8C195.509 332.8 189.909 328 186.309 322.4C184.842 320.133 184.109 317.4 184.109 314.2C184.109 311 184.842 308.2 186.309 305.8C187.909 303.4 189.842 302.2 192.109 302.2C193.709 302.2 195.242 302.733 196.709 303.8C198.309 304.867 200.309 306.933 202.709 310C209.109 318.4 217.042 322.6 226.509 322.6C234.109 322.6 240.442 319.533 245.509 313.4C250.709 307.133 254.042 297.333 255.509 284L256.709 273H247.109C244.042 273 241.375 272.133 239.109 270.4C236.975 268.667 235.909 266.2 235.909 263C235.909 258.867 236.975 255.733 239.109 253.6C241.242 251.333 244.375 250.2 248.509 250.2C252.242 250.2 255.909 250.133 259.509 250C261.109 235.333 262.842 217.533 264.709 196.6C250.309 197.933 240.175 200.267 234.309 203.6C228.442 206.933 225.509 211.867 225.509 218.4C225.509 222.933 226.842 227.267 229.509 231.4C230.309 232.6 230.709 233.8 230.709 235C230.709 237.4 229.375 239.533 226.709 241.4C224.042 243.133 221.042 244 217.709 244C214.109 244 211.042 242.933 208.509 240.8C206.909 239.467 205.375 236.733 203.909 232.6C202.442 228.467 201.709 223.867 201.709 218.8C201.709 202.267 210.175 190.267 227.109 182.8C244.175 175.333 269.042 171.6 301.709 171.6C324.375 171.6 344.375 172.8 361.709 175.2Z" fill="#03A87C"/>
</svg>
