<svg width="512" height="512" viewBox="0 0 512 512" fill="none" xmlns="http://www.w3.org/2000/svg">
<rect width="512" height="512" rx="20" fill="white"/>
<path d="M163.76 331.92C163.76 339.6 159.04 343.44 149.6 343.44C140.16 343.44 135.44 339.6 135.44 331.92V165.84C135.44 162.16 136.48 158.88 138.56 156C140.64 152.96 144.64 151.44 150.56 151.44H232.16C237.92 151.44 240.96 155.44 241.28 163.44C241.6 171.6 238.56 175.68 232.16 175.68H163.76V331.92ZM225.2 242.88C225.2 245.6 224.64 248.24 223.52 250.8C222.56 253.2 221.12 255.28 219.2 257.04C217.44 258.8 215.36 260.24 212.96 261.36C210.56 262.32 207.92 262.8 205.04 262.8C199.6 262.8 194.96 260.88 191.12 257.04C187.28 253.2 185.36 248.48 185.36 242.88C185.36 237.28 187.28 232.56 191.12 228.72C194.96 224.88 199.6 222.96 205.04 222.96C207.92 222.96 210.56 223.52 212.96 224.64C215.36 225.6 217.44 227.04 219.2 228.96C221.12 230.72 222.56 232.8 223.52 235.2C224.64 237.6 225.2 240.16 225.2 242.88Z" fill="#373535"/>
<path d="M291.628 331.92C291.628 339.6 287.228 343.44 278.428 343.44C269.628 343.44 265.228 339.6 265.228 331.92V235.44C265.228 228.88 266.268 223.2 268.348 218.4C270.428 213.6 273.708 209.68 278.188 206.64C286.668 200.56 295.148 197.52 303.628 197.52H342.268C350.428 197.52 358.908 200.56 367.708 206.64C376.348 212.72 380.668 222.32 380.668 235.44V331.92C380.668 339.6 376.268 343.44 367.468 343.44C358.668 343.44 354.268 339.6 354.268 331.92V237.6C354.268 233.44 352.988 229.44 350.428 225.6L350.668 225.84C348.588 222 344.348 220.08 337.948 220.08H307.948C301.388 220.08 297.068 222 294.988 225.84C292.748 229.2 291.628 233.12 291.628 237.6V331.92Z" fill="#0E8162"/>
</svg>
