<svg width="64" height="64" viewBox="0 0 64 64" fill="none" xmlns="http://www.w3.org/2000/svg">
<g clip-path="url(#clip0)">
<path d="M32.0062 42.5C37.0611 42.5 41.2774 38.9204 42.2787 34.165H59.0949C57.906 47.9937 46.3073 58.8438 32.1814 58.8438C18.0551 58.8438 6.44397 47.9937 5.26797 34.165H21.7338C22.7346 38.9333 26.9514 42.5 32.0062 42.5Z" fill="white"/>
<path d="M26.0005 58.1429C14.7897 55.5149 6.26875 45.9158 5.26747 34.165H11.8991C12.562 44.8275 18.1554 53.8633 26.0005 58.1429Z" fill="#DFDFDF"/>
<path d="M25.8128 32.0003C25.8253 32.0003 25.8253 32.0003 25.8128 32.0003C25.8253 31.2369 25.9631 30.511 26.2132 29.8355C27.0892 27.4826 29.3538 25.8181 32.0063 25.8181C34.6587 25.8181 36.9234 27.4951 37.7994 29.8355C38.0564 30.5283 38.1877 31.2614 38.1872 32.0003H38.1747C38.1747 32.7636 38.037 33.4895 37.7869 34.165C36.9109 36.518 34.6462 38.1825 31.9938 38.1825C29.3413 38.1825 27.0767 36.5055 26.2007 34.165C25.9506 33.5015 25.8128 32.7636 25.8128 32.0003Z" fill="white"/>
<path d="M31.9938 21.5126C26.9389 21.5126 22.7226 25.0922 21.7213 29.8475H4.90509C6.09356 16.0064 17.6927 5.15625 31.831 5.15625C45.9698 5.15625 57.556 16.0064 58.7445 29.835H42.2662C41.2654 25.0792 37.0486 21.5126 31.9938 21.5126Z" fill="#FF1C1C"/>
<path d="M11.8992 29.8351H4.9176C5.94335 17.8836 14.7523 8.14728 26.2506 5.73145C18.2678 9.9486 12.575 19.0718 11.8992 29.8351Z" fill="#DF1818"/>
<path d="M31.831 5.15622C17.6922 5.15622 6.09357 16.0064 4.91757 29.835H21.7338C22.7346 25.0792 26.9514 21.5001 32.0067 21.5001C37.0616 21.5001 41.2779 25.0797 42.2791 29.835H58.745C57.5565 16.0059 45.9574 5.15622 31.8315 5.15622H31.831ZM26.2132 29.835C25.9631 30.5105 25.8253 31.2364 25.8253 31.9998H25.8128C25.8128 32.7631 25.9506 33.489 26.2007 34.1645C27.0762 36.5175 29.3413 38.1819 31.9938 38.1819C34.6462 38.1819 36.9109 36.505 37.7868 34.1645C38.0439 33.4718 38.1752 32.7387 38.1747 31.9998H38.1872C38.1872 31.2364 38.0494 30.5105 37.7993 29.835C36.9238 27.4821 34.6587 25.8176 32.0062 25.8176C29.3538 25.8176 27.0891 27.4946 26.2132 29.835ZM32.1814 58.8563C46.3202 58.8563 57.9189 48.0061 59.0949 34.1775H42.2787C41.2779 38.9328 37.0611 42.5124 32.0062 42.5124C26.9514 42.5124 22.7346 38.9328 21.7333 34.1775H5.25501C6.44349 47.9936 18.0426 58.8563 32.181 58.8563H32.1814ZM32.0062 0C49.6735 0 64 14.3289 64 32.0002C64 49.6711 49.6735 64.0005 32.0062 64.0005C14.339 64.0005 0 49.6836 0 32.0002C0 14.3169 14.3265 0 32.0062 0Z" fill="#33363A"/>
</g>
<defs>
<clipPath id="clip0">
<rect width="64" height="64" fill="white" transform="matrix(-1 0 0 1 64 0)"/>
</clipPath>
</defs>
</svg>
