<?xml version="1.0" encoding="UTF-8" standalone="no"?>
<!DOCTYPE svg PUBLIC "-//W3C//DTD SVG 1.1//EN" "http://www.w3.org/Graphics/SVG/1.1/DTD/svg11.dtd">
<svg width="100%" height="100%" viewBox="0 0 302 135" version="1.1" xmlns="http://www.w3.org/2000/svg" xmlns:xlink="http://www.w3.org/1999/xlink" xml:space="preserve" xmlns:serif="http://www.serif.com/" style="fill-rule:evenodd;clip-rule:evenodd;stroke-linecap:round;stroke-linejoin:round;">
    <g transform="matrix(1,0,0,1,-49.36,-82.879)">
        <g id="_146_404_page_not_found_flatline">
            <path d="M98.53,188.69L49.36,188.69L49.36,169.25L95.91,96.56L118.13,96.56L118.13,171.05L135,171.05L135,188.69L118.13,188.69L118.13,212.21L98.53,212.21L98.53,188.69ZM98.53,124.33L98.2,124.33L69.29,171.05L98.53,171.05L98.53,124.33Z" style="fill-rule:nonzero;"/>
            <path d="M314.21,188.69L265.05,188.69L265.05,169.25L311.6,96.56L333.82,96.56L333.82,171.05L350.64,171.05L350.64,188.69L333.82,188.69L333.82,212.21L314.21,212.21L314.21,188.69ZM317.63,124.33L317.3,124.33L288.39,171.05L317.63,171.05L317.63,124.33Z" style="fill-rule:nonzero;"/>
            <path d="M196.48,102.33L196.47,102.33C167.971,102.33 144.52,125.781 144.52,154.28C144.52,182.779 167.971,206.23 196.47,206.23C224.95,206.23 248.393,182.81 248.42,154.33C248.42,154.31 248.42,154.29 248.42,154.27C248.42,125.777 224.973,102.33 196.48,102.33Z" style="fill:white;fill-rule:nonzero;stroke:rgb(35,31,32);stroke-width:1.03px;"/>
            <ellipse cx="223.71" cy="137.38" rx="2.4" ry="3.57" style="fill:rgb(35,31,32);"/>
            <path d="M135.46,138.89L257.46,111.89L233.46,104.89C233.46,104.89 220.46,83.34 216.99,82.89C213.52,82.44 150.46,95.89 150.46,95.89L146.46,126.25L135.46,138.89Z" style="fill:rgb(35,31,32);fill-rule:nonzero;"/>
            <path d="M176.27,165.1C176.27,165.1 207.27,152.71 220.83,175.79" style="fill:white;fill-rule:nonzero;"/>
            <path d="M220.83,176.31C220.648,176.308 220.479,176.209 220.39,176.05C207.2,153.62 176.76,165.46 176.46,165.58C176.398,165.604 176.332,165.617 176.265,165.617C175.971,165.617 175.728,165.374 175.728,165.08C175.728,164.859 175.864,164.66 176.07,164.58C176.39,164.46 207.64,152.29 221.28,175.49C221.419,175.735 221.339,176.05 221.1,176.2C221.022,176.261 220.928,176.299 220.83,176.31Z" style="fill:rgb(35,31,32);fill-rule:nonzero;"/>
            <path d="M160.86,211.99L147.07,190.19L207.35,179.88L211.49,200.77L217.61,181.53L248.45,187.62L242.18,211.99L160.86,211.99Z" style="fill:rgb(35,31,32);fill-rule:nonzero;"/>
            <g transform="matrix(0.990557,-0.137099,0.137099,0.990557,-21.84,34.9)">
                <path d="M239.69,164.23L245.3,164.23L245.3,185.17C245.3,186.618 244.108,187.81 242.66,187.81L242.33,187.81C240.882,187.81 239.69,186.618 239.69,185.17L239.69,164.23Z" style="fill:white;fill-rule:nonzero;"/>
            </g>
            <path d="M243.59,188.25C242.031,188.245 240.698,187.084 240.48,185.54L237.61,164.79C237.575,164.519 237.769,164.266 238.04,164.23L243.59,163.46C243.722,163.443 243.855,163.479 243.96,163.56C244.067,163.638 244.136,163.758 244.15,163.89L247,184.63C247.021,184.778 247.032,184.927 247.032,185.077C247.032,186.635 245.865,187.966 244.32,188.17L244,188.22C243.864,188.239 243.727,188.249 243.59,188.25ZM238.67,165.15L241.47,185.4C241.634,186.56 242.718,187.383 243.88,187.23L244.21,187.23C245.369,187.066 246.189,185.98 246.03,184.82L243.23,164.57L238.67,165.15Z" style="fill:rgb(35,31,32);fill-rule:nonzero;"/>
            <g transform="matrix(0.990557,-0.137099,0.137099,0.990557,-19.11,34.33)">
                <rect x="235.19" y="145.7" width="9.05" height="20.48" style="fill:white;"/>
            </g>
            <path d="M236.64,167.21C236.532,167.207 236.428,167.173 236.34,167.11C236.231,167.034 236.161,166.913 236.15,166.78L233.34,146.48C233.319,146.35 233.351,146.216 233.43,146.11C233.513,146.008 233.63,145.94 233.76,145.92L242.76,144.68C242.784,144.676 242.809,144.675 242.833,144.675C243.081,144.675 243.292,144.863 243.32,145.11L246.13,165.4C246.165,165.671 245.971,165.924 245.7,165.96L236.7,167.2L236.64,167.21ZM234.4,146.84L237.07,166.14L245.07,165.04L242.4,145.74L234.4,146.84Z" style="fill:rgb(35,31,32);fill-rule:nonzero;"/>
            <g transform="matrix(0.990557,-0.137099,0.137099,0.990557,-24.79,35.51)">
                <path d="M250.03,183.18C250.03,181.414 248.596,179.98 246.83,179.98L244.18,179.98C242.414,179.98 240.98,181.414 240.98,183.18L240.98,212.4C240.98,214.166 242.414,215.6 244.18,215.6L246.83,215.6C248.596,215.6 250.03,214.166 250.03,212.4L250.03,183.18Z" style="fill:white;"/>
            </g>
            <path d="M246.19,216.14C244.354,216.138 242.783,214.769 242.53,212.95L238.53,184C238.392,183.029 238.648,182.042 239.24,181.26C239.833,180.481 240.71,179.967 241.68,179.83L244.32,179.47C246.325,179.193 248.203,180.615 248.48,182.62L252.48,211.62C252.751,213.624 251.332,215.498 249.33,215.78L246.69,216.15L246.19,216.14ZM244.83,180.43C244.707,180.42 244.583,180.42 244.46,180.43L241.82,180.79C241.11,180.887 240.468,181.265 240.04,181.84C239.601,182.408 239.413,183.131 239.52,183.84L243.52,212.84C243.731,214.284 245.071,215.311 246.52,215.14L249.16,214.77C250.606,214.564 251.637,213.22 251.46,211.77L247.46,182.77C247.277,181.446 246.137,180.447 244.8,180.44L244.83,180.43Z" style="fill:rgb(35,31,32);fill-rule:nonzero;"/>
            <circle cx="237.6" cy="140.62" r="24.03" style="fill:white;"/>
            <path d="M237.58,165.15C224.122,165.144 213.051,154.068 213.051,140.61C213.051,127.148 224.129,116.07 237.591,116.07C249.79,116.07 260.23,125.166 261.9,137.25C263.728,150.566 254.308,163.037 241,164.92C239.866,165.073 238.724,165.149 237.58,165.15ZM237.58,117.08C236.493,117.079 235.407,117.152 234.33,117.3C222.738,118.902 214.012,128.916 214.012,140.618C214.012,153.532 224.639,164.158 237.552,164.158C250.466,164.158 261.092,153.532 261.092,140.618C261.092,139.538 261.018,138.46 260.87,137.39C259.252,125.835 249.288,117.131 237.62,117.08L237.58,117.08Z" style="fill:rgb(35,31,32);fill-rule:nonzero;"/>
            <circle cx="237.6" cy="140.62" r="19.52" style="fill:white;"/>
            <path d="M237.59,160.64C237.59,160.64 237.59,160.64 237.59,160.64C226.618,160.64 217.59,151.612 217.59,140.64C217.59,129.668 226.618,120.64 237.59,120.64C248.561,120.64 257.59,129.668 257.59,140.64C257.59,150.578 250.183,159.083 240.34,160.45C239.429,160.578 238.51,160.641 237.59,160.64ZM237.59,121.64C236.704,121.641 235.818,121.701 234.94,121.82C225.588,123.117 218.549,131.198 218.549,140.64C218.549,151.063 227.126,159.64 237.549,159.64C247.973,159.64 256.549,151.063 256.549,140.64C256.549,130.232 247.998,121.662 237.59,121.64Z" style="fill:rgb(35,31,32);fill-rule:nonzero;"/>
            <path d="M260.55,194.79C259.229,193.114 257.556,191.748 255.65,190.79C249.92,187.79 243.35,187.89 237.32,189.79C235.18,190.47 231.03,191.44 230.81,194.28C230.826,195.44 231.605,196.459 232.72,196.78C233.814,197.064 234.957,197.108 236.07,196.91C234.484,196.867 232.917,197.262 231.54,198.05C230.25,198.96 229.54,200.95 230.6,202.16C231.068,202.663 231.679,203.012 232.35,203.16C233.809,203.561 235.352,203.54 236.8,203.1C235.233,203.4 233.707,203.88 232.25,204.53C231.37,204.92 230.39,205.61 230.49,206.53C230.59,207.45 231.49,207.87 232.31,208.15C234.035,208.742 235.838,209.079 237.66,209.15C236.087,209.435 234.599,210.075 233.31,211.02C231.31,212.7 231.31,215.89 234.02,216.8C234.889,217.054 235.796,217.159 236.7,217.11C244.7,217.11 254.28,216.11 259.7,209.45C262.365,206.336 263.324,202.098 262.26,198.14C261.89,196.932 261.311,195.798 260.55,194.79Z" style="fill:white;fill-rule:nonzero;"/>
            <path d="M236.64,217.58C235.701,217.626 234.762,217.514 233.86,217.25C232.644,216.88 231.727,215.867 231.48,214.62C231.248,213.118 231.818,211.599 232.98,210.62C233.625,210.085 234.355,209.662 235.14,209.37C234.12,209.197 233.117,208.94 232.14,208.6C230.81,208.14 230.14,207.46 229.99,206.6C229.84,205.74 230.61,204.7 231.99,204.05L232.7,203.75C232.518,203.716 232.338,203.673 232.16,203.62C231.391,203.458 230.691,203.059 230.16,202.48C229.667,201.876 229.453,201.091 229.57,200.32C229.726,199.248 230.311,198.283 231.19,197.65C231.501,197.432 231.837,197.25 232.19,197.11C231.028,196.636 230.269,195.495 230.28,194.24C230.51,191.32 234.12,190.24 236.5,189.51L237.14,189.32C243.82,187.21 250.47,187.58 255.85,190.32C257.828,191.321 259.56,192.749 260.92,194.5C261.719,195.547 262.331,196.725 262.73,197.98C263.853,202.099 262.859,206.518 260.08,209.76C254.41,216.69 244.59,217.59 236.67,217.6L236.64,217.58ZM235.69,203.79C234.579,204.072 233.495,204.45 232.45,204.92C231.98,205.13 230.91,205.7 230.99,206.44C231.07,207.18 231.83,207.44 232.47,207.65C234.148,208.237 235.904,208.574 237.68,208.65C237.927,208.654 238.135,208.844 238.16,209.09C238.188,209.336 238.029,209.567 237.79,209.63C236.29,209.908 234.87,210.512 233.63,211.4C232.728,212.141 232.283,213.306 232.46,214.46C232.638,215.355 233.303,216.078 234.18,216.33C234.994,216.57 235.843,216.665 236.69,216.61C244.4,216.61 253.93,215.75 259.33,209.14C261.899,206.159 262.829,202.091 261.81,198.29C261.442,197.146 260.881,196.074 260.15,195.12C258.884,193.484 257.268,192.151 255.42,191.22C250.27,188.57 243.9,188.22 237.47,190.22L236.82,190.42C234.7,191.06 231.48,192.03 231.3,194.27C231.338,195.206 231.978,196.016 232.88,196.27C233.458,196.455 234.065,196.529 234.67,196.49C235.14,196.44 235.6,196.41 236.04,196.38C236.308,196.373 236.539,196.574 236.57,196.84C236.588,197.11 236.388,197.349 236.12,197.38C235.67,197.38 235.2,197.48 234.72,197.49C233.693,197.557 232.699,197.88 231.83,198.43C231.173,198.905 230.736,199.627 230.62,200.43C230.541,200.923 230.671,201.427 230.98,201.82C231.387,202.237 231.909,202.523 232.48,202.64C233.457,202.904 234.477,202.972 235.48,202.84C235.88,202.74 236.29,202.65 236.69,202.57C236.949,202.52 237.206,202.684 237.27,202.94C237.329,203.197 237.181,203.459 236.93,203.54C236.524,203.657 236.11,203.741 235.69,203.79Z" style="fill:rgb(35,31,32);fill-rule:nonzero;"/>
            <path d="M204.79,141C204.79,141 216.97,159.3 209.6,159.56C202.23,159.82 201.6,157.89 201.6,157.89" style="fill:white;fill-rule:nonzero;"/>
            <path d="M208.28,160.14C202.1,160.14 201.21,158.45 201.09,158.14C201.004,157.869 201.151,157.574 201.42,157.48C201.689,157.395 201.98,157.543 202.07,157.81C202.16,158.077 202.97,159.36 209.58,159.12C210.237,159.181 210.871,158.852 211.2,158.28C212.78,155.21 206.8,145.03 204.36,141.37C204.315,141.291 204.291,141.202 204.291,141.111C204.291,140.826 204.526,140.591 204.811,140.591C204.97,140.591 205.121,140.664 205.22,140.79C206.15,142.19 214.22,154.59 212.12,158.79C211.631,159.703 210.654,160.253 209.62,160.2L208.28,160.14Z" style="fill:rgb(35,31,32);fill-rule:nonzero;"/>
            <ellipse cx="238.71" cy="140.01" rx="4.42" ry="7.53" style="fill:rgb(209,211,212);"/>
            <ellipse cx="184.62" cy="140.01" rx="3.37" ry="6.09" style="fill:rgb(35,31,32);"/>
        </g>
    </g>
</svg>
