<svg width="260" height="152" viewBox="0 0 260 152" fill="none" xmlns="http://www.w3.org/2000/svg">
<path d="M65.0114 151.977C104.571 152.048 129.145 123.71 129.216 75.5568C129.287 27.6875 104.571 0.556813 65.0114 0.556813C25.3807 0.556813 0.948864 27.5455 0.806819 75.5568C0.664773 123.497 25.3807 151.906 65.0114 151.977ZM65.0114 119.875C51.375 119.875 41.5739 106.168 41.7159 75.5568C41.858 45.6562 51.375 32.375 65.0114 32.375C78.6477 32.375 88.2358 45.6562 88.3068 75.5568C88.3778 106.168 78.6477 119.875 65.0114 119.875ZM147.753 148H259.401V116.466H202.582V115.614L216.219 104.25C249.386 76.6222 257.838 62.2756 257.838 45.4432C257.838 18.3125 235.608 0.556813 200.736 0.556813C166.858 0.556813 144.841 19.3778 144.912 49.9886H182.412C182.341 37.7727 189.798 30.9545 200.736 30.9545C211.602 30.9545 219.344 37.7017 219.344 48.8523C219.344 59.1506 212.739 65.8267 202.014 74.7045L147.753 119.591V148Z" fill="#F0F0F0"/>
</svg>
