<svg width="266" height="152" viewBox="0 0 266 152" fill="none" xmlns="http://www.w3.org/2000/svg">
<path d="M65.0114 151.977C104.571 152.048 129.145 123.71 129.216 75.5568C129.287 27.6875 104.571 0.556813 65.0114 0.556813C25.3807 0.556813 0.948864 27.5455 0.806819 75.5568C0.664773 123.497 25.3807 151.906 65.0114 151.977ZM65.0114 119.875C51.375 119.875 41.5739 106.168 41.7159 75.5568C41.858 45.6562 51.375 32.375 65.0114 32.375C78.6477 32.375 88.2358 45.6562 88.3068 75.5568C88.3778 106.168 78.6477 119.875 65.0114 119.875ZM204.571 149.989C240.153 149.989 265.224 131.878 265.082 106.239C265.224 88.4119 253.293 75.8409 229.855 73.2841V72.1477C247.185 70.3011 259.827 59.1506 259.685 42.8864C259.827 18.3835 237.099 0.556813 204.855 0.556813C171.901 0.556813 148.463 19.3778 148.321 46.0114H186.105C186.247 37.2045 193.989 30.9545 204.855 30.9545C214.798 30.9545 221.759 36.9915 221.616 45.4432C221.759 54.25 213.52 60.5 201.73 60.5H186.957V87.7727H201.73C214.514 87.7727 223.463 94.0227 223.321 102.83C223.463 111.849 215.793 118.17 204.855 118.17C193.491 118.17 185.395 112.134 185.253 103.682H145.48C145.622 130.812 170.125 149.989 204.571 149.989Z" fill="#F0F0F0"/>
</svg>
