<svg width="272" height="152" viewBox="0 0 272 152" fill="none" xmlns="http://www.w3.org/2000/svg">
<path d="M65.0114 151.977C104.571 152.048 129.145 123.71 129.216 75.5568C129.287 27.6875 104.571 0.556813 65.0114 0.556813C25.3807 0.556813 0.948864 27.5455 0.806819 75.5568C0.664773 123.497 25.3807 151.906 65.0114 151.977ZM65.0114 119.875C51.375 119.875 41.5739 106.168 41.7159 75.5568C41.858 45.6562 51.375 32.375 65.0114 32.375C78.6477 32.375 88.2358 45.6562 88.3068 75.5568C88.3778 106.168 78.6477 119.875 65.0114 119.875ZM146.332 125.273H217.071V148H254.855V125.273H271.616V94.5909H254.855V2.54545H204.855L146.332 94.5909V125.273ZM217.923 94.5909H185.253V93.4545L216.787 43.4545H217.923V94.5909Z" fill="#F0F0F0"/>
</svg>
