<svg width="265" height="152" viewBox="0 0 265 152" fill="none" xmlns="http://www.w3.org/2000/svg">
<path d="M65.0114 151.977C104.571 152.048 129.145 123.71 129.216 75.5568C129.287 27.6875 104.571 0.556813 65.0114 0.556813C25.3807 0.556813 0.948864 27.5455 0.806819 75.5568C0.664773 123.497 25.3807 151.906 65.0114 151.977ZM65.0114 119.875C51.375 119.875 41.5739 106.168 41.7159 75.5568C41.858 45.6562 51.375 32.375 65.0114 32.375C78.6477 32.375 88.2358 45.6562 88.3068 75.5568C88.3778 106.168 78.6477 119.875 65.0114 119.875ZM205.991 149.989C241.432 149.989 264.585 128.469 264.514 98C264.585 70.3722 245.267 50.8409 219.344 50.8409C204.571 50.8409 192.639 57.375 188.094 66.1818H187.241L190.082 34.0795H255.423V2.54545H157.696L152.014 82.6591L186.673 89.4773C190.011 82.375 197.611 78.1136 205.991 78.1136C218.065 78.1136 226.517 86.4233 226.446 99.1364C226.517 111.849 218.065 120.159 205.991 120.159C195.551 120.159 186.957 113.767 186.673 103.682H148.321C148.534 130.812 172.469 149.989 205.991 149.989Z" fill="#F0F0F0"/>
</svg>
