<?xml version="1.0" encoding="UTF-8" standalone="no"?>
<svg
   xmlns:dc="http://purl.org/dc/elements/1.1/"
   xmlns:cc="http://creativecommons.org/ns#"
   xmlns:rdf="http://www.w3.org/1999/02/22-rdf-syntax-ns#"
   xmlns:svg="http://www.w3.org/2000/svg"
   xmlns="http://www.w3.org/2000/svg"
   viewBox="0 0 301.28 134.72104"
   version="1.1"
   id="svg51"
   width="301.28"
   height="134.72104">
  <metadata
     id="metadata57">
    <rdf:RDF>
      <cc:Work
         rdf:about="">
        <dc:format>image/svg+xml</dc:format>
        <dc:type
           rdf:resource="http://purl.org/dc/dcmitype/StillImage" />
        <dc:title></dc:title>
      </cc:Work>
    </rdf:RDF>
  </metadata>
  <defs
     id="defs55" />
  <g
     id="_146_404_page_not_found_flatline"
     data-name="#146_404_page_not_found_flatline"
     transform="translate(-49.36,-82.878955)">
    <path
       d="M 98.53,188.69 H 49.36 V 169.25 L 95.91,96.56 h 22.22 v 74.49 H 135 v 17.64 h -16.87 v 23.52 h -19.6 z m 0,-64.36 H 98.2 l -28.91,46.72 h 29.24 z"
       fill="#000000"
       id="path2" />
    <path
       d="M 314.21,188.69 H 265.05 V 169.25 L 311.6,96.56 h 22.22 v 74.49 h 16.82 v 17.64 h -16.82 v 23.52 h -19.61 z m 3.42,-64.36 h -0.33 l -28.91,46.72 h 29.24 z"
       fill="#000000"
       id="path4" />
    <path
       d="m 196.48,102.33 a 51.95,51.95 0 1 0 51.94,52 51.94,51.94 0 0 0 -51.94,-52 z"
       fill="#ffffff"
       stroke="#231f20"
       stroke-linecap="round"
       stroke-linejoin="round"
       stroke-width="1.03"
       id="path6" />
    <ellipse
       cx="223.71001"
       cy="137.38"
       rx="2.4000001"
       ry="3.5699999"
       fill="#231f20"
       id="ellipse8" />
    <path
       d="m 135.46,138.89 122,-27 -24,-7 c 0,0 -13,-21.55 -16.47,-22 -3.47,-0.45 -66.53,13 -66.53,13 l -4,30.36 z"
       fill="#231f20"
       id="path10" />
    <path
       d="m 176.27,165.1 c 0,0 31,-12.39 44.56,10.69"
       fill="#ffffff"
       id="path12" />
    <path
       d="m 220.83,176.31 a 0.51,0.51 0 0 1 -0.44,-0.26 C 207.2,153.62 176.76,165.46 176.46,165.58 a 0.53667961,0.53667961 0 0 1 -0.39,-1 c 0.32,-0.12 31.57,-12.29 45.21,10.91 a 0.53,0.53 0 0 1 -0.18,0.71 0.54,0.54 0 0 1 -0.27,0.11 z"
       fill="#231f20"
       id="path14" />
    <polygon
       points="217.61,181.53 248.45,187.62 242.18,211.99 160.86,211.99 147.07,190.19 207.35,179.88 211.49,200.77 "
       fill="#231f20"
       id="polygon16" />
    <path
       d="m 239.69,164.23 h 5.61 v 20.94 a 2.64,2.64 0 0 1 -2.64,2.64 h -0.33 a 2.64,2.64 0 0 1 -2.64,-2.64 z"
       transform="rotate(-7.88,242.43911,175.99908)"
       fill="#ffffff"
       id="path18" />
    <path
       d="m 243.59,188.25 a 3.15,3.15 0 0 1 -3.11,-2.71 l -2.87,-20.75 a 0.5,0.5 0 0 1 0.43,-0.56 l 5.55,-0.77 a 0.5,0.5 0 0 1 0.37,0.1 0.47,0.47 0 0 1 0.19,0.33 l 2.85,20.74 a 3.12,3.12 0 0 1 -2.68,3.54 l -0.32,0.05 a 3.11,3.11 0 0 1 -0.41,0.03 z m -4.92,-23.1 2.8,20.25 a 2.15,2.15 0 0 0 2.41,1.83 h 0.33 v 0 a 2.14,2.14 0 0 0 1.82,-2.41 l -2.8,-20.25 z"
       fill="#231f20"
       id="path20" />
    <rect
       x="235.19"
       y="145.7"
       width="9.0500002"
       height="20.48"
       transform="rotate(-7.88,239.66615,155.89545)"
       fill="#ffffff"
       id="rect22" />
    <path
       d="m 236.64,167.21 a 0.54,0.54 0 0 1 -0.3,-0.1 0.45,0.45 0 0 1 -0.19,-0.33 l -2.81,-20.3 a 0.49,0.49 0 0 1 0.09,-0.37 0.53,0.53 0 0 1 0.33,-0.19 l 9,-1.24 a 0.49,0.49 0 0 1 0.56,0.43 l 2.81,20.29 a 0.5,0.5 0 0 1 -0.43,0.56 l -9,1.24 z m -2.24,-20.37 2.67,19.3 8,-1.1 -2.67,-19.3 z"
       fill="#231f20"
       id="path24" />
    <rect
       x="240.98"
       y="179.98"
       width="9.0500002"
       height="35.619999"
       rx="3.2"
       transform="rotate(-7.88,245.39245,197.71982)"
       fill="#ffffff"
       id="rect26" />
    <path
       d="m 246.19,216.14 a 3.7,3.7 0 0 1 -3.66,-3.19 l -4,-28.95 a 3.68,3.68 0 0 1 0.71,-2.74 3.72,3.72 0 0 1 2.44,-1.43 l 2.64,-0.36 a 3.69,3.69 0 0 1 4.16,3.15 l 4,29 a 3.7,3.7 0 0 1 -3.15,4.16 v 0 l -2.64,0.37 z m 3.08,-0.89 z m -4.44,-34.82 a 2.31,2.31 0 0 0 -0.37,0 l -2.64,0.36 a 2.67,2.67 0 0 0 -1.78,1.05 2.63,2.63 0 0 0 -0.52,2 l 4,29 a 2.71,2.71 0 0 0 3,2.3 l 2.64,-0.37 a 2.7,2.7 0 0 0 2.3,-3 l -4,-29 a 2.7,2.7 0 0 0 -2.66,-2.33 z"
       fill="#231f20"
       id="path28" />
    <circle
       cx="237.60001"
       cy="140.62"
       r="24.030001"
       fill="#ffffff"
       id="circle30" />
    <path
       d="m 237.58,165.15 a 24.54,24.54 0 1 1 24.32,-27.9 v 0 a 24.57,24.57 0 0 1 -20.9,27.67 25.71,25.71 0 0 1 -3.42,0.23 z m 0,-48.07 a 23.77,23.77 0 0 0 -3.25,0.22 23.54,23.54 0 1 0 26.54,20.09 v 0 a 23.58,23.58 0 0 0 -23.25,-20.31 z"
       fill="#231f20"
       id="path32" />
    <circle
       cx="237.60001"
       cy="140.62"
       r="19.52"
       fill="#ffffff"
       id="circle34" />
    <path
       d="m 237.59,160.64 a 20,20 0 1 1 2.75,-0.19 19.66,19.66 0 0 1 -2.75,0.19 z m 0,-39 a 19.78,19.78 0 0 0 -2.65,0.18 19,19 0 1 0 2.65,-0.18 z"
       fill="#231f20"
       id="path36" />
    <path
       d="m 260.55,194.79 a 14.57,14.57 0 0 0 -4.9,-4 c -5.73,-3 -12.3,-2.9 -18.33,-1 -2.14,0.68 -6.29,1.65 -6.51,4.49 a 2.64,2.64 0 0 0 1.91,2.5 7.86,7.86 0 0 0 3.35,0.13 8.65,8.65 0 0 0 -4.53,1.14 c -1.29,0.91 -2,2.9 -0.94,4.11 a 3.39,3.39 0 0 0 1.75,1 8,8 0 0 0 4.45,-0.06 20.74,20.74 0 0 0 -4.55,1.43 c -0.88,0.39 -1.86,1.08 -1.76,2 0.1,0.92 1,1.34 1.82,1.62 a 18.75,18.75 0 0 0 5.35,1 10.54,10.54 0 0 0 -4.35,1.87 c -2,1.68 -2,4.87 0.71,5.78 a 8,8 0 0 0 2.68,0.31 c 8,0 17.58,-1 23,-7.66 a 12.43,12.43 0 0 0 2.56,-11.31 10.84,10.84 0 0 0 -1.71,-3.35 z"
       fill="#ffffff"
       id="path38" />
    <path
       d="m 236.64,217.58 a 8.43,8.43 0 0 1 -2.78,-0.33 3.45,3.45 0 0 1 -2.38,-2.63 4.36,4.36 0 0 1 1.5,-4 7.46,7.46 0 0 1 2.16,-1.25 18.61,18.61 0 0 1 -3,-0.77 c -1.33,-0.46 -2,-1.14 -2.15,-2 -0.15,-0.86 0.62,-1.9 2,-2.55 l 0.71,-0.3 a 5.29,5.29 0 0 1 -0.54,-0.13 3.77,3.77 0 0 1 -2,-1.14 2.76,2.76 0 0 1 -0.59,-2.16 4,4 0 0 1 1.62,-2.67 4.88,4.88 0 0 1 1,-0.54 3.07,3.07 0 0 1 -1.91,-2.87 c 0.23,-2.92 3.84,-4 6.22,-4.73 l 0.64,-0.19 c 6.68,-2.11 13.33,-1.74 18.71,1 a 15,15 0 0 1 5.07,4.18 11.47,11.47 0 0 1 1.81,3.48 12.89,12.89 0 0 1 -2.65,11.78 c -5.67,6.93 -15.49,7.83 -23.41,7.84 z m -0.95,-13.79 a 19.74,19.74 0 0 0 -3.24,1.13 c -0.47,0.21 -1.54,0.78 -1.46,1.52 0.08,0.74 0.84,1 1.48,1.21 a 18.11,18.11 0 0 0 5.21,1 0.49,0.49 0 0 1 0.48,0.44 0.5,0.5 0 0 1 -0.37,0.54 10.4,10.4 0 0 0 -4.16,1.77 3.31,3.31 0 0 0 -1.17,3.06 2.44,2.44 0 0 0 1.72,1.87 7.2,7.2 0 0 0 2.51,0.28 c 7.71,0 17.24,-0.86 22.64,-7.47 a 11.9,11.9 0 0 0 2.48,-10.85 10.48,10.48 0 0 0 -1.66,-3.17 v 0 a 13.88,13.88 0 0 0 -4.73,-3.9 c -5.15,-2.65 -11.52,-3 -17.95,-1 l -0.65,0.2 c -2.12,0.64 -5.34,1.61 -5.52,3.85 a 2.17,2.17 0 0 0 1.58,2 4.85,4.85 0 0 0 1.79,0.22 c 0.47,-0.05 0.93,-0.08 1.37,-0.11 a 0.52,0.52 0 0 1 0.53,0.46 0.51,0.51 0 0 1 -0.45,0.54 c -0.45,0 -0.92,0.1 -1.4,0.11 a 6.15,6.15 0 0 0 -2.89,0.94 3,3 0 0 0 -1.21,2 1.79,1.79 0 0 0 0.36,1.39 2.91,2.91 0 0 0 1.5,0.82 7.68,7.68 0 0 0 3,0.2 c 0.4,-0.1 0.81,-0.19 1.21,-0.27 a 0.5,0.5 0 0 1 0.58,0.37 0.51,0.51 0 0 1 -0.34,0.6 7.66,7.66 0 0 1 -1.24,0.25 z"
       fill="#231f20"
       id="path40" />
    <path
       d="m 204.79,141 c 0,0 12.18,18.3 4.81,18.56 -7.37,0.26 -8,-1.67 -8,-1.67"
       fill="#ffffff"
       id="path42" />
    <path
       d="m 208.28,160.14 c -6.18,0 -7.07,-1.69 -7.19,-2 a 0.53,0.53 0 0 1 0.33,-0.66 0.52,0.52 0 0 1 0.65,0.33 v 0 c 0,0 0.9,1.55 7.51,1.31 a 1.69,1.69 0 0 0 1.62,-0.84 c 1.58,-3.07 -4.4,-13.25 -6.84,-16.91 a 0.52,0.52 0 0 1 0.86,-0.58 c 0.93,1.4 9,13.8 6.9,18 a 2.68,2.68 0 0 1 -2.5,1.41 z"
       fill="#231f20"
       id="path44" />
    <ellipse
       cx="238.71001"
       cy="140.00999"
       rx="4.4200001"
       ry="7.5300002"
       fill="#d1d3d4"
       id="ellipse46" />
    <ellipse
       cx="184.62"
       cy="140.00999"
       rx="3.3699999"
       ry="6.0900002"
       fill="#231f20"
       id="ellipse48" />
  </g>
</svg>
