<?xml version="1.0" encoding="UTF-8" standalone="no"?>
<svg
   xmlns:dc="http://purl.org/dc/elements/1.1/"
   xmlns:cc="http://creativecommons.org/ns#"
   xmlns:rdf="http://www.w3.org/1999/02/22-rdf-syntax-ns#"
   xmlns:svg="http://www.w3.org/2000/svg"
   xmlns="http://www.w3.org/2000/svg"
   viewBox="0 0 247.98859 227.29942"
   version="1.1"
   id="svg105"
   width="247.98859"
   height="227.29942">
  <metadata
     id="metadata111">
    <rdf:RDF>
      <cc:Work
         rdf:about="">
        <dc:format>image/svg+xml</dc:format>
        <dc:type
           rdf:resource="http://purl.org/dc/dcmitype/StillImage" />
        <dc:title></dc:title>
      </cc:Work>
    </rdf:RDF>
  </metadata>
  <defs
     id="defs109" />
  <g
     id="_505_achievement_flatline"
     data-name="#505_achievement_flatline"
     transform="translate(-76.006866,-36.120576)">
    <path
       d="m 152,130.07 a 0.59,0.59 0 0 1 -0.22,0 L 89,99.2 a 0.5,0.5 0 1 1 0.44,-0.89 l 62.79,30.81 a 0.5,0.5 0 0 1 0.23,0.67 0.52,0.52 0 0 1 -0.46,0.28 z"
       fill="#e6e7e8"
       id="path2" />
    <path
       d="m 267,111.54 c 0,0 3,-5.88 2.53,-8.27 -0.47,-2.39 -1.24,-9.57 -1.24,-9.57 l 19.71,1.83 -6.34,22.87"
       fill="#ffffff"
       id="path4" />
    <path
       d="m 281.64,118.92 h -0.14 a 0.52,0.52 0 0 1 -0.36,-0.63 L 287.31,96 268.87,94.29 c 0.22,1.8 0.83,7 1.17,8.91 0.45,2.53 -2.45,8.34 -2.58,8.59 a 0.52,0.52 0 0 1 -0.69,0.23 0.51,0.51 0 0 1 -0.23,-0.69 c 0.8,-1.6 2.81,-6.13 2.49,-8 -0.42,-2.38 -1.22,-9.31 -1.25,-9.61 a 0.52,0.52 0 0 1 0.14,-0.42 0.53,0.53 0 0 1 0.42,-0.15 L 288,95 a 0.55,0.55 0 0 1 0.38,0.22 0.51,0.51 0 0 1 0.07,0.43 l -6.33,22.88 a 0.51,0.51 0 0 1 -0.48,0.39 z"
       fill="#231f20"
       id="path6" />
    <path
       d="m 129.18,140.34 c 0,0 0.18,-11.64 0,-14.26 -0.18,-2.62 3.75,-17.2 2.81,-19.49 -0.94,-2.29 -3.56,-3.18 -4.5,-0.48 -0.94,2.7 -2.63,8.7 -2.63,8.7 0,0 -10.32,-6.36 -12.39,-2 -2.07,4.36 -4,12.47 -1.82,14.54 a 8.29,8.29 0 0 0 4.82,2.18 l -0.56,14.77 z"
       fill="#ffffff"
       id="path8" />
    <path
       d="m 114.91,144.85 a 0.54,0.54 0 0 1 -0.32,-0.11 0.49,0.49 0 0 1 -0.19,-0.42 l 0.54,-14.29 a 8.89,8.89 0 0 1 -4.64,-2.26 c -2.62,-2.46 -0.14,-11.21 1.7,-15.14 a 3,3 0 0 1 2,-1.65 c 3.19,-1 8.76,2 10.59,3 0.46,-1.63 1.7,-5.93 2.45,-8.09 a 2.62,2.62 0 0 1 2.32,-2 3.6,3.6 0 0 1 3.15,2.46 c 0.56,1.38 -0.23,5.65 -1.52,12 a 53,53 0 0 0 -1.26,7.63 c 0.19,2.62 0,13.83 0,14.31 a 0.5,0.5 0 0 1 -0.37,0.49 l -14.27,4 a 0.34,0.34 0 0 1 -0.18,0.07 z m 0.5,-33 a 4.16,4.16 0 0 0 -1.15,0.15 2,2 0 0 0 -1.32,1.11 c -2,4.35 -3.86,12.13 -1.94,13.94 a 7.76,7.76 0 0 0 4.5,2 0.52,0.52 0 0 1 0.49,0.54 l -0.54,14.06 13.22,-3.7 c 0,-2 0.16,-11.53 0,-13.84 a 49.7,49.7 0 0 1 1.28,-7.91 c 0.87,-4.32 2.06,-10.23 1.58,-11.42 a 2.63,2.63 0 0 0 -2.17,-1.82 c -0.77,0 -1.17,0.73 -1.37,1.32 -0.93,2.65 -2.61,8.61 -2.62,8.67 a 0.53,0.53 0 0 1 -0.31,0.34 0.5,0.5 0 0 1 -0.46,0 c -0.07,-0.08 -5.6,-3.48 -9.19,-3.48 z m 13.77,28.53 z"
       fill="#231f20"
       id="path10" />
    <polygon
       points="189.91,261.12 197.63,234.87 209.8,260.14 241.03,260.14 221.97,187.6 168.98,210.25 155.05,263.42 "
       fill="#231f20"
       id="polygon12" />
    <path
       d="M 218.48,203.36 166.8,213 179.65,136.67 c 0,0 26.31,-5.28 32.67,-5.28 5.36,-0.04 6.16,71.97 6.16,71.97 z"
       fill="#ffffff"
       id="path14" />
    <path
       d="m 166.8,213.46 a 0.5,0.5 0 0 1 -0.35,-0.14 0.52,0.52 0 0 1 -0.15,-0.44 l 12.85,-76.34 a 0.51,0.51 0 0 1 0.4,-0.4 c 1.07,-0.22 26.43,-5.29 32.77,-5.29 v 0 c 1.14,0 3.82,0.06 5.58,36.48 0.86,17.8 1.07,35.84 1.08,36 a 0.51,0.51 0 0 1 -0.41,0.5 l -51.69,9.6 z m 13.28,-76.41 -12.67,75.29 50.57,-9.4 c -0.46,-39.9 -2.94,-71.09 -5.66,-71.09 -5.85,0 -29.15,4.58 -32.24,5.2 z"
       fill="#231f20"
       id="path16" />
    <path
       d="m 188.4,131.35 c -0.77,0.5 1.48,11.61 1.61,12.61 a 265.82,265.82 0 0 1 1.64,30.35 89.67,89.67 0 0 1 -6.55,33 c -1.91,4.85 -4.13,9.59 -6.46,14.25 -2.33,4.66 -6.91,5.46 -11.79,5.11 a 70,70 0 0 1 -15.39,-2.87 9.21,9.21 0 0 1 -4.71,-2.62 c -2,-2.55 0.18,-6 1.32,-8.44 1.62,-3.47 3.17,-7 4.62,-10.52 2.31,-5.69 8.54,-19.33 10.13,-25.26 2.07,-7.71 -1,-7.73 -0.64,-15.7 0.15,-3.22 0.19,-6.44 0.32,-9.66 0.07,-1.93 -0.51,-8 0.75,-9.46 9.63,-11.09 25.15,-10.79 25.15,-10.79 z"
       fill="#0e8162"
       id="path18" />
    <path
       d="m 227,129.57 c 0.32,0.06 -1.25,25.92 -1.14,27.21 0.83,9.81 15.2,48.39 15.2,48.39 0,3.55 -35.83,24.8 -38.12,18.43 10.62,-56 3.3,-92.23 3.05,-92.25 0.01,0 12.76,-3.35 21.01,-1.78 z"
       fill="#0e8162"
       id="path20" />
    <path
       d="m 200.74,145 -3.93,3.82 3.18,2.2 c 0,0 -3.35,24.92 -15.13,28.46 -11.78,3.54 -16.36,2.32 -16.36,2.32 l -6.5,8.45 c 0,0 10.1,2.89 10.82,3.13 0.72,0.24 22.12,-4.75 25.49,-18 a 137.73,137.73 0 0 0 3.94,-23.84 l 2.13,-2.68 z"
       fill="#231f20"
       id="path22" />
    <path
       d="m 186,169.71 a 0.51,0.51 0 0 1 -0.4,-0.2 L 175.62,156 a 0.49,0.49 0 0 1 0,-0.64 l 6.21,-6.42 -7.79,-2 a 0.48,0.48 0 0 1 -0.35,-0.34 0.5,0.5 0 0 1 0.12,-0.48 l 9.11,-9.77 a 0.50224496,0.50224496 0 0 1 0.73,0.69 l -8.54,9.15 7.81,2 a 0.51,0.51 0 0 1 0.35,0.35 0.49,0.49 0 0 1 -0.12,0.48 l -6.52,6.73 9.71,13.21 a 0.5,0.5 0 0 1 -0.11,0.69 0.47,0.47 0 0 1 -0.23,0.06 z"
       fill="#231f20"
       id="path24" />
    <path
       d="m 211,168.25 a 0.71,0.71 0 0 1 -0.2,0 0.51,0.51 0 0 1 -0.26,-0.66 l 7.33,-17.1 -7.52,-3.77 a 0.55,0.55 0 0 1 -0.25,-0.31 0.51,0.51 0 0 1 0.05,-0.4 l 5.62,-9.13 -7.38,-3.41 a 0.52,0.52 0 0 1 -0.25,-0.67 0.5,0.5 0 0 1 0.67,-0.24 l 7.89,3.65 a 0.49,0.49 0 0 1 0.27,0.31 0.53,0.53 0 0 1 -0.05,0.41 l -5.66,9.07 7.45,3.74 a 0.5,0.5 0 0 1 0.24,0.64 l -7.52,17.53 a 0.51,0.51 0 0 1 -0.43,0.34 z"
       fill="#231f20"
       id="path26" />
    <polygon
       points="311.51,64.63 292.21,83.44 296.77,110.01 272.91,97.47 249.05,110.01 253.61,83.44 234.31,64.63 260.98,60.75 272.91,36.58 284.84,60.75 "
       fill="#ffffff"
       id="polygon28" />
    <path
       d="m 296.77,110.51 a 0.46,0.46 0 0 1 -0.23,-0.06 L 272.91,98 249.28,110.42 a 0.47,0.47 0 0 1 -0.52,0 0.49,0.49 0 0 1 -0.2,-0.49 L 253.07,83.63 234,65 a 0.49,0.49 0 0 1 -0.13,-0.51 0.51,0.51 0 0 1 0.4,-0.34 l 26.42,-3.84 11.81,-23.93 a 0.52,0.52 0 0 1 0.9,0 l 11.81,23.93 26.42,3.84 a 0.51,0.51 0 0 1 0.4,0.34 0.49,0.49 0 0 1 -0.13,0.51 l -19.15,18.62 4.51,26.3 a 0.49,0.49 0 0 1 -0.2,0.49 0.45,0.45 0 0 1 -0.29,0.1 z M 272.91,97 a 0.46,0.46 0 0 1 0.23,0 l 23,12.08 -4.39,-25.57 a 0.53,0.53 0 0 1 0.14,-0.45 L 310.44,65 284.77,61.27 a 0.52,0.52 0 0 1 -0.38,-0.28 L 272.91,37.71 261.43,61 a 0.52,0.52 0 0 1 -0.38,0.28 L 235.38,65 254,83.08 a 0.53,0.53 0 0 1 0.14,0.45 l -4.39,25.57 23,-12.08 A 0.46,0.46 0 0 1 272.91,97 Z"
       fill="#231f20"
       id="path30" />
    <path
       d="m 227,129.57 c 0,0 18.75,6.3 23.56,4.89 C 255.37,133.05 265.1,110 265.1,110 l 19.71,2.45 c 0,0 -8.22,48.76 -23.86,51.38 -15.64,2.62 -36.43,-4.35 -36.43,-4.35 z"
       fill="#0e8162"
       id="path32" />
    <path
       d="m 181.38,111.54 c -0.8,-3.62 -1.88,-7.2 -2.2,-10.89 -0.32,-3.69 0.18,-7.6 2.27,-10.65 2.25,-3.28 5.12,-2.9 8.58,-3.35 4.59,-0.6 8.69,-2.9 12.95,-4.56 0.81,-0.32 2.07,-0.39 2.22,0.47 a 1.44,1.44 0 0 1 -0.15,0.78 13.62,13.62 0 0 1 -2.27,3.74 33.54,33.54 0 0 0 9.48,-3.74 11.07,11.07 0 0 1 -2.45,9.28 l 5.63,-2.82 a 9.49,9.49 0 0 1 -7.1,10.87"
       fill="#ffffff"
       id="path34" />
    <path
       d="m 181.38,112.05 a 0.5,0.5 0 0 1 -0.5,-0.4 c -0.21,-0.94 -0.44,-1.88 -0.67,-2.83 a 54.65,54.65 0 0 1 -1.54,-8.12 c -0.27,-3.06 -0.08,-7.44 2.36,-11 2,-2.9 4.52,-3.14 7.21,-3.38 l 1.73,-0.18 a 35.43,35.43 0 0 0 9.37,-3.09 c 1.13,-0.49 2.29,-1 3.45,-1.44 a 2.87,2.87 0 0 1 2.28,0 1.23,1.23 0 0 1 0.64,0.89 1.84,1.84 0 0 1 -0.18,1.06 14.18,14.18 0 0 1 -1.44,2.69 33.08,33.08 0 0 0 7.91,-3.35 0.49,0.49 0 0 1 0.47,0 0.52,0.52 0 0 1 0.29,0.37 11.57,11.57 0 0 1 -1.34,8 l 3.78,-1.89 a 0.53,0.53 0 0 1 0.46,0 0.51,0.51 0 0 1 0.28,0.36 10,10 0 0 1 -7.5,11.48 0.51,0.51 0 0 1 -0.61,-0.4 0.53,0.53 0 0 1 0.41,-0.61 8.61,8.61 0 0 0 5.37,-3.8 8.77,8.77 0 0 0 1.39,-5.84 l -5,2.51 a 0.52,0.52 0 0 1 -0.62,-0.8 10.59,10.59 0 0 0 2.45,-8.12 33.93,33.93 0 0 1 -9,3.42 0.52,0.52 0 0 1 -0.51,-0.84 13,13 0 0 0 2.2,-3.59 1.14,1.14 0 0 0 0.11,-0.5 0.21,0.21 0 0 0 -0.12,-0.17 2,2 0 0 0 -1.4,0.09 c -1.14,0.44 -2.3,1 -3.41,1.43 a 36.61,36.61 0 0 1 -9.66,3.16 c -0.61,0.08 -1.2,0.13 -1.77,0.19 -2.64,0.24 -4.73,0.43 -6.45,2.94 -2.26,3.3 -2.44,7.43 -2.19,10.32 a 55.2,55.2 0 0 0 1.52,8 c 0.23,1 0.46,1.9 0.68,2.85 a 0.52,0.52 0 0 1 -0.4,0.61 z"
       fill="#231f20"
       id="path36" />
    <path
       d="m 206,127 1.19,7.76 c 0,0 -1.22,11.29 -9.75,9.31 -8.53,-1.98 -11.93,-9.67 -11.93,-9.67 l -1.09,-20.5 c 0,0 6.29,-3.43 4.3,-17.12 a 42.16,42.16 0 0 0 22.15,2.87 c 0,0 3,14.1 2.08,20.7 A 7.29,7.29 0 0 1 206,127 Z"
       fill="#ffffff"
       id="path38" />
    <path
       d="m 199.33,144.85 a 9.28,9.28 0 0 1 -2,-0.24 18.77,18.77 0 0 1 -12.28,-10 0.39,0.39 0 0 1 0,-0.18 L 183.88,114 a 0.5,0.5 0 0 1 0.27,-0.48 c 0.06,0 5.93,-3.48 4,-16.59 a 0.54,0.54 0 0 1 0.21,-0.49 0.49,0.49 0 0 1 0.53,-0.05 42.08,42.08 0 0 0 21.86,2.82 0.52,0.52 0 0 1 0.57,0.41 c 0.12,0.57 3.05,14.26 2.08,20.88 a 7.79,7.79 0 0 1 -6.87,7 l 1.11,7.21 a 0.66,0.66 0 0 1 0,0.14 c 0,0.24 -0.71,6.14 -4.42,8.77 a 6.62,6.62 0 0 1 -3.89,1.23 z M 186,134.3 c 0.39,0.82 3.83,7.51 11.53,9.3 a 6.12,6.12 0 0 0 5.14,-0.82 c 3.14,-2.22 3.9,-7.35 4,-8 l -1.18,-7.69 a 0.5,0.5 0 0 1 0.12,-0.41 0.46,0.46 0 0 1 0.38,-0.18 6.75,6.75 0 0 0 6.45,-6.21 c 0.84,-5.77 -1.46,-17.57 -2,-20 a 44.09,44.09 0 0 1 -21.11,-2.61 c 1.43,11.67 -3.18,15.7 -4.4,16.55 z"
       fill="#231f20"
       id="path40" />
    <path
       d="m 201.59,107.94 c 0,0 4,7.43 2.83,8.55 -1.17,1.12 -4.28,0 -4.28,0"
       fill="#ffffff"
       id="path42" />
    <path
       d="M 202.72,117.49 A 8.9,8.9 0 0 1 200,117 a 0.5,0.5 0 1 1 0.33,-0.94 c 0.72,0.26 3,0.82 3.77,0.08 0.49,-0.45 -0.91,-4.23 -2.93,-7.94 a 0.5,0.5 0 0 1 0.2,-0.68 0.5,0.5 0 0 1 0.68,0.2 c 1.28,2.34 4.09,7.91 2.72,9.16 a 3,3 0 0 1 -2.05,0.61 z"
       fill="#231f20"
       id="path44" />
    <ellipse
       cx="194.31"
       cy="106.62"
       rx="0.83999997"
       ry="1.92"
       transform="rotate(-2.41,194.19079,106.58162)"
       fill="#231f20"
       id="ellipse46" />
    <ellipse
       cx="207.7"
       cy="106.62"
       rx="0.83999997"
       ry="1.92"
       transform="rotate(-2.41,207.50737,106.62391)"
       fill="#231f20"
       id="ellipse48" />
    <path
       d="m 189.87,110.4 a 11.86,11.86 0 0 0 -2.94,-3.33 4,4 0 0 0 -2.18,-1 3.56,3.56 0 0 0 -1.88,0.56 6.9,6.9 0 0 0 -3.28,4.6 5.49,5.49 0 0 0 0.1,2.67 6.09,6.09 0 0 0 2.66,3.2 18.36,18.36 0 0 0 3.88,1.68"
       fill="#ffffff"
       id="path50" />
    <path
       d="m 186.23,119.33 h -0.17 a 18.51,18.51 0 0 1 -4,-1.74 6.55,6.55 0 0 1 -2.87,-3.47 6,6 0 0 1 -0.12,-2.93 7.5,7.5 0 0 1 3.54,-5 4,4 0 0 1 2.15,-0.63 4.54,4.54 0 0 1 2.48,1.07 12.42,12.42 0 0 1 3.06,3.48 0.52,0.52 0 0 1 -0.18,0.71 0.52,0.52 0 0 1 -0.71,-0.19 11.07,11.07 0 0 0 -2.8,-3.18 3.55,3.55 0 0 0 -1.89,-0.85 3.05,3.05 0 0 0 -1.6,0.48 6.44,6.44 0 0 0 -3,4.26 5.15,5.15 0 0 0 0.09,2.42 5.56,5.56 0 0 0 2.44,2.91 17.62,17.62 0 0 0 3.78,1.63 0.51,0.51 0 0 1 0.32,0.65 0.5,0.5 0 0 1 -0.52,0.38 z"
       fill="#231f20"
       id="path52" />
    <path
       d="m 206,127 a 23.32,23.32 0 0 1 -14.32,-2.36 c 0,0 7.3,11.22 15.44,9.64 z"
       fill="#231f20"
       id="path54" />
    <path
       d="m 205.48,135 c -7.64,0 -14,-9.58 -14.25,-10 a 0.51,0.51 0 0 1 0.05,-0.61 0.49,0.49 0 0 1 0.6,-0.11 23,23 0 0 0 14,2.31 0.54,0.54 0 0 1 0.39,0.08 0.51,0.51 0 0 1 0.21,0.34 l 1.12,7.27 a 0.49,0.49 0 0 1 -0.39,0.57 9.15,9.15 0 0 1 -1.73,0.15 z m -12.29,-9 c 2.25,2.87 7.61,8.72 13.33,8 l -1,-6.29 a 23.76,23.76 0 0 1 -12.33,-1.78 z"
       fill="#231f20"
       id="path56" />
    <path
       d="m 195.14,113.37 a 6.78,6.78 0 1 1 6.78,-6.78 6.79,6.79 0 0 1 -6.78,6.78 z m 0,-12.53 a 5.75,5.75 0 1 0 5.75,5.75 5.76,5.76 0 0 0 -5.75,-5.75 z"
       fill="#231f20"
       id="path58" />
    <path
       d="m 208.66,113.37 a 6.78,6.78 0 1 1 6.78,-6.78 6.79,6.79 0 0 1 -6.78,6.78 z m 0,-12.53 a 5.75,5.75 0 1 0 5.75,5.75 5.76,5.76 0 0 0 -5.75,-5.75 z"
       fill="#231f20"
       id="path60" />
    <path
       d="m 201.63,121.63 v 0 c -3.16,0 -6.21,-1.92 -9.08,-5.65 a 0.5,0.5 0 1 1 0.79,-0.6 c 2.67,3.46 5.46,5.23 8.29,5.25 v 0 c 3.91,0 6.62,-3.38 6.65,-3.41 a 0.5,0.5 0 0 1 0.79,0.61 c -0.14,0.17 -3.07,3.8 -7.44,3.8 z"
       fill="#231f20"
       id="path62" />
    <path
       d="m 166.8,138.74 c -3.55,3.41 -29.84,30 -31.81,25.1 -1.97,-4.9 -3.37,-27.39 -3.37,-27.39 l -18,2.67 c 0,0 -10.38,50.64 7.67,56.22 18.05,5.58 45.51,-21 45.51,-21 z"
       fill="#0e8162"
       id="path64" />
    <path
       d="m 152,204.33 a 0.47,0.47 0 0 1 -0.25,-0.07 0.49,0.49 0 0 1 -0.18,-0.68 c 0.11,-0.2 11.63,-20.76 15.37,-53.42 a 0.52,0.52 0 0 1 0.56,-0.44 0.5,0.5 0 0 1 0.44,0.55 c -3.77,32.88 -15.39,53.6 -15.51,53.81 a 0.5,0.5 0 0 1 -0.43,0.25 z"
       fill="#231f20"
       id="path66" />
    <path
       d="m 257.1,164.35 c -13.45,0 -38.47,-5.63 -38.72,-5.69 a 0.5,0.5 0 0 1 -0.38,-0.6 0.48,0.48 0 0 1 0.6,-0.37 c 0.25,0.05 25.16,5.66 38.49,5.66 h 1 a 0.51,0.51 0 0 1 0.51,0.49 0.5,0.5 0 0 1 -0.49,0.51 z"
       fill="#231f20"
       id="path68" />
    <path
       d="m 121.09,112.85 c 0,0 3.16,3.37 1.61,9.28 -1.55,5.91 -4.16,7 -8.59,4.37"
       fill="#ffffff"
       id="path70" />
    <path
       d="m 118,128.38 a 8.35,8.35 0 0 1 -4.16,-1.44 0.51363898,0.51363898 0 1 1 0.53,-0.88 c 2,1.21 3.54,1.56 4.7,1.09 1.34,-0.54 2.36,-2.22 3.12,-5.15 1.45,-5.54 -1.37,-8.66 -1.49,-8.79 a 0.52,0.52 0 0 1 0,-0.73 0.5,0.5 0 0 1 0.72,0 c 0.14,0.15 3.34,3.65 1.74,9.76 -0.87,3.31 -2,5.17 -3.73,5.85 a 3.91,3.91 0 0 1 -1.43,0.29 z"
       fill="#231f20"
       id="path72" />
    <path
       d="m 269.53,103.27 c 0,0 -5.77,-9.71 -4.36,-10.7 1.41,-0.99 4.69,2.79 6.5,5.35 0,0 5.55,1 4.62,7.18"
       fill="#ffffff"
       id="path74" />
    <path
       d="m 276.29,105.62 h -0.08 a 0.52,0.52 0 0 1 -0.43,-0.59 c 0.85,-5.62 -4,-6.56 -4.2,-6.59 a 0.53,0.53 0 0 1 -0.33,-0.21 c -2.38,-3.37 -5,-5.76 -5.78,-5.23 -0.37,0.67 1.69,5.27 4.51,10 a 0.52,0.52 0 0 1 -0.18,0.7 0.51,0.51 0 0 1 -0.71,-0.18 c -2.74,-4.62 -5.7,-10.34 -4.21,-11.38 2,-1.42 5.81,3.5 7.1,5.31 1.07,0.28 5.71,1.84 4.82,7.72 a 0.52,0.52 0 0 1 -0.51,0.45 z"
       fill="#231f20"
       id="path76" />
    <path
       d="M 92.62,251.68 A 0.5,0.5 0 0 1 92.3,250.8 l 49,-40.93 a 0.50062461,0.50062461 0 0 1 0.64,0.77 l -49,40.93 a 0.5,0.5 0 0 1 -0.32,0.11 z"
       fill="#e6e7e8"
       id="path78" />
    <path
       d="m 318.05,234.36 a 0.49,0.49 0 0 1 -0.3,-0.1 l -75.08,-56.9 a 0.5,0.5 0 1 1 0.6,-0.79 l 75.08,56.89 a 0.5,0.5 0 0 1 0.1,0.7 0.51,0.51 0 0 1 -0.4,0.2 z"
       fill="#e6e7e8"
       id="path80" />
    <path
       d="m 159.75,108.44 a 0.5,0.5 0 0 1 -0.37,-0.17 L 122.75,67.32 a 0.51,0.51 0 0 1 0,-0.71 0.5,0.5 0 0 1 0.71,0 l 36.62,40.95 a 0.5,0.5 0 0 1 0,0.71 0.51,0.51 0 0 1 -0.33,0.17 z"
       fill="#e6e7e8"
       id="path82" />
    <path
       d="m 284.83,139.39 a 0.50803543,0.50803543 0 0 1 -0.18,-1 l 38.66,-15.08 a 0.5004498,0.5004498 0 0 1 0.37,0.93 L 285,139.35 a 0.39,0.39 0 0 1 -0.17,0.04 z"
       fill="#e6e7e8"
       id="path84" />
    <path
       d="m 224.52,104.94 a 0.44,0.44 0 0 1 -0.22,0 0.5,0.5 0 0 1 -0.23,-0.67 l 13.79,-27.88 a 0.50089919,0.50089919 0 0 1 0.9,0.44 L 225,104.67 a 0.51,0.51 0 0 1 -0.48,0.27 z"
       fill="#e6e7e8"
       id="path86" />
    <path
       d="M 318.05,172.65 H 318 l -45.14,-5.88 a 0.50358713,0.50358713 0 1 1 0.12,-1 l 45.15,5.88 a 0.5,0.5 0 0 1 0.43,0.56 0.51,0.51 0 0 1 -0.51,0.44 z"
       fill="#e6e7e8"
       id="path88" />
    <path
       d="m 234.31,121.63 a 0.48,0.48 0 0 1 -0.39,-0.19 0.49,0.49 0 0 1 0.07,-0.7 l 6.73,-5.45 a 0.5,0.5 0 0 1 0.7,0.08 0.5,0.5 0 0 1 -0.07,0.7 l -6.73,5.45 a 0.51,0.51 0 0 1 -0.31,0.11 z"
       fill="#e6e7e8"
       id="path90" />
    <path
       d="m 277.49,251.68 a 0.49,0.49 0 0 1 -0.43,-0.24 l -25.89,-43.8 a 0.5,0.5 0 0 1 0.18,-0.68 0.51,0.51 0 0 1 0.69,0.17 l 25.88,43.8 a 0.49,0.49 0 0 1 -0.18,0.68 0.45,0.45 0 0 1 -0.25,0.07 z"
       fill="#e6e7e8"
       id="path92" />
    <path
       d="m 135.41,254.17 a 0.46,0.46 0 0 1 -0.23,-0.06 0.5,0.5 0 0 1 -0.21,-0.67 l 10.51,-19.82 a 0.5,0.5 0 0 1 0.68,-0.2 0.49,0.49 0 0 1 0.2,0.67 l -10.5,19.82 a 0.52,0.52 0 0 1 -0.45,0.26 z"
       fill="#e6e7e8"
       id="path94" />
    <path
       d="m 76.5,191.76 a 0.49,0.49 0 0 1 -0.48,-0.38 0.5,0.5 0 0 1 0.37,-0.6 l 32.23,-7.33 a 0.51195703,0.51195703 0 1 1 0.22,1 l -32.23,7.32 z"
       fill="#e6e7e8"
       id="path96" />
    <path
       d="m 179.09,73.79 a 0.49,0.49 0 0 1 -0.48,-0.36 L 171,46.85 a 0.51,0.51 0 0 1 0.35,-0.62 0.49,0.49 0 0 1 0.61,0.34 l 7.64,26.59 a 0.49,0.49 0 0 1 -0.34,0.61 0.34,0.34 0 0 1 -0.17,0.02 z"
       fill="#e6e7e8"
       id="path98" />
    <path
       d="M 213.11,65.23 H 213 a 0.5,0.5 0 0 1 -0.38,-0.6 L 218,41 a 0.51195703,0.51195703 0 1 1 1,0.22 l -5.4,23.62 a 0.51,0.51 0 0 1 -0.49,0.39 z"
       fill="#e6e7e8"
       id="path100" />
    <path
       d="M 105.94,142.57 H 86.05 a 0.5,0.5 0 0 1 -0.5,-0.5 0.5,0.5 0 0 1 0.5,-0.5 h 19.89 a 0.5,0.5 0 0 1 0.5,0.5 0.5,0.5 0 0 1 -0.5,0.5 z"
       fill="#e6e7e8"
       id="path102" />
  </g>
</svg>
