<?xml version="1.0" encoding="UTF-8" standalone="no"?>
<svg
   xmlns:dc="http://purl.org/dc/elements/1.1/"
   xmlns:cc="http://creativecommons.org/ns#"
   xmlns:rdf="http://www.w3.org/1999/02/22-rdf-syntax-ns#"
   xmlns:svg="http://www.w3.org/2000/svg"
   xmlns="http://www.w3.org/2000/svg"
   viewBox="0 0 302.95059 196.80867"
   version="1.1"
   id="svg73"
   width="302.95059"
   height="196.80867">
  <metadata
     id="metadata79">
    <rdf:RDF>
      <cc:Work
         rdf:about="">
        <dc:format>image/svg+xml</dc:format>
        <dc:type
           rdf:resource="http://purl.org/dc/dcmitype/StillImage" />
        <dc:title></dc:title>
      </cc:Work>
    </rdf:RDF>
  </metadata>
  <defs
     id="defs77" />
  <g
     id="_397_dream_flatline"
     data-name="#397_dream_flatline"
     transform="translate(-48.559544,-51.881331)">
    <path
       d="m 243.86,98.27 c 6.5,-4.26 16,-15.43 21.07,-18.12 19.68,-10.47 43.59,-10.14 61,4.69 10.64,9.06 13.69,26.21 13.06,39.58 a 5.16,5.16 0 0 0 0.22,2.35 5.29,5.29 0 0 0 1.59,1.78 c 8.82,7.34 11.5,19.36 9.59,30.52 -1.27,7.42 -4.44,14.4 -8.1,21 -4.85,8.74 -12.18,18.92 -22.41,21.58 a 5.28,5.28 0 0 0 -1.65,0.61 5.46,5.46 0 0 0 -1.74,2.83 c -6.32,16 -24.39,13.54 -36.95,7.24 -1.25,19.89 -21.83,26.51 -37.86,30.16 a 80.51,80.51 0 0 1 -28.78,1.24 c -2.55,-0.34 -26.52,-8.19 -26.26,-8.45 a 45.64,45.64 0 0 1 -35.18,12.81 39.38,39.38 0 0 1 -17,-5.14 c -1.18,-0.68 -14,-11 -12.6,-11.76 -20.58,11.57 -49.88,3.14 -61.18,-17.59 -5.82,-10.69 -6,-26.14 4,-33.06 -13.23,-7 -18.43,-24.56 -14.32,-38.95 5,-17.54 22.28,-32.73 39.52,-38 17.24,-5.27 37.93,-12 56,-6.86 C 152.65,91 159.64,85 168,82 c 8.36,-3 18.65,-2.59 25.26,3.4 6.12,-4.83 14.94,-5 22.27,-2.29 6.89,2.49 18.15,16.94 24.28,16.8 a 8.37,8.37 0 0 0 4.05,-1.64 z"
       fill="#ffffff"
       id="path2" />
    <path
       d="m 154.73,248.69 c -1.1,0 -2.2,0 -3.29,-0.11 a 40,40 0 0 1 -17.24,-5.21 c -0.6,-0.34 -11.16,-8.5 -12.75,-11.4 -9.83,5.27 -22.1,6.38 -33.81,3 -12,-3.44 -22,-11.15 -27.41,-21.15 -7.42,-13.63 -4,-27.38 3.55,-33.24 -13.51,-7.68 -17.69,-25.79 -13.87,-39.15 4.76,-16.62 21.52,-32.73 39.85,-38.3 l 2.23,-0.68 c 17.08,-5.2 36.42,-11.1 53.75,-6.25 6.39,-5.46 13.63,-11.6 22.13,-14.67 9.36,-3.37 19.29,-2.1 25.45,3.23 6.77,-5.1 16,-4.46 22.42,-2.12 3.16,1.14 7,4.57 11.14,8.21 4.76,4.21 9.68,8.56 12.88,8.56 h 0.08 a 8,8 0 0 0 3.75,-1.57 v 0 c 3.14,-2.06 7,-5.76 10.75,-9.35 4,-3.8 7.71,-7.38 10.35,-8.79 21.25,-11.31 44.84,-9.49 61.57,4.74 13.5,11.5 13.54,33.52 13.24,40 a 4.8,4.8 0 0 0 0.18,2.12 4.65,4.65 0 0 0 1.4,1.55 c 8.31,6.92 12,18.5 9.81,31 -1.1,6.4 -3.69,13.12 -8.15,21.15 -7,12.52 -14.39,19.66 -22.72,21.83 h -0.16 a 4.49,4.49 0 0 0 -1.35,0.49 4.65,4.65 0 0 0 -1.44,2.33 l -0.11,0.27 c -2.13,5.42 -5.71,9.12 -10.64,11 -6.95,2.66 -16.75,1.48 -26.33,-3.17 -1.69,19.13 -21.25,26 -38.19,29.88 a 80.68,80.68 0 0 1 -29,1.25 c -1.37,-0.19 -8.19,-2.31 -14.12,-4.23 -8.15,-2.64 -11,-3.66 -12,-4.12 a 46,46 0 0 1 -31.95,12.9 z m -32.46,-17.24 c 0.61,1.67 11,10.22 12.43,11.06 a 39,39 0 0 0 16.81,5.07 45.07,45.07 0 0 0 34.79,-12.66 v 0 a 0.5,0.5 0 0 1 0.7,0 c 1.56,0.79 23.52,8 26,8.32 a 79.87,79.87 0 0 0 28.6,-1.23 c 32,-7.3 36.84,-19.71 37.47,-29.71 a 0.48,0.48 0 0 1 0.25,-0.4 0.49,0.49 0 0 1 0.47,0 c 9.54,4.79 19.34,6.08 26.2,3.46 4.65,-1.78 8,-5.29 10.06,-10.44 l 0.1,-0.26 a 5.47,5.47 0 0 1 1.83,-2.8 5.3,5.3 0 0 1 1.65,-0.63 h 0.16 c 8.05,-2.1 15.28,-9.08 22.1,-21.34 4.4,-7.93 7,-14.55 8,-20.84 2.08,-12.17 -1.44,-23.4 -9.42,-30 a 5.56,5.56 0 0 1 -1.73,-2 5.41,5.41 0 0 1 -0.27,-2.47 c 0.95,-20.08 -6,-33.44 -12.88,-39.27 -16.4,-14 -39.57,-15.74 -60.45,-4.63 -2.52,1.34 -6.22,4.88 -10.13,8.63 -3.91,3.75 -7.68,7.36 -10.89,9.46 v 0 a 8.71,8.71 0 0 1 -4.28,1.74 h -0.1 c -3.58,0 -8.42,-4.28 -13.54,-8.81 -3.85,-3.42 -7.84,-6.94 -10.82,-8 -6.29,-2.27 -15.31,-2.89 -21.79,2.23 a 0.49,0.49 0 0 1 -0.64,0 c -5.87,-5.31 -15.58,-6.6 -24.76,-3.29 -8.42,3 -15.64,9.2 -22,14.65 a 0.48,0.48 0 0 1 -0.46,0.1 c -17.12,-4.9 -36.42,1 -53.44,6.18 l -2.24,0.68 c -18,5.47 -34.51,21.29 -39.17,37.62 -3.78,13.2 0.45,31.16 14.06,38.37 a 0.48,0.48 0 0 1 0.27,0.41 0.5,0.5 0 0 1 -0.22,0.44 c -7.69,5.32 -11.24,18.89 -3.88,32.41 5.32,9.77 15.09,17.3 26.81,20.67 11.72,3.37 24,2.17 33.68,-3.28 a 0.51,0.51 0 0 1 0.69,0.19 0.51,0.51 0 0 1 -0.02,0.37 z"
       fill="#231f20"
       id="path4" />
    <path
       d="m 137.3,172.17 a 0.66,0.66 0 0 1 -0.65,-0.54 c -1,-5.68 -4.53,-11.3 -10.94,-17.18 A 83.1,83.1 0 0 0 98.2,137.77 c -8.07,-2.93 -14.68,-3.58 -20.21,-2 a 0.66140003,0.66140003 0 1 1 -0.37,-1.27 c 5.82,-1.66 12.69,-1 21,2 a 84.27,84.27 0 0 1 27.95,17 c 6.63,6.08 10.34,11.94 11.35,17.92 a 0.66,0.66 0 0 1 -0.54,0.76 z"
       fill="#d1d3d4"
       id="path6" />
    <path
       d="m 162,111.74 -3.1,-11.37 c 0,0 -37,6 -42.58,10.08 -5.58,4.08 -6.8,7.23 -12.47,6 h -0.09 c -2.71,-0.9 -4.94,-3.89 -6.73,-6 a 123.54,123.54 0 0 1 -9,-12 A 83.53,83.53 0 0 1 81.6,87 c -0.54,-1.17 -4.63,-10.47 0,-8.85 -1.33,-2 1.71,-1.93 2.7,-0.91 a 1.61,1.61 0 1 1 2.7,-1.68 1.17,1.17 0 0 1 0.55,-1.66 1.93,1.93 0 0 1 1.89,0.35 6.35,6.35 0 0 1 1.26,1.56 59.52,59.52 0 0 0 7.16,9 c 2,2 4.41,5.44 7.22,6.21 3.22,0.89 8.89,-1.51 12.07,-2.16 5.12,-1 10.23,-2.14 15.36,-3.2 8.47,-1.75 16.95,-3.51 25.47,-5 3.12,-0.54 6.25,-1.08 9.4,-1.42 1.29,-0.14 3.43,-0.65 4.66,0 4,2 13.38,26 13.38,26"
       fill="#ffffff"
       id="path8" />
    <path
       d="m 106.07,117.21 a 11.18,11.18 0 0 1 -2.37,-0.27 h -0.14 c -2.48,-0.82 -4.56,-3.28 -6.23,-5.25 l -0.72,-0.85 a 121.91,121.91 0 0 1 -9,-12 83.33,83.33 0 0 1 -6.41,-11.6 C 80.4,85.5 77.91,79.71 79.48,77.99 a 1.61,1.61 0 0 1 1.34,-0.5 1.15,1.15 0 0 1 0.4,-1 2.63,2.63 0 0 1 2.21,-0.23 c 0,-0.1 0,-0.21 0,-0.32 a 2.14,2.14 0 0 1 0.94,-1.54 2.09,2.09 0 0 1 1.8,-0.16 l 0.32,0.14 a 1.73,1.73 0 0 1 0.86,-0.85 2.38,2.38 0 0 1 2.39,0.42 6.07,6.07 0 0 1 1.26,1.53 59.32,59.32 0 0 0 7.15,9 c 0.41,0.44 0.85,0.93 1.31,1.45 1.69,1.91 3.6,4.06 5.67,4.63 2.07,0.57 5.73,-0.45 8.6,-1.3 1.19,-0.35 2.31,-0.68 3.24,-0.86 q 4.53,-0.93 9,-1.89 l 6.3,-1.32 c 8.29,-1.71 16.87,-3.49 25.49,-5 2.9,-0.51 6.19,-1.08 9.44,-1.43 0.25,0 0.54,-0.07 0.84,-0.11 1.32,-0.19 3,-0.43 4.1,0.13 4,2 12.65,23.75 13.62,26.22 a 0.5,0.5 0 1 1 -0.93,0.36 c -2.6,-6.61 -10,-24.11 -13.14,-25.68 -0.85,-0.43 -2.32,-0.21 -3.5,0 l -0.89,0.12 c -3.21,0.34 -6.48,0.91 -9.37,1.42 -8.61,1.5 -17.17,3.28 -25.45,5 l -6.3,1.32 -9.06,1.89 c -0.88,0.17 -2,0.5 -3.16,0.84 -3.14,0.93 -6.7,2 -9.15,1.3 -2.45,-0.7 -4.37,-2.92 -6.15,-4.92 -0.45,-0.51 -0.88,-1 -1.29,-1.42 A 60.43,60.43 0 0 1 90.15,76.11 5.53,5.53 0 0 0 89,74.68 a 1.46,1.46 0 0 0 -1.38,-0.3 0.75,0.75 0 0 0 -0.4,0.51 0.48,0.48 0 0 0 0,0.22 1.23,1.23 0 0 1 0.14,0.31 0.5,0.5 0 0 1 -0.86,0.47 1.27,1.27 0 0 1 -0.2,-0.36 1.22,1.22 0 0 0 -0.57,-0.41 1.12,1.12 0 0 0 -0.94,0.07 1.2,1.2 0 0 0 -0.21,1.72 0.5,0.5 0 0 1 -0.72,0.69 v 0 a 2.14,2.14 0 0 0 -2.12,-0.39 c -0.16,0.13 0.13,0.58 0.19,0.67 a 0.48,0.48 0 0 1 0,0.58 0.5,0.5 0 0 1 -0.56,0.17 c -0.43,-0.15 -1,-0.27 -1.26,0 -0.81,0.89 0.37,4.87 1.88,8.16 a 82.93,82.93 0 0 0 6.34,11.46 121.43,121.43 0 0 0 9,11.91 l 0.73,0.86 c 1.58,1.88 3.56,4.21 5.78,5 4,0.88 5.64,-0.51 8.56,-3 1,-0.87 2.13,-1.84 3.55,-2.88 5.59,-4.12 41.27,-9.93 42.79,-10.17 a 0.48,0.48 0 0 1 0.56,0.36 l 3.1,11.37 a 0.51662365,0.51662365 0 0 1 -1,0.26 l -3,-10.94 c -4.21,0.7 -36.85,6.19 -41.92,9.92 -1.38,1 -2.5,2 -3.49,2.83 -2.27,1.96 -3.99,3.44 -6.92,3.44 z"
       fill="#231f20"
       id="path10" />
    <path
       d="m 258.07,101.31 10.83,3.53 19.19,-9.91 -7.18,-4.93 5.7,-9.15 c 0,0 39.1,11.26 42.49,19 8.92,20.28 -30.91,12.84 -53.08,29 0,0 -22.07,26.7 -47.68,42.5 0,0 -22.81,-21.74 -32.8,-41.86 l 21.12,-25.53 c 0,0 -11.08,-36.46 6.76,-51.45 5.21,-4.39 36.71,15.65 36.71,15.65 L 252.49,75 240.37,72.49 v 12.09 c 0,0 13.37,8.19 17.7,16.73 z"
       fill="#0e8162"
       id="path12" />
    <path
       d="m 288.36,77.22 v -0.15 a 2.78,2.78 0 0 0 -2.3,-2.15 14.87,14.87 0 0 0 -3.75,-11.34 c -1.36,-1.5 -3,-2.71 -4.38,-4.21 a 7.41,7.41 0 0 1 -2.23,-5.47 8.44,8.44 0 0 0 -2.79,6.1 11.53,11.53 0 0 1 -2.52,-7.54 c -4.26,3.1 -8.84,6.67 -9.93,11.83 a 10.68,10.68 0 0 1 0,-6.38 c -3.23,1.62 -4.53,5.47 -5.52,8.94 a 46.57,46.57 0 0 0 -1.7,7.46 c -0.31,2.69 0.49,4.42 1.4,6.91 1.56,4.27 3.73,8.43 7.09,11.5 4.25,3.87 11.49,6.18 16.45,2.49 a 26.78,26.78 0 0 0 9.93,-14.79 7,7 0 0 0 0.25,-3.2 z"
       fill="#ffffff"
       id="path14" />
    <path
       d="m 272.33,97.54 a 17,17 0 0 1 -10.91,-4.47 c -3,-2.72 -5.34,-6.54 -7.22,-11.7 l -0.28,-0.77 c -0.8,-2.15 -1.44,-3.85 -1.15,-6.36 a 46.61,46.61 0 0 1 1.68,-7.41 v -0.14 c 1,-3.59 2.41,-7.56 5.77,-9.24 a 0.5,0.5 0 0 1 0.55,0.06 0.51,0.51 0 0 1 0.15,0.54 10.37,10.37 0 0 0 -0.41,4.18 C 262.19,58.06 266,55 270.09,52 a 0.51,0.51 0 0 1 0.53,0 0.5,0.5 0 0 1 0.27,0.46 11.14,11.14 0 0 0 1.65,6.15 9,9 0 0 1 2.8,-5.07 0.48,0.48 0 0 1 0.56,-0.07 0.5,0.5 0 0 1 0.27,0.49 c -0.22,2.16 1.22,4.11 2.1,5.08 0.67,0.74 1.43,1.42 2.17,2.09 a 29.38,29.38 0 0 1 2.21,2.12 15.49,15.49 0 0 1 3.92,11.27 3.35,3.35 0 0 1 2.24,2.48 v 0.16 a 7.47,7.47 0 0 1 -0.23,3.41 27.1,27.1 0 0 1 -10.11,15.07 10.16,10.16 0 0 1 -6.14,1.9 z M 259.7,59 c -2.29,1.74 -3.36,4.89 -4.25,8 v 0.13 a 46.12,46.12 0 0 0 -1.65,7.25 c -0.26,2.28 0.31,3.8 1.09,5.91 l 0.29,0.77 c 1.83,5 4.1,8.69 7,11.3 4.16,3.79 11.12,6 15.81,2.46 a 26.06,26.06 0 0 0 9.74,-14.52 6.49,6.49 0 0 0 0.22,-2.94 v 0 -0.12 a 2.28,2.28 0 0 0 -1.95,-1.82 0.53,0.53 0 0 1 -0.35,-0.17 0.47,0.47 0 0 1 -0.11,-0.37 14.49,14.49 0 0 0 -3.63,-11 29.6,29.6 0 0 0 -2.14,-2 28.43,28.43 0 0 1 -2.24,-2.16 8.76,8.76 0 0 1 -2.34,-4.57 8,8 0 0 0 -1.78,4.85 0.5,0.5 0 0 1 -0.34,0.46 0.48,0.48 0 0 1 -0.55,-0.16 12,12 0 0 1 -2.62,-6.87 c -4.23,3.12 -8,6.38 -8.95,11 a 0.5,0.5 0 0 1 -0.47,0.4 0.51,0.51 0 0 1 -0.5,-0.35 A 11.3,11.3 0 0 1 259.7,59 Z"
       fill="#231f20"
       id="path16" />
    <path
       d="m 247.53,93.51 -6.2,6.73 c 0,0 -2.16,5.84 5.68,9.2 7.84,3.36 12.46,-1.44 12.46,-1.44 l 13.21,-13.48 c 0,0 -3,-6.31 6.49,-15.91 a 41.09,41.09 0 0 1 -19,-10.51 c 0,0 -11.68,9.33 -14.73,15.07 -3.05,5.74 2.09,10.34 2.09,10.34 z"
       fill="#ffffff"
       id="path18" />
    <path
       d="m 252.39,111.13 a 14.14,14.14 0 0 1 -5.58,-1.23 c -8.18,-3.51 -6,-9.77 -5.95,-9.83 a 1,1 0 0 1 0.1,-0.17 l 5.88,-6.38 c -1.16,-1.24 -4.58,-5.52 -1.88,-10.6 3.06,-5.76 14.38,-14.84 14.86,-15.22 a 0.5,0.5 0 0 1 0.66,0 40.89,40.89 0 0 0 18.78,10.38 0.52,0.52 0 0 1 0.39,0.34 0.51,0.51 0 0 1 -0.13,0.5 c -9,9.2 -6.42,15.29 -6.39,15.35 a 0.49,0.49 0 0 1 -0.1,0.56 l -13.2,13.48 a 10.92,10.92 0 0 1 -7.44,2.82 z M 241.77,100.5 c -0.23,0.73 -1.42,5.54 5.43,8.48 7.41,3.18 11.73,-1.15 11.91,-1.33 l 13,-13.26 c -0.48,-1.43 -1.71,-7.22 6.1,-15.5 a 42.63,42.63 0 0 1 -18.1,-10.14 c -1.93,1.59 -11.58,9.6 -14.26,14.64 -2.83,5.33 2,9.7 2,9.74 a 0.53,0.53 0 0 1 0.17,0.35 0.47,0.47 0 0 1 -0.13,0.36 z"
       fill="#231f20"
       id="path20" />
    <path
       d="m 265.69,96.47 a 6.6,6.6 0 0 0 4,3.12 7.11,7.11 0 0 0 6.69,-1.89 6,6 0 0 0 1.62,-2.15 3.13,3.13 0 0 0 -0.06,-2.61 5,5 0 0 0 -2.58,-1.94 c -1.47,-0.67 -2.12,-0.17 -3.58,-0.07 0.14,0 0.43,-0.14 0.57,-0.14"
       fill="#ffffff"
       id="path22" />
    <path
       d="m 271.34,100.32 a 7,7 0 0 1 -1.8,-0.24 7.11,7.11 0 0 1 -4.29,-3.36 0.5,0.5 0 0 1 0.19,-0.68 0.49,0.49 0 0 1 0.68,0.19 6.22,6.22 0 0 0 3.69,2.88 6.57,6.57 0 0 0 6.19,-1.78 5.44,5.44 0 0 0 1.47,-2 2.64,2.64 0 0 0 0,-2.19 4.57,4.57 0 0 0 -2.31,-1.71 3.09,3.09 0 0 0 -2.17,-0.18 9.78,9.78 0 0 1 -1.1,0.15 h -0.11 a 0.5,0.5 0 0 1 0,-1 h 0.06 0.11 a 1.73,1.73 0 0 1 0.45,-0.1 h 0.18 0.26 a 4,4 0 0 1 2.77,0.26 5.53,5.53 0 0 1 2.77,2.13 3.65,3.65 0 0 1 0.09,3 6.46,6.46 0 0 1 -1.72,2.33 8,8 0 0 1 -5.41,2.3 z"
       fill="#231f20"
       id="path24" />
    <path
       d="m 242.27,99.22 a 11.91,11.91 0 0 0 8.07,1.58 c 5,-0.63 6.58,-3.16 6.58,-3.16 0,0 -5.7,0 -9.39,-4.13 z"
       fill="#231f20"
       id="path26" />
    <path
       d="m 248.54,101.41 a 11.72,11.72 0 0 1 -6.54,-1.79 0.49,0.49 0 0 1 -0.2,-0.35 0.48,0.48 0 0 1 0.13,-0.39 l 5.25,-5.71 a 0.52,0.52 0 0 1 0.37,-0.16 0.46,0.46 0 0 1 0.37,0.16 c 3.5,3.91 9,4 9,4 a 0.5,0.5 0 0 1 0.43,0.25 0.49,0.49 0 0 1 0,0.51 c -0.07,0.11 -1.73,2.74 -6.94,3.39 a 13.48,13.48 0 0 1 -1.87,0.09 z m -5.49,-2.3 a 12.17,12.17 0 0 0 7.23,1.2 10,10 0 0 0 5.58,-2.25 14,14 0 0 1 -8.33,-3.82 z"
       fill="#231f20"
       id="path28" />
    <path
       d="m 262.11,79.14 c 0,0 -7.45,2.32 -7.35,3.85 0.1,1.53 2.82,2.76 2.82,2.76"
       fill="#ffffff"
       id="path30" />
    <path
       d="m 257.57,86.25 a 0.53,0.53 0 0 1 -0.2,0 c -0.31,-0.14 -3,-1.41 -3.11,-3.18 -0.11,-1.77 4.74,-3.5 7.74,-4.41 a 0.52060061,0.52060061 0 0 1 0.29,1 c -3.68,1.14 -6.95,2.71 -7,3.34 0.06,1 1.89,2 2.52,2.33 a 0.51090606,0.51090606 0 0 1 -0.21,1 z"
       fill="#231f20"
       id="path32" />
    <path
       d="m 258,92 h -0.13 c -0.08,0 -7.59,-2.17 -8.45,-10.07 a 0.5,0.5 0 0 1 0.44,-0.55 0.5,0.5 0 0 1 0.55,0.44 c 0.79,7.22 7.44,9.13 7.72,9.21 a 0.5042073,0.5042073 0 0 1 -0.13,1 z"
       fill="#231f20"
       id="path34" />
    <path
       d="m 269.4,83.12 h -0.11 c -1.81,-0.39 -3,-1 -3.58,-2 a 1.93,1.93 0 0 1 -0.3,-1.44 0.5,0.5 0 0 1 0.6,-0.37 0.51,0.51 0 0 1 0.37,0.6 c -0.1,0.51 0.43,1.61 3.12,2.19 a 0.52,0.52 0 0 1 0.39,0.6 0.5,0.5 0 0 1 -0.49,0.42 z"
       fill="#231f20"
       id="path36" />
    <path
       d="m 260.16,76.53 h -0.1 a 3.48,3.48 0 0 1 -2.45,-3.1 0.52,0.52 0 0 1 0.42,-0.58 0.51,0.51 0 0 1 0.57,0.42 c 0.31,1.95 1.61,2.27 1.67,2.28 a 0.52,0.52 0 0 1 0.38,0.6 0.51,0.51 0 0 1 -0.49,0.38 z"
       fill="#231f20"
       id="path38" />
    <path
       d="m 201,133.72 c 0,0 -12,-33.84 -13.13,-34.66 C 186.74,98.24 157,110.61 157,110.61 l 10.92,41.08 c 0,0 33.22,-0.77 33.08,-17.97 z"
       fill="#231f20"
       id="path40" />
    <path
       d="m 167.91,152.18 a 0.49,0.49 0 0 1 -0.48,-0.37 l -10.92,-41.08 a 0.48,0.48 0 0 1 0.29,-0.58 c 13.69,-5.69 30.25,-12.29 31.34,-11.49 1.09,0.8 10.46,26.92 13.3,34.89 a 0.88,0.88 0 0 1 0,0.16 c 0.08,7.29 -5.74,12.79 -16.82,15.92 a 76.82,76.82 0 0 1 -16.72,2.55 z m -10.33,-41.28 10.71,40.27 c 3.7,-0.16 32.24,-1.92 32.18,-17.36 -4.62,-13 -11.73,-32.46 -12.9,-34.29 -2.07,0.08 -19.19,6.9 -29.99,11.38 z"
       fill="#231f20"
       id="path42" />
    <path
       d="m 170.55,126.55 c 0,0 -34.21,-22.34 -40.09,-18.7 -5.88,3.64 -23.89,70.69 -25.46,71.08 -6.56,1.64 -17.91,3.9 -18.3,3.84 -2,-0.28 -11.48,-1.31 -8.67,3.27 2.31,3.74 6.57,3.41 10.39,4.31 5,1.21 6.13,1.58 11.21,2.65 q 6.93,1.45 13.9,2.81 a 6.19,6.19 0 0 0 6.69,-3.28 l 22.83,-54.53 14.63,10.84 z"
       fill="#ffffff"
       id="path44" />
    <path
       d="m 114.72,196.42 a 6.72,6.72 0 0 1 -1.26,-0.12 c -4.51,-0.88 -9.19,-1.82 -13.9,-2.81 -3.35,-0.7 -4.93,-1.1 -7.11,-1.64 -1.12,-0.28 -2.39,-0.6 -4.12,-1 -0.86,-0.2 -1.77,-0.35 -2.64,-0.49 -3,-0.48 -6.16,-1 -8,-4 a 2.51,2.51 0 0 1 -0.29,-2.79 c 1.42,-2.17 7.59,-1.49 9.44,-1.23 0.69,0 11.54,-2.2 18,-3.8 0.71,-1.09 3.43,-10 6.32,-19.35 8,-25.95 15.43,-49.44 19.09,-51.7 2.64,-1.64 10.09,1 22.76,8 9.2,5.08 17.79,10.67 17.88,10.73 a 0.51,0.51 0 0 1 0.16,0.67 L 158.12,149 a 0.55,0.55 0 0 1 -0.34,0.24 0.45,0.45 0 0 1 -0.39,-0.09 l -14.12,-10.46 -22.56,54 a 6.74,6.74 0 0 1 -5.99,3.73 z M 82.65,183 c -2.14,0 -4,0.31 -4.46,1.09 -0.26,0.39 -0.16,1 0.3,1.72 1.65,2.68 4.42,3.12 7.35,3.59 0.9,0.14 1.82,0.28 2.72,0.5 1.74,0.41 3,0.73 4.13,1 2.17,0.54 3.75,0.93 7.07,1.63 4.71,1 9.39,1.93 13.89,2.81 a 5.7,5.7 0 0 0 6.15,-3 l 22.79,-54.55 a 0.53,0.53 0 0 1 0.33,-0.29 0.51,0.51 0 0 1 0.43,0.09 l 14.18,10.5 12.35,-21.34 c -9.74,-6.33 -34.62,-21.24 -39.16,-18.43 -3.64,2.25 -12.69,31.68 -18.67,51.15 -5.59,18.19 -6.21,19.81 -6.9,20 -6,1.5 -17.85,4 -18.49,3.86 A 28.82,28.82 0 0 0 82.65,183 Z"
       fill="#231f20"
       id="path46" />
    <path
       d="m 228.34,171.28 c 0,0 -20.8,17.62 -39.46,14.22 C 170.22,182.1 147,150.8 147,150.8 l 20.57,-29.16 33.43,12.08 c 0,0 25,29.38 27.34,37.56 z"
       fill="#231f20"
       id="path48" />
    <path
       d="m 193.78,186.43 a 27.77,27.77 0 0 1 -5,-0.44 c -7.85,-1.43 -17.33,-7.74 -28.2,-18.76 a 172.65,172.65 0 0 1 -14,-16.13 0.5,0.5 0 0 1 0,-0.58 l 20.57,-29.17 a 0.49,0.49 0 0 1 0.57,-0.18 l 33.38,12.08 a 0.51,0.51 0 0 1 0.21,0.15 c 1,1.2 25.11,29.55 27.46,37.75 a 0.49,0.49 0 0 1 -0.15,0.52 c -0.15,0.16 -17.62,14.76 -34.84,14.76 z m -46.14,-35.64 c 2.39,3.15 24,31.07 41.33,34.22 17.12,3.12 36.37,-11.93 38.79,-13.9 -2.73,-8.15 -25.5,-35.1 -27.09,-37 l -32.89,-11.9 z"
       fill="#231f20"
       id="path50" />
    <path
       d="m 203.81,143.11 a 0.43,0.43 0 0 1 -0.27,-0.08 c -15.63,-9.94 -36,-20.84 -36.18,-21 a 0.5,0.5 0 0 1 -0.2,-0.68 0.49,0.49 0 0 1 0.67,-0.2 c 0.2,0.11 20.58,11 36.24,21 a 0.51,0.51 0 0 1 0.16,0.69 0.51,0.51 0 0 1 -0.42,0.27 z"
       fill="#ffffff"
       id="path52" />
    <path
       d="m 265.4,108.74 a 0.52,0.52 0 0 1 -0.36,-0.16 0.49,0.49 0 0 1 0,-0.7 c 10,-9.62 31,-16.47 31.19,-16.53 a 0.49,0.49 0 0 1 0.63,0.32 0.5,0.5 0 0 1 -0.32,0.63 c -0.21,0.06 -21,6.84 -30.81,16.3 a 0.52,0.52 0 0 1 -0.33,0.14 z"
       fill="#231f20"
       id="path54" />
    <path
       d="m 240.37,72.92 a 0.55,0.55 0 0 1 -0.5,-0.5 14.36,14.36 0 0 0 -2.2,-8 0.5,0.5 0 0 1 0.8,-0.6 15,15 0 0 1 2.4,8.65 0.5,0.5 0 0 1 -0.5,0.45 z"
       fill="#231f20"
       id="path56" />
    <path
       d="m 293.93,171.86 c -3.63,-4.58 -8.58,-8 -13.75,-10.72 -6,-3.19 -12.61,-5.68 -19.37,-5.16 -6.76,0.52 -13.56,4.71 -15.46,11.21 a 37.69,37.69 0 0 0 -62,18.24 c -16.24,-6.46 -36.85,1.95 -43.93,17.93"
       fill="#ffffff"
       id="path58" />
    <path
       d="m 139.4,203.86 a 0.52,0.52 0 0 1 -0.21,0 0.5,0.5 0 0 1 -0.25,-0.66 c 7.13,-16.1 27.6,-24.6 44.05,-18.39 a 38.2,38.2 0 0 1 62.13,-18.47 c 2.1,-5.85 8.41,-10.26 15.66,-10.82 5.87,-0.46 12.12,1.21 19.64,5.22 6.27,3.35 10.69,6.8 13.91,10.85 a 0.51,0.51 0 0 1 -0.09,0.71 0.5,0.5 0 0 1 -0.7,-0.09 c -3.12,-3.94 -7.44,-7.31 -13.59,-10.59 -7.35,-3.92 -13.42,-5.53 -19.1,-5.1 -7.14,0.55 -13.32,5 -15,10.85 a 0.49,0.49 0 0 1 -0.34,0.34 0.5,0.5 0 0 1 -0.48,-0.11 37.19,37.19 0 0 0 -61.2,18 0.49,0.49 0 0 1 -0.26,0.32 0.53,0.53 0 0 1 -0.41,0 c -16.06,-6.39 -36.29,1.86 -43.29,17.66 a 0.49,0.49 0 0 1 -0.47,0.28 z"
       fill="#d1d3d4"
       id="path60" />
    <path
       d="m 280,185.86 a 0.66,0.66 0 0 1 -0.48,-1.1 c 6.37,-7.12 12.61,-12 19.07,-14.91 8.1,-3.65 16.83,-4.14 24,-1.34 a 0.66,0.66 0 0 1 0.38,0.85 0.67,0.67 0 0 1 -0.86,0.37 c -6.79,-2.67 -15.15,-2.19 -22.93,1.32 -6.29,2.83 -12.39,7.61 -18.64,14.59 a 0.63,0.63 0 0 1 -0.54,0.22 z"
       fill="#d1d3d4"
       id="path62" />
    <path
       d="m 124.18,211.48 c 1.67,-1.7 4,-2.53 6.26,-3.3 a 27.75,27.75 0 0 1 8,-1.91 c 5.66,-0.22 10.84,3 15.61,6"
       fill="#ffffff"
       id="path64" />
    <path
       d="m 154,212.8 a 0.5,0.5 0 0 1 -0.27,-0.08 c -5.26,-3.38 -10,-6.16 -15.32,-5.95 a 27.36,27.36 0 0 0 -7.85,1.88 c -2.08,0.72 -4.44,1.53 -6.06,3.18 a 0.50209561,0.50209561 0 0 1 -0.72,-0.7 c 1.79,-1.82 4.27,-2.67 6.45,-3.43 a 28.54,28.54 0 0 1 8.14,-1.93 c 5.57,-0.19 10.5,2.64 15.9,6.11 a 0.5,0.5 0 0 1 0.15,0.69 0.51,0.51 0 0 1 -0.42,0.23 z"
       fill="#d1d3d4"
       id="path66" />
    <path
       d="m 276.37,142.42 a 56,56 0 0 1 12.16,-21.32 c 3.33,-3.71 7.35,-7.23 12.5,-9.11 8.62,-3.13 18.73,-0.93 25.82,3.57"
       fill="#ffffff"
       id="path68" />
    <path
       d="m 276.37,142.92 h -0.15 a 0.5,0.5 0 0 1 -0.33,-0.62 56.84,56.84 0 0 1 12.27,-21.51 c 4.2,-4.68 8.23,-7.62 12.7,-9.25 7.94,-2.89 18.24,-1.47 26.25,3.61 a 0.49,0.49 0 0 1 0.16,0.69 0.5,0.5 0 0 1 -0.69,0.16 c -7.76,-4.93 -17.72,-6.31 -25.37,-3.52 -4.31,1.57 -8.22,4.42 -12.3,9 a 55.66,55.66 0 0 0 -12.06,21.12 0.51,0.51 0 0 1 -0.48,0.32 z"
       fill="#d1d3d4"
       id="path70" />
  </g>
</svg>
