<svg width="512" height="512" viewBox="0 0 512 512" fill="none" xmlns="http://www.w3.org/2000/svg">
<rect x="0.5" y="0.5" width="511" height="511" fill="white"/>
<rect x="8" y="8" width="496" height="496" fill="white" stroke="black" stroke-width="16"/>
<path d="M103.333 175.992L82.341 172.664V156.792H223.653L226.213 203.128H205.733L196.261 174.968L140.965 172.152V244.6L179.109 243.832L183.973 221.304H200.357V286.328H184.229L179.109 263.288L140.965 262.264V329.08L180.133 331.64V347H83.621V331.64L103.333 329.08V175.992ZM262.839 175.992L242.615 172.664V156.792H300.727L377.015 271.992L391.351 301.176V175.992L369.335 172.664V156.792H432.823V172.664L413.111 175.992V347H382.135L302.519 225.912L284.599 192.12V329.08L310.455 331.64V347H242.615V331.64L262.839 329.08V175.992Z" fill="black"/>
<path d="M416 416H464V464H416V416Z" fill="black"/>
<rect x="0.5" y="0.5" width="511" height="511" stroke="black"/>
</svg>
