<?xml version="1.0" encoding="UTF-8" standalone="no"?>
<svg
   xmlns:dc="http://purl.org/dc/elements/1.1/"
   xmlns:cc="http://creativecommons.org/ns#"
   xmlns:rdf="http://www.w3.org/1999/02/22-rdf-syntax-ns#"
   xmlns:svg="http://www.w3.org/2000/svg"
   xmlns="http://www.w3.org/2000/svg"
   viewBox="0 0 254.71001 232.49001"
   version="1.1"
   id="svg103"
   width="254.71001"
   height="232.49001">
  <metadata
     id="metadata109">
    <rdf:RDF>
      <cc:Work
         rdf:about="">
        <dc:format>image/svg+xml</dc:format>
        <dc:type
           rdf:resource="http://purl.org/dc/dcmitype/StillImage" />
        <dc:title></dc:title>
      </cc:Work>
    </rdf:RDF>
  </metadata>
  <defs
     id="defs107" />
  <g
     id="_247_landing_page_flatline"
     data-name="#247_landing_page_flatline"
     transform="translate(-72.65,-33.76)">
    <path
       d="m 191.07,40.93 v 191.42 a 6.18,6.18 0 0 1 -6.18,6.17 H 79.82 a 6.17,6.17 0 0 1 -6.17,-6.17 V 40.93 a 6.17,6.17 0 0 1 6.17,-6.17 h 105.07 a 6.18,6.18 0 0 1 6.18,6.17 z"
       fill="#ffffff"
       id="path2" />
    <path
       d="m 184.89,34.76 a 6.18,6.18 0 0 1 6.18,6.17 v 191.42 a 6.18,6.18 0 0 1 -6.18,6.17 H 79.82 a 6.17,6.17 0 0 1 -6.17,-6.17 V 40.93 a 6.17,6.17 0 0 1 6.17,-6.17 h 105.07 m 0,-1 H 79.82 a 7.17,7.17 0 0 0 -7.17,7.17 v 191.42 a 7.18,7.18 0 0 0 7.17,7.17 h 105.07 a 7.19,7.19 0 0 0 7.18,-7.17 V 40.93 a 7.18,7.18 0 0 0 -7.18,-7.17 z"
       fill="#231f20"
       id="path4" />
    <path
       d="m 191.06,40.92 v 71 a 92.07,92.07 0 0 1 -9.21,6.57 l -0.26,0.16 c -1.38,0.86 -2.79,1.69 -4.22,2.47 -1.13,0.64 -2.28,1.24 -3.44,1.81 h -0.05 l -0.45,0.23 v 0 l -0.48,0.23 c -0.76,0.37 -1.52,0.72 -2.29,1.07 h -0.12 l -0.33,0.15 -0.44,0.19 -0.15,0.07 -0.17,0.07 -0.11,0.05 -0.2,0.08 -0.2,0.08 c -0.09,0 -0.19,0.08 -0.28,0.12 l -0.22,0.09 c -0.4,0.18 -0.79,0.34 -1.19,0.5 l -0.94,0.37 -0.44,0.17 -0.44,0.17 a 92.34,92.34 0 0 1 -11.26,3.46 l -1.68,0.38 -0.5,0.11 c -0.49,0.11 -1,0.21 -1.48,0.3 a 93.36,93.36 0 0 1 -18.13,1.77 92.91,92.91 0 0 1 -12.89,-0.89 c -0.6,-0.08 -1.2,-0.16 -1.79,-0.27 l -0.83,-0.13 -0.5,-0.08 -0.51,-0.09 h -0.08 l -1,-0.19 -0.56,-0.11 a 5.41,5.41 0 0 1 -0.58,-0.12 l -0.83,-0.17 -0.49,-0.11 h -0.08 c -0.15,0 -0.3,-0.06 -0.44,-0.09 h -0.15 a 2.22,2.22 0 0 1 -0.37,-0.09 c -0.54,-0.12 -1.08,-0.25 -1.61,-0.4 l -0.58,-0.14 -0.59,-0.15 -0.87,-0.24 -0.59,-0.16 -0.59,-0.16 A 91.56,91.56 0 0 1 92.17,123.57 93,93 0 0 1 73.64,112 V 41 a 6.17,6.17 0 0 1 6.17,-6.17 h 105.07 a 6.18,6.18 0 0 1 6.18,6.09 z"
       fill="#0e8162"
       id="path6" />
    <path
       d="m 91.73,43.9 h -7 a 0.5,0.5 0 0 1 -0.5,-0.5 0.51,0.51 0 0 1 0.5,-0.5 h 7 a 0.5,0.5 0 0 1 0.5,0.5 0.5,0.5 0 0 1 -0.5,0.5 z"
       fill="#231f20"
       id="path8" />
    <path
       d="m 91.73,46.67 h -7 a 0.5,0.5 0 0 1 0,-1 h 7 a 0.5,0.5 0 0 1 0,1 z"
       fill="#231f20"
       id="path10" />
    <path
       d="m 91.73,49.44 h -7 a 0.5,0.5 0 0 1 0,-1 h 7 a 0.5,0.5 0 1 1 0,1 z"
       fill="#231f20"
       id="path12" />
    <path
       d="M 161.73,152.1 H 103 a 4.5,4.5 0 1 1 0,-9 h 58.75 a 4.5,4.5 0 0 1 0,9 z"
       fill="#d1d3d4"
       id="path14" />
    <path
       d="M 171.58,167.87 H 93.12 a 4.5,4.5 0 0 1 0,-9 h 78.46 a 4.5,4.5 0 1 1 0,9 z"
       fill="#d1d3d4"
       id="path16" />
    <path
       d="M 166,176.72 H 98.73 a 0.5,0.5 0 0 1 -0.5,-0.5 0.5,0.5 0 0 1 0.5,-0.5 H 166 a 0.5,0.5 0 0 1 0.5,0.5 0.5,0.5 0 0 1 -0.5,0.5 z"
       fill="#d1d3d4"
       id="path18" />
    <path
       d="M 166,183.14 H 98.73 a 0.5,0.5 0 0 1 -0.5,-0.5 0.5,0.5 0 0 1 0.5,-0.5 H 166 a 0.5,0.5 0 0 1 0.5,0.5 0.5,0.5 0 0 1 -0.5,0.5 z"
       fill="#d1d3d4"
       id="path20" />
    <path
       d="m 159.54,189.55 h -54.38 a 0.5,0.5 0 0 1 -0.5,-0.5 0.5,0.5 0 0 1 0.5,-0.5 h 54.38 a 0.5,0.5 0 0 1 0.5,0.5 0.5,0.5 0 0 1 -0.5,0.5 z"
       fill="#d1d3d4"
       id="path22" />
    <rect
       x="98.730003"
       y="201.45"
       width="67.239998"
       height="14.58"
       rx="5.9499998"
       fill="#0e8162"
       id="rect24" />
    <circle
       cx="127.43"
       cy="228.06"
       r="2.1099999"
       fill="#231f20"
       id="circle26" />
    <path
       d="m 127.43,230.67 a 2.61,2.61 0 1 1 2.61,-2.61 2.61,2.61 0 0 1 -2.61,2.61 z m 0,-4.22 a 1.61,1.61 0 1 0 1.61,1.61 1.61,1.61 0 0 0 -1.61,-1.61 z"
       fill="#231f20"
       id="path28" />
    <path
       d="m 137.27,230.67 a 2.61,2.61 0 1 1 2.61,-2.61 2.61,2.61 0 0 1 -2.61,2.61 z m 0,-4.22 a 1.61,1.61 0 1 0 1.61,1.61 1.61,1.61 0 0 0 -1.61,-1.61 z"
       fill="#d1d3d4"
       id="path30" />
    <path
       d="m 145.12,46.67 h -25.53 a 0.5,0.5 0 0 1 0,-1 h 25.53 a 0.5,0.5 0 0 1 0,1 z"
       fill="#ffffff"
       id="path32" />
    <path
       d="m 95.86,70.74 c 0,0 1.44,-2.33 3.73,-5.52 0,0 6.33,5.35 6.29,5.07 -0.04,-0.28 -10.02,0.45 -10.02,0.45 z"
       fill="#231f20"
       id="path34" />
    <path
       d="m 106,69.77 c -0.08,0 -0.23,-0.16 -0.43,-0.29 -0.2,-0.13 -0.41,-0.33 -0.68,-0.53 l -0.63,-0.53 c -1.1,-0.9 -2.55,-2.08 -3.93,-3.26 l -0.4,-0.33 v 0 a 0.5,0.5 0 0 0 -0.41,-0.11 0.25,0.25 0 0 0 -0.16,0 0.54,0.54 0 0 0 -0.21,0.16 c -1.68,2.35 -2.92,4.25 -3.44,5.08 v 0 a 1.64,1.64 0 0 0 -0.17,0.26 c 0,0 -0.07,0.1 -0.12,0.16 a 1.17,1.17 0 0 0 0,0.11 0.62,0.62 0 0 0 0.07,0.44 0.57,0.57 0 0 0 0.42,0.26 h 0.08 0.3 L 99.49,71 h 0.54 a 5,5 0 0 1 0.54,0 c 2.57,-0.16 4.67,-0.26 5.11,-0.2 a 0.41,0.41 0 0 0 0.46,0 0.53,0.53 0 0 0 0.27,-0.56 C 106.39,70 106.37,69.87 106,69.77 Z m -6.22,0.14 h -0.55 l -2.09,0.16 h -0.28 c 0.14,-0.21 0.29,-0.46 0.48,-0.73 0.19,-0.27 0.31,-0.47 0.49,-0.74 l 0.89,-1.32 0.52,-0.74 c 0.14,-0.19 0.28,-0.38 0.41,-0.58 l 0.2,0.15 2.73,2.31 0.63,0.5 0.65,0.54 0.24,0.19 c -0.87,0 -2.09,0.08 -3.79,0.19 z"
       fill="#231f20"
       id="path36" />
    <path
       d="m 168.91,125.28 c -0.09,0 -0.19,0.08 -0.28,0.12 l -0.22,0.09 c -0.4,0.18 -0.79,0.34 -1.19,0.5 l -0.94,0.37 -0.44,0.17 -0.44,0.17 a 92.34,92.34 0 0 1 -11.26,3.46 l -1.68,0.38 -0.5,0.11 c -0.49,0.11 -1,0.21 -1.48,0.3 a 93.36,93.36 0 0 1 -18.13,1.77 92.91,92.91 0 0 1 -12.89,-0.89 c -0.6,-0.08 -1.2,-0.16 -1.79,-0.27 l -0.83,-0.13 -0.5,-0.08 -0.51,-0.09 h -0.08 l -1,-0.19 -0.56,-0.11 a 5.41,5.41 0 0 1 -0.58,-0.12 l -0.83,-0.17 -0.49,-0.11 h -0.08 c -0.15,0 -0.3,-0.06 -0.44,-0.09 h -0.15 a 2.22,2.22 0 0 1 -0.37,-0.09 c -0.54,-0.12 -1.08,-0.25 -1.61,-0.4 l -0.58,-0.14 -0.59,-0.15 -0.87,-0.24 -0.59,-0.16 -11.48,-56.2 a 3.54,3.54 0 0 1 0.11,-1.87 5,5 0 0 1 0.21,-0.48 v 0 a 0.21,0.21 0 0 1 0,-0.06 L 96,70.5 v 0 a 3.17,3.17 0 0 1 1.37,-1.1 3.68,3.68 0 0 1 1.47,-0.32 h 1.34 L 103.24,69 h 1.68 l 15.64,-0.34 v 0 l 17,-0.35 v 0 h 1.2 l 3.12,-0.06 v 0 L 153.42,68 a 4.82,4.82 0 0 1 4.62,3.74 l 0.33,1.59 z"
       fill="#231f20"
       id="path38" />
    <path
       d="m 158.94,73.23 -0.35,-1.68 a 5.35,5.35 0 0 0 -5.17,-4.16 l -11.66,0.24 -2.89,0.08 v 0 h -1.42 v 0 l -16.68,0.34 v 0 l -16.44,0.34 h -0.82 v 0 h -0.84 -2.55 -1.3 a 4.35,4.35 0 0 0 -1,0.11 A 3.85,3.85 0 0 0 97,69 3.65,3.65 0 0 0 95.71,70 v 0 a 1.64,1.64 0 0 0 -0.17,0.26 c 0,0 -0.07,0.1 -0.12,0.16 a 1.17,1.17 0 0 0 0,0.11 A 3.91,3.91 0 0 0 95,73.2 l 11.42,55.87 0.59,0.16 0.59,0.16 L 96.05,73 a 3,3 0 0 1 0.15,-1.73 2.49,2.49 0 0 1 0.33,-0.57 v 0 a 2.1,2.1 0 0 1 0.61,-0.54 3,3 0 0 1 1.67,-0.5 h 0.36 0.54 0.55 l 3.6,-0.08 h 0.86 0.85 l 47.85,-1 a 1.41,1.41 0 0 1 0.29,0 4.27,4.27 0 0 1 3.8,3.3 l 0.3,1.49 10.57,52.23 0.22,-0.09 c 0.09,0 0.19,-0.07 0.28,-0.12 l 0.2,-0.08 0.2,-0.08 0.11,-0.05 z"
       fill="#231f20"
       id="path40" />
    <path
       d="m 173.43,123.23 v 0 l -0.48,0.23 c -0.76,0.37 -1.52,0.72 -2.29,1.07 h -0.12 l -0.33,0.15 -0.44,0.19 -0.15,0.07 -0.17,0.07 -0.11,0.05 -0.2,0.08 -0.2,0.08 c -0.09,0 -0.19,0.08 -0.28,0.12 l -0.22,0.09 c -0.4,0.18 -0.79,0.34 -1.19,0.5 l -0.94,0.37 -0.44,0.17 -0.44,0.17 a 92.34,92.34 0 0 1 -11.26,3.46 l -1.68,0.38 -0.5,0.11 c -0.49,0.11 -1,0.21 -1.48,0.3 a 93.36,93.36 0 0 1 -18.13,1.77 92.91,92.91 0 0 1 -12.89,-0.89 c -0.6,-0.08 -1.2,-0.16 -1.79,-0.27 l -0.83,-0.13 -0.5,-0.08 -0.51,-0.09 h -0.08 l -1,-0.19 -0.56,-0.11 a 5.41,5.41 0 0 1 -0.58,-0.12 l -0.83,-0.17 -0.49,-0.11 h -0.08 L 100,71 99.89,70.46 v 0 L 99.78,69.91 99.71,69.6 99.6,69.06 99.49,68.52 99.31,67.61 a 3,3 0 0 1 -0.07,-1 3.5,3.5 0 0 1 0.37,-1.3 2.39,2.39 0 0 1 0.31,-0.45 3.44,3.44 0 0 1 2.68,-1.25 l 54.6,-1.14 a 4.8,4.8 0 0 1 4.63,3.73 z"
       fill="#ffffff"
       id="path42" />
    <path
       d="m 162.41,66.06 a 5.37,5.37 0 0 0 -5.18,-4.16 l -54.6,1.15 a 4,4 0 0 0 -3.11,1.45 c -0.06,0.08 -0.11,0.16 -0.16,0.24 a 3.71,3.71 0 0 0 -0.61,2.59 1.85,1.85 0 0 0 0.06,0.39 l 0.17,0.81 0.1,0.53 0.12,0.56 0.06,0.33 0.11,0.54 v 0 l 0.12,0.54 12.12,59.37 h 0.15 c 0.14,0 0.29,0.07 0.44,0.09 h 0.08 l 0.49,0.11 -12.2,-59.6 -0.11,-0.55 -0.12,-0.54 v -0.3 l -0.11,-0.54 -0.12,-0.54 -0.2,-1 a 2.88,2.88 0 0 1 0,-1.34 2.25,2.25 0 0 1 0.19,-0.53 1.93,1.93 0 0 1 0.29,-0.47 3,3 0 0 1 2.3,-1 L 157.26,63 c 0.09,0 0.18,0 0.28,0 a 4.3,4.3 0 0 1 3.81,3.29 l 11.57,57.2 0.48,-0.23 v 0 l 0.45,-0.23 h 0.05 z"
       fill="#231f20"
       id="path44" />
    <path
       d="m 170.51,124.59 -0.33,0.15 -0.44,0.19 -0.15,0.07 -0.17,0.07 -0.11,0.05 -0.2,0.08 -0.2,0.08 c -0.09,0 -0.19,0.08 -0.28,0.12 l -0.22,0.09 c -0.4,0.18 -0.79,0.34 -1.19,0.5 l -0.94,0.37 -0.44,0.17 -0.44,0.17 a 92.34,92.34 0 0 1 -11.26,3.46 l -1.68,0.38 -0.5,0.11 c -0.49,0.11 -1,0.21 -1.48,0.3 a 93.36,93.36 0 0 1 -18.13,1.77 92.91,92.91 0 0 1 -12.89,-0.89 c -0.6,-0.08 -1.2,-0.16 -1.79,-0.27 l -0.83,-0.13 -0.5,-0.08 -0.51,-0.09 h -0.08 L 104.2,74.71 157.84,73.26 h 0.55 0.55 1.16 z"
       fill="#0e8162"
       id="path46" />
    <path
       d="m 121.05,69 a 0.54,0.54 0 0 1 0,-1.08 l 16,-0.38 a 0.54,0.54 0 0 1 0.55,0.53 0.54,0.54 0 0 1 -0.53,0.55 l -16,0.38 z"
       fill="#e6e7e8"
       id="path48" />
    <path
       d="m 139.24,68.6 a 0.55,0.55 0 0 1 -0.51,-0.53 0.54,0.54 0 0 1 0.53,-0.55 h 2.11 a 0.54,0.54 0 0 1 0.55,0.52 0.54,0.54 0 0 1 -0.52,0.56 h -2.12 z"
       fill="#e6e7e8"
       id="path50" />
    <path
       d="m 121.76,115 a 0.58,0.58 0 0 1 -0.3,-0.11 0.55,0.55 0 0 1 -0.09,-0.76 l 27.36,-35.24 a 0.54,0.54 0 0 1 0.76,-0.1 0.55,0.55 0 0 1 0.09,0.76 l -27.36,35.24 a 0.54,0.54 0 0 1 -0.46,0.21 z"
       fill="#ffffff"
       id="path52" />
    <path
       d="m 157.26,126.2 -3.12,4 -1.68,0.38 4,-5 a 0.53,0.53 0 0 1 0.75,-0.09 0.54,0.54 0 0 1 0.05,0.71 z"
       fill="#ffffff"
       id="path54" />
    <path
       d="m 137.43,126.4 a 0.61,0.61 0 0 1 -0.29,-0.11 0.54,0.54 0 0 1 -0.11,-0.76 l 6.45,-8.45 a 0.54,0.54 0 1 1 0.85,0.66 l -6.44,8.44 a 0.54,0.54 0 0 1 -0.46,0.22 z"
       fill="#ffffff"
       id="path56" />
    <path
       d="M 92.13,123.64 A 93,93 0 0 1 73.64,112 V 84.12 a 9.11,9.11 0 0 1 2.78,3.41 c 2.39,4.55 2.93,9.71 2.82,14.91 0.46,-4.31 1.5,-8.48 4,-11.93 a 3.26,3.26 0 0 1 1.61,-1.33 c 1.83,-0.52 3.09,1.81 3.46,3.68 a 44.93,44.93 0 0 1 -2.58,25.67 c 2.25,-4.77 4.76,-9.83 9.32,-12.48 0.65,-0.38 1.51,-0.7 2.12,-0.25 a 2.06,2.06 0 0 1 0.61,1.62 24.49,24.49 0 0 1 -5.65,16.22 z"
       fill="#231f20"
       id="path58" />
    <path
       d="M 191.06,90.29 V 112 a 92.07,92.07 0 0 1 -9.21,6.57 l -0.26,0.16 c -1.28,-1.89 -2.5,-3.83 -3.67,-5.78 a 10.79,10.79 0 0 1 -1.49,-3.21 4,4 0 0 1 0.63,-3.37 0.82,0.82 0 0 1 0.51,-0.35 1,1 0 0 1 0.79,0.34 23.17,23.17 0 0 1 4.94,5.87 101.89,101.89 0 0 1 -5.53,-11.78 13.82,13.82 0 0 1 -1.17,-4.57 c 0,-1.76 1.35,-6.15 3.84,-4.37 a 5.24,5.24 0 0 1 1.56,2.32 c 0.65,1.56 1.3,3.13 2,4.68 a 29.74,29.74 0 0 1 -1.27,-16 c 0.32,-1.63 1.89,-5.87 4.39,-4.27 a 4.44,4.44 0 0 1 1.59,2.76 c 0,0.17 0.09,0.33 0.14,0.49 0.74,2.93 1.47,5.87 2.21,8.8 z"
       fill="#231f20"
       id="path60" />
    <rect
       x="208.94"
       y="61.490002"
       width="117.42"
       height="203.75999"
       rx="6.1700001"
       fill="#ffffff"
       id="rect62" />
    <path
       d="m 320.19,61.49 a 6.17,6.17 0 0 1 6.17,6.17 v 191.42 a 6.18,6.18 0 0 1 -6.17,6.17 H 215.11 a 6.17,6.17 0 0 1 -6.17,-6.17 V 67.66 a 6.17,6.17 0 0 1 6.17,-6.17 h 105.08 m 0,-1 H 215.11 a 7.18,7.18 0 0 0 -7.17,7.17 v 191.42 a 7.18,7.18 0 0 0 7.17,7.17 h 105.08 a 7.18,7.18 0 0 0 7.17,-7.17 V 67.66 a 7.18,7.18 0 0 0 -7.17,-7.17 z"
       fill="#231f20"
       id="path64" />
    <path
       d="m 227,70.63 h -7 a 0.5,0.5 0 0 1 -0.5,-0.5 0.5,0.5 0 0 1 0.5,-0.5 h 7 a 0.5,0.5 0 0 1 0.5,0.5 0.5,0.5 0 0 1 -0.5,0.5 z"
       fill="#231f20"
       id="path66" />
    <path
       d="m 227,73.4 h -7 a 0.5,0.5 0 0 1 -0.5,-0.5 0.5,0.5 0 0 1 0.5,-0.5 h 7 a 0.5,0.5 0 0 1 0.5,0.5 0.5,0.5 0 0 1 -0.5,0.5 z"
       fill="#231f20"
       id="path68" />
    <path
       d="m 227,76.17 h -7 a 0.5,0.5 0 0 1 0,-1 h 7 a 0.5,0.5 0 0 1 0,1 z"
       fill="#231f20"
       id="path70" />
    <rect
       x="234.03"
       y="228.17999"
       width="67.239998"
       height="14.58"
       rx="5.9499998"
       fill="#0e8162"
       id="rect72" />
    <path
       d="m 242.69,112.47 h -18.06 a 4.5,4.5 0 0 1 0,-9 h 18.06 a 4.5,4.5 0 0 1 0,9 z"
       fill="#d1d3d4"
       id="path74" />
    <path
       d="m 311.17,114.47 h -54.84 a 3.68,3.68 0 0 1 -3.68,-3.67 v -5.29 a 3.68,3.68 0 0 1 3.68,-3.68 h 54.84 a 3.68,3.68 0 0 1 3.68,3.68 v 5.29 a 3.68,3.68 0 0 1 -3.68,3.67 z m -54.84,-11.64 a 2.68,2.68 0 0 0 -2.68,2.68 v 5.29 a 2.68,2.68 0 0 0 2.68,2.67 h 54.84 a 2.68,2.68 0 0 0 2.68,-2.67 v -5.29 a 2.68,2.68 0 0 0 -2.68,-2.68 z"
       fill="#d1d3d4"
       id="path76" />
    <path
       d="m 237.06,136.1 h -12.43 a 4.5,4.5 0 0 1 0,-9 h 12.43 a 4.5,4.5 0 0 1 0,9 z"
       fill="#d1d3d4"
       id="path78" />
    <path
       d="m 299.91,138.11 h -43.58 a 3.68,3.68 0 0 1 -3.68,-3.67 v -5.29 a 3.68,3.68 0 0 1 3.68,-3.68 h 43.58 a 3.68,3.68 0 0 1 3.67,3.68 v 5.29 a 3.68,3.68 0 0 1 -3.67,3.67 z m -43.58,-11.64 a 2.68,2.68 0 0 0 -2.68,2.68 v 5.29 a 2.68,2.68 0 0 0 2.68,2.67 h 43.58 a 2.68,2.68 0 0 0 2.67,-2.67 v -5.29 a 2.68,2.68 0 0 0 -2.67,-2.68 z"
       fill="#d1d3d4"
       id="path80" />
    <path
       d="m 235.65,159.74 h -11 a 4.5,4.5 0 0 1 0,-9 h 11 a 4.5,4.5 0 0 1 0,9 z"
       fill="#d1d3d4"
       id="path82" />
    <path
       d="m 306.17,161.75 h -49.84 a 3.68,3.68 0 0 1 -3.68,-3.68 v -5.29 a 3.68,3.68 0 0 1 3.68,-3.67 h 49.84 a 3.68,3.68 0 0 1 3.68,3.67 v 5.29 a 3.68,3.68 0 0 1 -3.68,3.68 z m -49.84,-11.64 a 2.68,2.68 0 0 0 -2.68,2.67 v 5.29 a 2.68,2.68 0 0 0 2.68,2.68 h 49.84 a 2.68,2.68 0 0 0 2.68,-2.68 v -5.29 a 2.68,2.68 0 0 0 -2.68,-2.67 z"
       fill="#d1d3d4"
       id="path84" />
    <path
       d="m 242.69,183.38 h -18.06 a 4.5,4.5 0 0 1 0,-9 h 18.06 a 4.5,4.5 0 0 1 0,9 z"
       fill="#d1d3d4"
       id="path86" />
    <path
       d="m 311.17,185.39 h -54.84 a 3.68,3.68 0 0 1 -3.68,-3.68 v -5.29 a 3.68,3.68 0 0 1 3.68,-3.67 h 54.84 a 3.68,3.68 0 0 1 3.68,3.67 v 5.29 a 3.68,3.68 0 0 1 -3.68,3.68 z m -54.84,-11.64 a 2.68,2.68 0 0 0 -2.68,2.67 v 5.29 a 2.68,2.68 0 0 0 2.68,2.68 h 54.84 a 2.68,2.68 0 0 0 2.68,-2.68 v -5.29 a 2.68,2.68 0 0 0 -2.68,-2.67 z"
       fill="#d1d3d4"
       id="path88" />
    <path
       d="m 237.06,207 h -12.43 a 4.5,4.5 0 0 1 0,-9 h 12.43 a 4.5,4.5 0 0 1 0,9 z"
       fill="#d1d3d4"
       id="path90" />
    <path
       d="m 291.89,209 h -35.56 a 3.67,3.67 0 0 1 -3.68,-3.67 v -5.29 a 3.67,3.67 0 0 1 3.68,-3.67 h 35.56 a 3.67,3.67 0 0 1 3.67,3.67 v 5.29 a 3.67,3.67 0 0 1 -3.67,3.67 z m -35.56,-11.63 a 2.68,2.68 0 0 0 -2.68,2.67 v 5.29 a 2.68,2.68 0 0 0 2.68,2.67 h 35.56 a 2.67,2.67 0 0 0 2.67,-2.67 v -5.29 a 2.67,2.67 0 0 0 -2.67,-2.67 z"
       fill="#d1d3d4"
       id="path92" />
    <circle
       cx="272.57001"
       cy="254.78999"
       r="2.1099999"
       fill="#231f20"
       id="circle94" />
    <path
       d="m 272.57,257.4 a 2.61,2.61 0 1 1 2.61,-2.61 2.61,2.61 0 0 1 -2.61,2.61 z m 0,-4.22 a 1.61,1.61 0 1 0 1.61,1.61 1.61,1.61 0 0 0 -1.61,-1.61 z"
       fill="#231f20"
       id="path96" />
    <path
       d="m 262.73,257.4 a 2.61,2.61 0 1 1 2.61,-2.61 2.61,2.61 0 0 1 -2.61,2.61 z m 0,-4.22 a 1.61,1.61 0 1 0 1.61,1.61 1.61,1.61 0 0 0 -1.61,-1.61 z"
       fill="#d1d3d4"
       id="path98" />
    <path
       d="m 280.41,73.4 h -25.53 a 0.5,0.5 0 0 1 -0.5,-0.5 0.51,0.51 0 0 1 0.5,-0.5 h 25.53 a 0.5,0.5 0 0 1 0.5,0.5 0.5,0.5 0 0 1 -0.5,0.5 z"
       fill="#231f20"
       id="path100" />
  </g>
</svg>
