<?xml version="1.0" encoding="UTF-8" standalone="no"?>
<svg
   xmlns:dc="http://purl.org/dc/elements/1.1/"
   xmlns:cc="http://creativecommons.org/ns#"
   xmlns:rdf="http://www.w3.org/1999/02/22-rdf-syntax-ns#"
   xmlns:svg="http://www.w3.org/2000/svg"
   xmlns="http://www.w3.org/2000/svg"
   viewBox="0 0 298.24631 259.73892"
   version="1.1"
   id="svg127"
   width="298.24631"
   height="259.73892">
  <metadata
     id="metadata133">
    <rdf:RDF>
      <cc:Work
         rdf:about="">
        <dc:format>image/svg+xml</dc:format>
        <dc:type
           rdf:resource="http://purl.org/dc/dcmitype/StillImage" />
        <dc:title></dc:title>
      </cc:Work>
    </rdf:RDF>
  </metadata>
  <defs
     id="defs131" />
  <g
     id="_004"
     data-name="004"
     transform="translate(-52.78,-20.731084)">
    <polyline
       points="284.87 279.59 285.99 246.55 261.22 242.8 259.71 279.96"
       fill="#ffffff"
       id="polyline2" />
    <path
       d="m 259.71,280.47 v 0 a 0.5,0.5 0 0 1 -0.48,-0.51 l 1.51,-37.17 a 0.49,0.49 0 0 1 0.18,-0.37 0.46,0.46 0 0 1 0.39,-0.1 l 24.78,3.75 a 0.5,0.5 0 0 1 0.42,0.51 l -1.12,33 a 0.5,0.5 0 0 1 -0.52,0.48 0.5,0.5 0 0 1 -0.48,-0.52 l 1.09,-32.54 -23.79,-3.6 -1.48,36.6 a 0.5,0.5 0 0 1 -0.5,0.47 z"
       fill="#231f20"
       id="path4" />
    <polyline
       points="163.99 265.32 192.33 231.72 217.67 237.92 185.38 270.95"
       fill="#ffffff"
       id="polyline6" />
    <path
       d="m 185.38,271.46 a 0.5,0.5 0 0 1 -0.35,-0.15 0.49,0.49 0 0 1 0,-0.7 l 31.67,-32.41 -24.19,-5.92 -28.14,33.37 a 0.52,0.52 0 0 1 -0.71,0.06 A 0.51,0.51 0 0 1 163.6,265 L 192,231.4 a 0.49,0.49 0 0 1 0.5,-0.16 l 25.34,6.19 a 0.53,0.53 0 0 1 0.36,0.35 0.52,0.52 0 0 1 -0.12,0.49 l -32.29,33 a 0.52,0.52 0 0 1 -0.41,0.19 z"
       fill="#231f20"
       id="path8" />
    <path
       d="m 273.82,96.17 c 0,0 -38.52,10.56 -38.15,12.06 0.37,1.5 7.89,29.28 7.89,29.28 l 24,-6 z"
       fill="#0e8162"
       id="path10" />
    <path
       d="m 274.6,95.94 c 0,0 -12.23,3.28 -19.73,7.6 -7.5,4.32 -5.44,50.36 -5.44,50.36 L 305,165.1 c 0,0 10.58,-29.9 9.86,-43.55 C 314.14,107.9 305.7,88.54 274.6,95.94 Z"
       fill="#0e8162"
       id="path12" />
    <path
       d="m 246.93,131.46 a 0.43,0.43 0 0 1 -0.19,0 0.52,0.52 0 0 1 -0.28,-0.67 c 3.63,-8.93 9.1,-22.55 9.25,-23.5 a 0.5,0.5 0 0 1 0.52,-0.49 0.53,0.53 0 0 1 0.51,0.53 c 0,0.86 -6.52,17 -9.33,23.85 a 0.51,0.51 0 0 1 -0.48,0.28 z"
       fill="#231f20"
       id="path14" />
    <path
       d="m 278,90.33 -3.92,11.78 c 0,0 -0.1,7 7.67,6.39 a 15.54,15.54 0 0 0 11.48,-6.76 l 3.28,-21.12 a 6.3,6.3 0 0 1 -2.12,-4.05 10.21,10.21 0 0 1 0.1,-3.53 17.14,17.14 0 0 1 1.73,-4.46 16.48,16.48 0 0 1 -9.61,-5.15 26.58,26.58 0 0 1 -1.68,-2.29 c -0.24,-0.37 -5.17,1.94 -5.69,2.2 a 14.5,14.5 0 0 0 -6.24,5.26 18.46,18.46 0 0 0 -1.9,6.4 50.08,50.08 0 0 0 -0.88,9.3 c 0.06,5.95 7.78,6.03 7.78,6.03 z"
       fill="#ffffff"
       id="path16" />
    <path
       d="m 280.78,109 a 7.06,7.06 0 0 1 -5,-1.75 7.47,7.47 0 0 1 -2.14,-5.14 0.7,0.7 0 0 1 0,-0.14 l 3.73,-11.21 c -1.9,-0.18 -7.55,-1.15 -7.6,-6.43 a 50.49,50.49 0 0 1 0.89,-9.37 18.89,18.89 0 0 1 2,-6.58 14.78,14.78 0 0 1 6.34,-5.45 c 5.75,-2.84 6.13,-2.26 6.27,-2 0,0 1,1.56 1.64,2.24 a 15.88,15.88 0 0 0 9.36,5 0.45,0.45 0 0 1 0.31,0.66 16.73,16.73 0 0 0 -1.69,4.34 10.1,10.1 0 0 0 -0.09,3.38 5.79,5.79 0 0 0 1.94,3.75 0.43,0.43 0 0 1 0.18,0.43 l -3.28,21.12 a 0.49,0.49 0 0 1 -0.06,0.17 15.83,15.83 0 0 1 -11.84,7 C 281.43,109 281.1,109 280.78,109 Z m -6.26,-6.81 a 6.61,6.61 0 0 0 1.85,4.4 6.69,6.69 0 0 0 5.32,1.46 15.2,15.2 0 0 0 11.08,-6.46 L 296,80.81 A 6.87,6.87 0 0 1 293.92,76.64 10.65,10.65 0 0 1 294,73 a 16.24,16.24 0 0 1 1.5,-4 16.73,16.73 0 0 1 -9.28,-5.16 c -0.52,-0.59 -1.29,-1.73 -1.59,-2.17 a 43.34,43.34 0 0 0 -5.23,2.18 14.22,14.22 0 0 0 -6,5.08 18.4,18.4 0 0 0 -1.88,6.27 50.62,50.62 0 0 0 -0.88,9.21 c 0.06,5.42 7,5.56 7.32,5.57 a 0.44,0.44 0 0 1 0.36,0.19 0.46,0.46 0 0 1 0.07,0.41 z"
       fill="#231f20"
       id="path18" />
    <path
       d="m 292.37,78.73 a 4.4,4.4 0 0 1 1.81,-2 7.51,7.51 0 0 1 2.47,-0.78 3.06,3.06 0 0 1 1.41,0 2.51,2.51 0 0 1 0.87,0.49 3.3,3.3 0 0 1 1.31,1.89 4,4 0 0 1 -0.21,1.88 7.8,7.8 0 0 1 -0.82,1.9 5.22,5.22 0 0 1 -7.26,1.6"
       fill="#ffffff"
       id="path20" />
    <path
       d="m 294.8,84.87 a 5.67,5.67 0 0 1 -3.07,-0.9 0.4,0.4 0 0 1 -0.12,-0.55 0.39,0.39 0 0 1 0.55,-0.12 4.85,4.85 0 0 0 3.67,0.66 4.9,4.9 0 0 0 3,-2.14 7.37,7.37 0 0 0 0.78,-1.81 3.74,3.74 0 0 0 0.2,-1.68 3,3 0 0 0 -1.16,-1.66 2.42,2.42 0 0 0 -0.74,-0.42 2.87,2.87 0 0 0 -1.23,0 7.32,7.32 0 0 0 -2.34,0.74 3.93,3.93 0 0 0 -1.64,1.85 0.39,0.39 0 0 1 -0.52,0.21 0.38,0.38 0 0 1 -0.21,-0.52 4.69,4.69 0 0 1 2,-2.23 8.13,8.13 0 0 1 2.59,-0.83 3.6,3.6 0 0 1 1.6,0 3.32,3.32 0 0 1 1,0.55 3.71,3.71 0 0 1 1.45,2.14 4.27,4.27 0 0 1 -0.22,2.06 8.21,8.21 0 0 1 -0.86,2 5.65,5.65 0 0 1 -3.55,2.5 5.44,5.44 0 0 1 -1.18,0.15 z"
       fill="#231f20"
       id="path22" />
    <path
       d="m 276,96.55 a 12.44,12.44 0 0 0 8.11,-2 c 3.8,-2.65 4,-6 4,-6 A 22.11,22.11 0 0 1 278,90.33 Z"
       fill="#231f20"
       id="path24" />
    <path
       d="m 277.14,97.05 a 8.88,8.88 0 0 1 -1.22,-0.07 0.44,0.44 0 0 1 -0.36,-0.57 l 2,-6.21 a 0.46,0.46 0 0 1 0.44,-0.31 21.91,21.91 0 0 0 9.87,-1.82 0.46,0.46 0 0 1 0.44,0 0.45,0.45 0 0 1 0.2,0.39 c 0,0.15 -0.24,3.64 -4.17,6.39 a 12.71,12.71 0 0 1 -7.2,2.2 z m -0.57,-0.9 a 12,12 0 0 0 7.26,-2 8.8,8.8 0 0 0 3.66,-4.94 23.44,23.44 0 0 1 -9.19,1.59 z"
       fill="#231f20"
       id="path26" />
    <path
       d="m 283.21,70.12 c 0,0 -5,5 -4.3,6.24 0.7,1.24 3.45,1 3.45,1"
       fill="#ffffff"
       id="path28" />
    <path
       d="m 282,77.84 c -0.86,0 -2.78,-0.13 -3.46,-1.25 -0.82,-1.34 2.78,-5.19 4.37,-6.78 a 0.44,0.44 0 0 1 0.63,0 0.45,0.45 0 0 1 0,0.63 C 281,73 279,75.61 279.29,76.13 c 0.47,0.79 2.4,0.85 3,0.82 a 0.46,0.46 0 0 1 0.47,0.42 0.44,0.44 0 0 1 -0.42,0.46 z"
       fill="#231f20"
       id="path30" />
    <path
       d="m 275.54,80.29 9.73,-0.13 c 0,0 -0.44,6.6 -6.1,7 -5.66,0.4 -3.63,-6.87 -3.63,-6.87 z"
       fill="#231f20"
       id="path32" />
    <path
       d="m 285.51,70.13 a 1.74,1.74 0 0 1 1.41,-1 c 1.12,-0.18 1.69,1.13 1.69,1.13"
       fill="#ffffff"
       id="path34" />
    <path
       d="M 288.61,70.66 A 0.44,0.44 0 0 1 288.2,70.4 c 0,0 -0.44,-1 -1.21,-0.87 a 1.32,1.32 0 0 0 -1.06,0.74 0.45,0.45 0 0 1 -0.57,0.27 0.44,0.44 0 0 1 -0.27,-0.55 2.15,2.15 0 0 1 1.75,-1.33 c 1.44,-0.24 2.14,1.32 2.17,1.39 a 0.44,0.44 0 0 1 -0.23,0.58 z"
       fill="#231f20"
       id="path36" />
    <path
       d="m 276.5,69.28 a 1.74,1.74 0 0 1 1.41,-1 c 1.12,-0.19 1.69,1.13 1.69,1.13"
       fill="#ffffff"
       id="path38" />
    <path
       d="m 279.6,69.82 a 0.44,0.44 0 0 1 -0.41,-0.27 c 0,0 -0.44,-1 -1.21,-0.86 a 1.3,1.3 0 0 0 -1.06,0.74 0.45,0.45 0 0 1 -0.57,0.27 0.45,0.45 0 0 1 -0.27,-0.56 2.17,2.17 0 0 1 1.75,-1.33 c 1.44,-0.24 2.14,1.33 2.17,1.39 a 0.43,0.43 0 0 1 -0.23,0.58 0.38,0.38 0 0 1 -0.17,0.04 z"
       fill="#231f20"
       id="path40" />
    <polygon
       points="163.61,243.55 251.57,153.31 303.89,164.39 295.93,270.6 "
       fill="#231f20"
       id="polygon42" />
    <polygon
       points="159.89,42.9 246.93,86.48 91.53,112.38 "
       fill="#231f20"
       id="polygon44" />
    <path
       d="m 91.53,112.88 a 0.5,0.5 0 0 1 -0.36,-0.85 l 68.36,-69.49 a 0.5,0.5 0 0 1 0.58,-0.09 l 87,43.59 a 0.47,0.47 0 0 1 0.27,0.52 A 0.5,0.5 0 0 1 247,87 L 91.61,112.87 Z M 160,43.51 93,111.63 245.33,86.24 Z"
       fill="#231f20"
       id="path46" />
    <polygon
       points="91.73,113.3 247.05,87.4 261.28,190.73 114.69,217.1 "
       fill="#231f20"
       id="polygon48" />
    <path
       d="m 114.7,217.6 a 0.49,0.49 0 0 1 -0.49,-0.39 l -23,-103.81 a 0.51,0.51 0 0 1 0.07,-0.38 0.49,0.49 0 0 1 0.34,-0.22 L 247,86.9 a 0.52,0.52 0 0 1 0.38,0.09 0.5,0.5 0 0 1 0.2,0.34 l 14.23,103.33 a 0.49,0.49 0 0 1 -0.41,0.56 L 114.78,217.59 Z M 92.33,113.7 115.08,216.53 260.72,190.32 246.63,88 Z"
       fill="#231f20"
       id="path50" />
    <path
       d="m 127,182.75 c 0,0 -27,-83.34 -40,-108.68 l 144.73,-39.42 9,129 z"
       fill="#0e8162"
       id="path52" />
    <path
       d="m 112.35,88.65 a 0.49,0.49 0 0 1 -0.48,-0.38 0.5,0.5 0 0 1 0.35,-0.61 L 218.65,60.07 a 0.5153882,0.5153882 0 1 1 0.25,1 L 112.47,88.63 Z"
       fill="#ffffff"
       id="path54" />
    <path
       d="m 116.85,106.1 a 0.48,0.48 0 0 1 -0.48,-0.39 0.49,0.49 0 0 1 0.38,-0.59 L 219.8,82 a 0.51090606,0.51090606 0 0 1 0.21,1 L 117,106.09 Z"
       fill="#ffffff"
       id="path56" />
    <path
       d="m 125.68,122.43 a 0.49,0.49 0 0 1 -0.49,-0.4 0.5,0.5 0 0 1 0.39,-0.59 l 98.55,-19.14 a 0.49,0.49 0 0 1 0.58,0.39 0.49,0.49 0 0 1 -0.39,0.59 l -98.55,19.14 z"
       fill="#ffffff"
       id="path58" />
    <path
       d="m 130.37,143.27 a 0.50159745,0.50159745 0 0 1 -0.08,-1 l 93.48,-15.21 a 0.50635956,0.50635956 0 0 1 0.16,1 l -93.48,15.2 z"
       fill="#ffffff"
       id="path60" />
    <polygon
       points="114.69,217.1 261.28,190.73 247.05,87.4 179.65,153.45 91.73,113.3 "
       fill="#ffffff"
       id="polygon62" />
    <path
       d="m 114.7,217.6 a 0.49,0.49 0 0 1 -0.49,-0.39 l -23,-103.81 a 0.5,0.5 0 0 1 0.7,-0.56 l 87.61,40 L 246.7,87 a 0.5,0.5 0 0 1 0.85,0.29 l 14.23,103.33 a 0.49,0.49 0 0 1 -0.41,0.56 L 114.78,217.59 Z M 92.43,114.17 115.08,216.53 260.72,190.32 246.72,88.45 180,153.81 a 0.5,0.5 0 0 1 -0.56,0.09 z"
       fill="#231f20"
       id="path64" />
    <polygon
       points="179.66,153.45 261.29,190.73 114.7,217.1 "
       fill="#ffffff"
       id="polygon66" />
    <path
       d="m 114.7,217.6 a 0.5,0.5 0 0 1 -0.45,-0.27 0.49,0.49 0 0 1 0.1,-0.58 l 65,-63.66 a 0.5,0.5 0 0 1 0.56,-0.09 l 81.62,37.27 a 0.51,0.51 0 0 1 0.29,0.52 0.5,0.5 0 0 1 -0.4,0.43 L 114.79,217.6 Z m 65.06,-63.55 -63.55,62.27 143.41,-25.8 z"
       fill="#231f20"
       id="path68" />
    <polygon
       points="179.66,153.45 261.29,190.73 114.7,217.1 "
       fill="#ffffff"
       id="polygon70" />
    <path
       d="m 114.7,217.6 a 0.5,0.5 0 0 1 -0.45,-0.27 0.49,0.49 0 0 1 0.1,-0.58 l 65,-63.66 a 0.5,0.5 0 0 1 0.56,-0.09 l 81.62,37.27 a 0.51,0.51 0 0 1 0.29,0.52 0.5,0.5 0 0 1 -0.4,0.43 L 114.79,217.6 Z m 65.06,-63.55 -63.55,62.27 143.41,-25.8 z"
       fill="#231f20"
       id="path72" />
    <path
       d="m 251.09,47.7 c 0,0 -2.13,8 -8.86,8.2 0,0 7.1,2 8.59,8.66 a 12.34,12.34 0 0 1 8.24,-7.71 13.93,13.93 0 0 1 -7.97,-9.15 z"
       fill="#d1d3d4"
       id="path74" />
    <path
       d="m 57.83,108.49 c 0,0 5.37,7.68 0.61,13.62 0,0 6.89,-4.68 13.73,-1.11 a 13.92,13.92 0 0 1 -0.65,-12.72 c 0,0 -5.85,3.54 -13.69,0.21 z"
       fill="#d1d3d4"
       id="path76" />
    <path
       d="m 106,45.87 c 0,0 1.13,13.38 -9,17.31 0,0 11.89,-0.84 17.8,8.5 0,0 -0.42,-10.24 8.34,-16.21 -0.08,0 -9.86,0.18 -17.14,-9.6 z"
       fill="#d1d3d4"
       id="path78" />
    <path
       d="m 298.46,113.21 c 0,0 -77.71,39.41 -89.54,41.67 -11.83,2.26 -25.9,-1.69 -25.34,1.69 0.56,3.38 7.32,5.06 7.32,5.06 0,0 -21.39,3.38 -20.27,5.64 1.12,2.26 15.21,-0.57 15.21,-0.57 0,0 -17.46,5.07 -13.52,7.32 3.94,2.25 16.33,-2.81 16.33,-2.81 0,0 -18.58,9.57 -13.51,10.13 5.07,0.56 14.08,-4.5 14.08,-4.5 0,0 -14.08,7.32 -8.45,7.88 5.63,0.56 89.53,-29.28 117.69,-46.17"
       fill="#ffffff"
       id="path80" />
    <path
       d="m 180.94,185.23 h -0.22 c -1.05,-0.11 -1.65,-0.47 -1.76,-1.07 -0.17,-0.9 1.08,-2.16 2.82,-3.44 a 16.84,16.84 0 0 1 -6.7,1.13 c -0.77,-0.09 -1.21,-0.38 -1.3,-0.89 -0.28,-1.5 4.64,-4.67 9.21,-7.26 -3.87,1.13 -8.64,2.07 -10.92,0.77 a 1.34,1.34 0 0 1 -0.82,-1.34 c 0.19,-1.58 4.25,-3.43 8.16,-4.85 -4.1,0.51 -8.49,0.68 -9.23,-0.78 a 0.9,0.9 0 0 1 0,-0.83 c 1,-2 13.15,-4.27 18.58,-5.18 -2.15,-0.81 -5.28,-2.4 -5.69,-4.83 a 1.33,1.33 0 0 1 0.32,-1.16 c 1,-1.11 4.06,-0.93 8.72,-0.66 4.92,0.28 11,0.63 16.7,-0.44 11.62,-2.22 88.63,-41.24 89.4,-41.63 a 0.51,0.51 0 0 1 0.68,0.22 0.5,0.5 0 0 1 -0.22,0.67 c -3.18,1.61 -77.91,39.48 -89.67,41.72 -5.78,1.1 -12,0.74 -17,0.46 -3.73,-0.22 -7.25,-0.42 -7.92,0.32 a 0.35,0.35 0 0 0 -0.07,0.33 c 0.42,2.51 5.15,4.22 6.95,4.67 a 0.50062461,0.50062461 0 0 1 -0.05,1 c -9.21,1.45 -19.44,3.77 -19.9,5 0.59,1.1 8.07,0.41 14.66,-0.91 a 0.51419841,0.51419841 0 0 1 0.24,1 c -6.49,1.88 -13.58,4.73 -13.74,6.06 0,0.13 0.2,0.27 0.33,0.35 3.06,1.75 12.51,-1.46 15.89,-2.85 a 0.51,0.51 0 0 1 0.65,0.26 0.5,0.5 0 0 1 -0.23,0.65 c -6.73,3.47 -14,7.92 -14.12,9.11 a 3.51,3.51 0 0 0 0.43,0.09 c 3.78,0.42 10,-2.51 12.61,-3.83 l 1.18,-0.63 a 0.5,0.5 0 0 1 0.67,0.21 0.49,0.49 0 0 1 -0.19,0.67 c -0.08,0 -0.54,0.31 -1.26,0.68 -4.67,2.54 -8.41,5.24 -8.26,6 0,0 0.18,0.19 0.88,0.26 H 181 c 3,0 23.51,-6.52 50,-16.52 14.48,-5.46 50,-19.27 67.21,-29.59 a 0.5,0.5 0 1 1 0.52,0.85 c -27.16,16.24 -109.88,46.21 -117.79,46.21 z"
       fill="#231f20"
       id="path82" />
    <path
       d="m 284.1,146.52 c 0,0 -12,-28.15 -10.89,-28.53 1.11,-0.38 24,-15.39 25.91,-14.26 1.91,1.13 9,22.9 6.75,29.28 -2.25,6.38 -21.77,13.51 -21.77,13.51 z"
       fill="#0e8162"
       id="path84" />
    <path
       d="m 287.1,146.66 a 0.52,0.52 0 0 1 -0.49,-0.35 0.52,0.52 0 0 1 0.33,-0.65 c 0.17,-0.06 16.83,-5.68 23.41,-14.1 a 0.51,0.51 0 0 1 0.72,-0.08 0.5,0.5 0 0 1 0.09,0.72 c -6.77,8.66 -23.2,14.21 -23.89,14.44 a 0.5,0.5 0 0 1 -0.17,0.02 z"
       fill="#231f20"
       id="path86" />
    <path
       d="m 300.41,85.49 a 0.51,0.51 0 0 1 -0.13,-1 13,13 0 0 0 8.33,-7.57 20.36,20.36 0 0 0 1,-11.61 19.72,19.72 0 0 0 -4.7,-10.12 12.33,12.33 0 0 0 -10,-4 l -0.73,0.1 a 11,11 0 0 1 -1.65,0.15 10.56,10.56 0 0 1 -2,-0.29 l -0.43,-0.09 a 21.34,21.34 0 0 0 -24.9,26.05 c 0.24,1 0.82,2.59 2.05,2.74 a 0.5,0.5 0 0 1 0.45,0.57 0.51,0.51 0 0 1 -0.57,0.45 c -1.37,-0.17 -2.41,-1.41 -2.93,-3.51 A 22.38,22.38 0 0 1 290.32,50 l 0.45,0.09 a 9.19,9.19 0 0 0 1.84,0.27 11,11 0 0 0 1.48,-0.14 c 0.26,0 0.51,-0.08 0.77,-0.1 a 13.12,13.12 0 0 1 10.83,4.33 20.69,20.69 0 0 1 5,10.65 21.34,21.34 0 0 1 -1.09,12.2 14,14 0 0 1 -9,8.16 z"
       fill="#231f20"
       id="path88" />
    <path
       d="m 292.6,50.9 c 0,0 5.2,-3.86 13.65,-1.8 8.45,2.06 11.64,17.46 3.75,25.72 0,0 1.23,-22.51 -17.4,-23.92 z"
       fill="#231f20"
       id="path90" />
    <path
       d="m 322.67,99.18 h -0.05 a 19.94,19.94 0 0 1 -11,-4.15 13.14,13.14 0 0 1 -5,-10.53 0.5,0.5 0 0 1 0.54,-0.49 0.51,0.51 0 0 1 0.49,0.54 12.1,12.1 0 0 0 4.6,9.68 18.11,18.11 0 0 0 8.41,3.66 6.26,6.26 0 0 1 -1.54,-3.38 11.93,11.93 0 0 1 0.85,-5.56 54.28,54.28 0 0 1 4.39,-8.59 c 2.49,-4.25 4.84,-8.26 5.36,-12.92 a 16.59,16.59 0 0 0 -20.85,-17.87 0.53,0.53 0 0 1 -0.64,-0.36 0.51,0.51 0 0 1 0.36,-0.63 17.63,17.63 0 0 1 22.16,19 c -0.55,4.87 -3.07,9.16 -5.5,13.32 a 53.92,53.92 0 0 0 -4.25,8.39 10.55,10.55 0 0 0 -0.8,5.07 4.73,4.73 0 0 0 2.67,3.82 0.52,0.52 0 0 1 -0.19,1 z"
       fill="#231f20"
       id="path92" />
    <path
       d="m 276.78,122.17 a 0.52,0.52 0 0 1 -0.27,-1 l 20.55,-12.67 a 0.52,0.52 0 0 1 0.71,0.17 0.51,0.51 0 0 1 -0.17,0.71 l -20.55,12.67 a 0.53,0.53 0 0 1 -0.27,0.12 z"
       fill="#231f20"
       id="path94" />
    <line
       x1="84.209999"
       y1="157.39"
       x2="53.240002"
       y2="159.08"
       fill="#ffffff"
       id="line96" />
    <path
       d="m 53.24,159.54 a 0.46,0.46 0 0 1 0,-0.92 l 31,-1.69 a 0.44,0.44 0 0 1 0.49,0.44 0.46,0.46 0 0 1 -0.43,0.48 l -31,1.69 z"
       fill="#d1d3d4"
       id="path98" />
    <line
       x1="142.77"
       y1="230.60001"
       x2="127.57"
       y2="254.25"
       fill="#ffffff"
       id="line100" />
    <path
       d="m 127.57,254.71 a 0.45,0.45 0 0 1 -0.25,-0.07 0.47,0.47 0 0 1 -0.14,-0.64 l 15.21,-23.65 a 0.46,0.46 0 1 1 0.77,0.5 L 128,254.5 a 0.46,0.46 0 0 1 -0.43,0.21 z"
       fill="#d1d3d4"
       id="path102" />
    <line
       x1="93.220001"
       y1="203.00999"
       x2="70.129997"
       y2="215.96001"
       fill="#ffffff"
       id="line104" />
    <path
       d="m 70.13,216.42 a 0.46,0.46 0 0 1 -0.4,-0.24 0.45,0.45 0 0 1 0.18,-0.62 L 93,202.6 a 0.47,0.47 0 0 1 0.63,0.18 0.46,0.46 0 0 1 -0.17,0.63 l -23.09,13 a 0.46,0.46 0 0 1 -0.24,0.01 z"
       fill="#d1d3d4"
       id="path106" />
    <line
       x1="241.32001"
       y1="36.32"
       x2="246.95"
       y2="21.120001"
       fill="#ffffff"
       id="line108" />
    <path
       d="m 241.32,36.78 a 0.46,0.46 0 0 1 -0.43,-0.62 L 246.52,21 a 0.46,0.46 0 0 1 0.86,0.32 l -5.63,15.2 a 0.45,0.45 0 0 1 -0.43,0.26 z"
       fill="#d1d3d4"
       id="path110" />
    <line
       x1="326.35001"
       y1="128.11"
       x2="350.56"
       y2="124.17"
       fill="#ffffff"
       id="line112" />
    <path
       d="m 326.35,128.57 a 0.45,0.45 0 0 1 -0.45,-0.38 0.46,0.46 0 0 1 0.38,-0.53 l 24.21,-4 a 0.47,0.47 0 0 1 0.53,0.38 0.46,0.46 0 0 1 -0.38,0.53 l -24.22,3.95 z"
       fill="#d1d3d4"
       id="path114" />
    <line
       x1="310.57999"
       y1="209.2"
       x2="325.79001"
       y2="228.35001"
       fill="#ffffff"
       id="line116" />
    <path
       d="m 325.79,228.81 a 0.44,0.44 0 0 1 -0.36,-0.18 l -15.21,-19.14 a 0.47,0.47 0 0 1 0.08,-0.65 0.45,0.45 0 0 1 0.64,0.07 l 15.21,19.15 a 0.46,0.46 0 0 1 -0.08,0.65 0.48,0.48 0 0 1 -0.28,0.1 z"
       fill="#d1d3d4"
       id="path118" />
    <line
       x1="89.080002"
       y1="65.769997"
       x2="78.209999"
       y2="56.43"
       fill="#ffffff"
       id="line120" />
    <path
       d="m 89.08,66.23 a 0.45,0.45 0 0 1 -0.3,-0.11 L 77.91,56.78 a 0.47,0.47 0 0 1 0,-0.65 0.45,0.45 0 0 1 0.65,-0.05 l 10.87,9.34 a 0.45,0.45 0 0 1 0.05,0.65 0.44,0.44 0 0 1 -0.4,0.16 z"
       fill="#d1d3d4"
       id="path122" />
    <path
       d="m 280.46,182.1 a 0.5,0.5 0 0 1 -0.24,-0.06 0.49,0.49 0 0 1 -0.2,-0.67 l 10.89,-19.9 a 0.49,0.49 0 0 1 0.56,-0.24 0.48,0.48 0 0 1 0.37,0.48 v 17.64 a 0.5,0.5 0 1 1 -1,0 v -15.69 l -10,18.19 a 0.5,0.5 0 0 1 -0.38,0.25 z"
       fill="#ffffff"
       id="path124" />
  </g>
</svg>
