<?xml version="1.0" encoding="UTF-8" standalone="no"?>
<svg
   xmlns:dc="http://purl.org/dc/elements/1.1/"
   xmlns:cc="http://creativecommons.org/ns#"
   xmlns:rdf="http://www.w3.org/1999/02/22-rdf-syntax-ns#"
   xmlns:svg="http://www.w3.org/2000/svg"
   xmlns="http://www.w3.org/2000/svg"
   viewBox="0 0 220.77283 240.19122"
   version="1.1"
   id="svg225"
   width="220.77283"
   height="240.19122">
  <metadata
     id="metadata231">
    <rdf:RDF>
      <cc:Work
         rdf:about="">
        <dc:format>image/svg+xml</dc:format>
        <dc:type
           rdf:resource="http://purl.org/dc/dcmitype/StillImage" />
        <dc:title></dc:title>
      </cc:Work>
    </rdf:RDF>
  </metadata>
  <defs
     id="defs229" />
  <g
     id="_289_note_taking_flatline"
     data-name="#289_note_taking_flatline"
     transform="translate(-89.69,-29.908769)">
    <rect
       x="90.209999"
       y="46.720001"
       width="57.939999"
       height="55.02"
       fill="#ffffff"
       id="rect2" />
    <path
       d="M 148.14,102.26 H 90.21 a 0.51,0.51 0 0 1 -0.52,-0.51 v -55 a 0.51,0.51 0 0 1 0.52,-0.51 h 57.93 a 0.51,0.51 0 0 1 0.52,0.51 v 55 a 0.51,0.51 0 0 1 -0.52,0.51 z m -57.42,-1 h 56.91 v -54 H 90.72 Z"
       fill="#d1d3d4"
       id="path4" />
    <path
       d="M 136.85,56.52 H 106.5 a 0.52,0.52 0 1 1 0,-1 h 30.35 a 0.52,0.52 0 1 1 0,1 z"
       fill="#d1d3d4"
       id="path6" />
    <path
       d="M 101.12,56.52 H 100 a 0.52,0.52 0 0 1 0,-1 h 1.1 a 0.52,0.52 0 1 1 0,1 z"
       fill="#d1d3d4"
       id="path8" />
    <path
       d="M 125.36,63.42 H 106.5 a 0.52,0.52 0 1 1 0,-1 h 18.86 a 0.52,0.52 0 1 1 0,1 z"
       fill="#d1d3d4"
       id="path10" />
    <path
       d="M 101.12,63.42 H 100 a 0.52,0.52 0 0 1 0,-1 h 1.1 a 0.52,0.52 0 1 1 0,1 z"
       fill="#d1d3d4"
       id="path12" />
    <path
       d="M 139.85,70.33 H 106.5 a 0.52,0.52 0 0 1 -0.52,-0.52 0.52,0.52 0 0 1 0.52,-0.52 h 33.35 a 0.53,0.53 0 0 1 0.52,0.52 0.52,0.52 0 0 1 -0.52,0.52 z"
       fill="#d1d3d4"
       id="path14" />
    <path
       d="M 101.12,70.33 H 100 A 0.51,0.51 0 0 1 99.49,69.81 0.52,0.52 0 0 1 100,69.29 h 1.1 a 0.52,0.52 0 0 1 0.52,0.52 0.52,0.52 0 0 1 -0.5,0.52 z"
       fill="#d1d3d4"
       id="path16" />
    <path
       d="M 129.31,77.23 H 106.5 a 0.52,0.52 0 1 1 0,-1 h 22.81 a 0.52,0.52 0 0 1 0,1 z"
       fill="#d1d3d4"
       id="path18" />
    <path
       d="M 101.12,77.23 H 100 a 0.52,0.52 0 0 1 0,-1 h 1.1 a 0.52,0.52 0 1 1 0,1 z"
       fill="#d1d3d4"
       id="path20" />
    <path
       d="M 137.85,84.14 H 106.5 a 0.52,0.52 0 0 1 0,-1 h 31.35 a 0.52,0.52 0 0 1 0,1 z"
       fill="#d1d3d4"
       id="path22" />
    <path
       d="M 101.12,84.14 H 100 a 0.52,0.52 0 0 1 0,-1 h 1.1 a 0.52,0.52 0 1 1 0,1 z"
       fill="#d1d3d4"
       id="path24" />
    <path
       d="M 134.09,91 H 106.5 a 0.52,0.52 0 1 1 0,-1 h 27.59 a 0.52,0.52 0 1 1 0,1 z"
       fill="#d1d3d4"
       id="path26" />
    <path
       d="M 101.12,91 H 100 a 0.52,0.52 0 0 1 0,-1 h 1.1 a 0.52,0.52 0 1 1 0,1 z"
       fill="#d1d3d4"
       id="path28" />
    <rect
       x="265.32999"
       y="45.709999"
       width="41.900002"
       height="60.84"
       fill="#ffffff"
       id="rect30" />
    <path
       d="m 307.22,107.06 h -41.89 a 0.51,0.51 0 0 1 -0.52,-0.51 V 45.71 a 0.52,0.52 0 0 1 0.52,-0.52 h 41.89 a 0.52,0.52 0 0 1 0.52,0.52 v 60.84 a 0.51,0.51 0 0 1 -0.52,0.51 z m -41.38,-1 h 40.87 V 46.23 h -40.87 z"
       fill="#d1d3d4"
       id="path32" />
    <rect
       x="270.34"
       y="53.759998"
       width="8.3400002"
       height="8.3400002"
       fill="#ffffff"
       id="rect34" />
    <path
       d="m 278.68,62.62 h -8.34 a 0.52,0.52 0 0 1 -0.52,-0.52 v -8.34 a 0.52,0.52 0 0 1 0.52,-0.52 h 8.34 a 0.51,0.51 0 0 1 0.51,0.52 v 8.34 a 0.52,0.52 0 0 1 -0.51,0.52 z m -7.83,-1 h 7.31 v -7.35 h -7.31 z"
       fill="#d1d3d4"
       id="path36" />
    <path
       d="m 273.65,60.51 a 0.3,0.3 0 0 1 -0.13,0 0.52,0.52 0 0 1 -0.34,-0.29 l -1.11,-2.61 a 0.52,0.52 0 0 1 0.95,-0.4 l 0.86,2 6.21,-4.51 a 0.51,0.51 0 0 1 0.72,0.12 0.51,0.51 0 0 1 -0.12,0.72 L 274,60.41 a 0.5,0.5 0 0 1 -0.35,0.1 z"
       fill="#d1d3d4"
       id="path38" />
    <path
       d="M 302.21,58.07 H 283.5 a 0.52,0.52 0 1 1 0,-1 h 18.71 a 0.52,0.52 0 1 1 0,1 z"
       fill="#d1d3d4"
       id="path40" />
    <rect
       x="270.34"
       y="65.889999"
       width="8.3400002"
       height="8.3400002"
       fill="#ffffff"
       id="rect42" />
    <path
       d="m 278.68,74.75 h -8.34 a 0.52,0.52 0 0 1 -0.52,-0.52 v -8.34 a 0.51,0.51 0 0 1 0.52,-0.51 h 8.34 a 0.51,0.51 0 0 1 0.51,0.51 v 8.34 a 0.51,0.51 0 0 1 -0.51,0.52 z m -7.83,-1 h 7.31 v -7.34 h -7.31 z"
       fill="#d1d3d4"
       id="path44" />
    <path
       d="m 273.65,72.64 h -0.13 a 0.53,0.53 0 0 1 -0.34,-0.3 l -1.11,-2.6 a 0.52,0.52 0 0 1 0.95,-0.41 l 0.86,2 6.21,-4.51 a 0.52,0.52 0 0 1 0.72,0.12 0.51,0.51 0 0 1 -0.12,0.72 L 274,72.55 a 0.56,0.56 0 0 1 -0.35,0.09 z"
       fill="#d1d3d4"
       id="path46" />
    <path
       d="M 302.21,70.2 H 283.5 a 0.52,0.52 0 1 1 0,-1 h 18.71 a 0.52,0.52 0 1 1 0,1 z"
       fill="#d1d3d4"
       id="path48" />
    <rect
       x="270.34"
       y="78.019997"
       width="8.3400002"
       height="8.3400002"
       fill="#ffffff"
       id="rect50" />
    <path
       d="m 278.68,86.88 h -8.34 a 0.51,0.51 0 0 1 -0.52,-0.51 V 78 a 0.51,0.51 0 0 1 0.52,-0.51 h 8.34 a 0.51,0.51 0 0 1 0.51,0.51 v 8.35 a 0.51,0.51 0 0 1 -0.51,0.53 z m -7.83,-1 h 7.31 v -7.34 h -7.31 z"
       fill="#d1d3d4"
       id="path52" />
    <path
       d="m 273.65,84.78 h -0.13 a 0.51,0.51 0 0 1 -0.34,-0.3 l -1.11,-2.6 a 0.52,0.52 0 0 1 0.28,-0.68 0.51,0.51 0 0 1 0.67,0.28 l 0.86,2 6.21,-4.5 a 0.5120791,0.5120791 0 1 1 0.6,0.83 L 274,84.68 a 0.5,0.5 0 0 1 -0.35,0.1 z"
       fill="#d1d3d4"
       id="path54" />
    <path
       d="M 302.21,82.33 H 283.5 a 0.52,0.52 0 1 1 0,-1 h 18.71 a 0.52,0.52 0 1 1 0,1 z"
       fill="#d1d3d4"
       id="path56" />
    <rect
       x="270.34"
       y="90.160004"
       width="8.3400002"
       height="8.3400002"
       fill="#ffffff"
       id="rect58" />
    <path
       d="m 278.68,99 h -8.34 a 0.51,0.51 0 0 1 -0.52,-0.51 v -8.33 a 0.52,0.52 0 0 1 0.52,-0.52 h 8.34 a 0.51,0.51 0 0 1 0.51,0.52 v 8.34 a 0.51,0.51 0 0 1 -0.51,0.5 z m -7.83,-1 h 7.31 v -7.33 h -7.31 z"
       fill="#d1d3d4"
       id="path60" />
    <path
       d="m 273.65,96.91 a 0.3,0.3 0 0 1 -0.13,0 0.52,0.52 0 0 1 -0.34,-0.29 L 272.07,94 a 0.52,0.52 0 0 1 0.95,-0.4 l 0.86,2 6.21,-4.51 a 0.51,0.51 0 0 1 0.72,0.12 0.51,0.51 0 0 1 -0.12,0.72 L 274,96.81 a 0.5,0.5 0 0 1 -0.35,0.1 z"
       fill="#d1d3d4"
       id="path62" />
    <path
       d="M 302.21,94.47 H 283.5 a 0.52,0.52 0 1 1 0,-1 h 18.71 a 0.52,0.52 0 1 1 0,1 z"
       fill="#d1d3d4"
       id="path64" />
    <rect
       x="250.99001"
       y="139.53"
       width="58.810001"
       height="35.619999"
       fill="#ffffff"
       id="rect66" />
    <path
       d="M 309.79,175.67 H 251 a 0.52,0.52 0 0 1 -0.52,-0.52 V 139.53 A 0.51,0.51 0 0 1 251,139 h 58.8 a 0.51,0.51 0 0 1 0.52,0.51 v 35.62 a 0.52,0.52 0 0 1 -0.53,0.54 z m -58.29,-1 h 57.78 V 140.05 H 251.5 Z"
       fill="#d1d3d4"
       id="path68" />
    <path
       d="M 309.79,147.69 H 251 a 0.52,0.52 0 1 1 0,-1 h 58.8 a 0.52,0.52 0 1 1 0,1 z"
       fill="#d1d3d4"
       id="path70" />
    <path
       d="m 260.37,175.41 a 0.51,0.51 0 0 1 -0.51,-0.52 v -35.36 a 0.52,0.52 0 0 1 1,0 v 35.36 a 0.52,0.52 0 0 1 -0.49,0.52 z"
       fill="#d1d3d4"
       id="path72" />
    <circle
       cx="104.52"
       cy="143.3"
       r="11.06"
       fill="#ffffff"
       id="circle74" />
    <path
       d="m 104.52,154.88 a 11.59,11.59 0 1 1 11.58,-11.58 11.6,11.6 0 0 1 -11.58,11.58 z m 0,-22.13 a 10.55,10.55 0 1 0 10.55,10.55 10.56,10.56 0 0 0 -10.55,-10.55 z"
       fill="#d1d3d4"
       id="path76" />
    <polyline
       points="103.73 137.59 103.73 143.3 110.15 138.62"
       fill="#ffffff"
       id="polyline78" />
    <path
       d="m 103.73,143.81 a 0.59,0.59 0 0 1 -0.23,-0.05 0.52,0.52 0 0 1 -0.29,-0.46 v -5.71 a 0.52,0.52 0 0 1 0.52,-0.52 0.52,0.52 0 0 1 0.52,0.52 v 4.69 l 5.6,-4.07 a 0.52,0.52 0 1 1 0.61,0.83 l -6.46,4.67 a 0.47,0.47 0 0 1 -0.27,0.1 z"
       fill="#d1d3d4"
       id="path80" />
    <path
       d="m 138.4,138.28 h -16.33 a 0.52,0.52 0 0 1 -0.51,-0.52 0.51,0.51 0 0 1 0.51,-0.52 h 16.33 a 0.52,0.52 0 0 1 0.52,0.52 0.52,0.52 0 0 1 -0.52,0.52 z"
       fill="#d1d3d4"
       id="path82" />
    <path
       d="m 138.4,143.55 h -16.33 a 0.52,0.52 0 0 1 0,-1 h 16.33 a 0.52,0.52 0 1 1 0,1 z"
       fill="#d1d3d4"
       id="path84" />
    <path
       d="m 131.75,148.82 h -9.68 a 0.52,0.52 0 0 1 0,-1 h 9.68 a 0.52,0.52 0 0 1 0,1 z"
       fill="#d1d3d4"
       id="path86" />
    <circle
       cx="104.52"
       cy="171.13"
       r="11.06"
       fill="#ffffff"
       id="circle88" />
    <path
       d="m 104.52,182.71 a 11.58,11.58 0 1 1 11.58,-11.58 11.59,11.59 0 0 1 -11.58,11.58 z m 0,-22.13 a 10.55,10.55 0 1 0 10.55,10.55 10.56,10.56 0 0 0 -10.55,-10.55 z"
       fill="#d1d3d4"
       id="path90" />
    <polyline
       points="103.73 165.43 103.73 171.13 110.15 166.46"
       fill="#ffffff"
       id="polyline92" />
    <path
       d="m 103.73,171.65 a 0.46,0.46 0 0 1 -0.23,-0.06 0.51,0.51 0 0 1 -0.29,-0.46 v -5.7 a 0.52,0.52 0 0 1 0.52,-0.52 0.52,0.52 0 0 1 0.52,0.52 v 4.69 l 5.6,-4.08 a 0.51,0.51 0 0 1 0.72,0.11 0.52,0.52 0 0 1 -0.11,0.73 l -6.46,4.67 a 0.54,0.54 0 0 1 -0.27,0.1 z"
       fill="#d1d3d4"
       id="path94" />
    <path
       d="m 138.4,166.11 h -16.33 a 0.52,0.52 0 0 1 0,-1 h 16.33 a 0.52,0.52 0 1 1 0,1 z"
       fill="#d1d3d4"
       id="path96" />
    <path
       d="m 138.4,171.38 h -16.33 a 0.52,0.52 0 0 1 0,-1 h 16.33 a 0.52,0.52 0 1 1 0,1 z"
       fill="#d1d3d4"
       id="path98" />
    <path
       d="m 131.75,176.66 h -9.68 a 0.52,0.52 0 0 1 0,-1 h 9.68 a 0.52,0.52 0 0 1 0,1 z"
       fill="#d1d3d4"
       id="path100" />
    <path
       d="m 215.46,180.47 c 0,0 8.15,24.71 3.75,24.74 -4.4,0.03 -15.37,-13.38 -15.37,-13.38 l 8.82,-11.34"
       fill="#ffffff"
       id="path102" />
    <path
       d="m 219.19,205.67 c -4.57,0 -15.25,-13 -15.7,-13.55 a 0.45,0.45 0 0 1 0,-0.57 l 8.82,-11.34 a 0.46,0.46 0 1 1 0.72,0.56 l -8.59,11 c 3.19,3.86 11.4,12.94 14.76,12.94 a 0.47,0.47 0 0 0 0.46,-0.25 c 1.64,-2.28 -1.86,-15.54 -4.62,-23.9 a 0.46,0.46 0 1 1 0.87,-0.29 c 0.72,2.18 6.93,21.33 4.49,24.72 a 1.41,1.41 0 0 1 -1.18,0.63 z"
       fill="#231f20"
       id="path104" />
    <path
       d="m 186.6,123 c 0,0 -33.78,42.79 -35.91,58 -2.13,15.21 48.8,13.1 48.8,13.1 l 6,-22.28 c 0,0 -26.72,1.91 -23.66,-2.9 3.06,-4.81 21.81,-23 21.81,-23 l 2.84,-25.44 z"
       fill="#231f20"
       id="path106" />
    <path
       d="m 193,194.65 c -11.43,0 -34.33,-0.94 -40.93,-8.22 a 6.5,6.5 0 0 1 -1.77,-5.49 c 2.11,-15.16 34.61,-56.48 36,-58.23 a 0.41,0.41 0 0 1 0.29,-0.16 l 19.9,-2.5 a 0.43,0.43 0 0 1 0.36,0.12 0.42,0.42 0 0 1 0.13,0.36 L 204.1,146 a 0.47,0.47 0 0 1 -0.14,0.27 c -0.18,0.18 -18.75,18.19 -21.74,22.91 -0.25,0.39 -0.19,0.6 -0.1,0.74 1.31,2.2 15,2.08 23.36,1.48 a 0.44,0.44 0 0 1 0.37,0.16 0.42,0.42 0 0 1 0.09,0.4 l -6,22.27 a 0.44,0.44 0 0 1 -0.4,0.33 c -0.42,-0.01 -2.91,0.09 -6.54,0.09 z m -6.12,-71.25 c -2.14,2.72 -33.69,43.17 -35.71,57.67 a 5.61,5.61 0 0 0 1.55,4.77 c 8,8.85 42.74,7.95 46.47,7.83 l 5.78,-21.37 c -4.05,0.27 -21.67,1.23 -23.57,-1.94 a 1.52,1.52 0 0 1 0.11,-1.68 c 3,-4.65 20.05,-21.29 21.77,-23 L 206,121 Z"
       fill="#231f20"
       id="path108" />
    <path
       d="m 198.88,120.55 c 0,1.77 -14.8,83.72 -22.16,117 L 182,267.8 c 0,0 21,-39.36 31.91,-76.34 10.91,-36.98 13.51,-63.92 13.51,-63.92 z"
       fill="#231f20"
       id="path110" />
    <path
       d="m 182,268.24 h -0.07 a 0.44,0.44 0 0 1 -0.37,-0.36 l -5.25,-30.24 a 0.48,0.48 0 0 1 0,-0.17 c 7.53,-34.05 22.14,-115.27 22.15,-116.9 a 0.43,0.43 0 0 1 0.17,-0.35 0.41,0.41 0 0 1 0.37,-0.09 l 28.52,7 a 0.44,0.44 0 0 1 0.34,0.47 c 0,0.27 -2.72,27.41 -13.53,64 -10.81,36.59 -31.74,76 -31.95,76.41 a 0.42,0.42 0 0 1 -0.38,0.23 z m -4.81,-30.67 5,28.87 c 3.51,-6.75 21.52,-42.09 31.27,-75.1 10.09,-34.17 13.1,-60.06 13.46,-63.47 l -27.66,-6.77 c -1.02,7.53 -15.12,84.9 -22.09,116.47 z"
       fill="#231f20"
       id="path112" />
    <path
       d="m 218.49,64.8 c 0,0 -21.84,-0.46 -32.12,7.79 -10.28,8.25 -27.2,32.6 -24.72,38.21 2.48,5.61 11.94,9.81 24.86,0.5 l -3.82,16.76 45.9,7.15 c 0,0 12.49,-55 11.24,-58.94 C 238.3,72.82 228.69,64.25 218.49,64.8 Z"
       fill="#000000"
       id="path114" />
    <path
       d="m 190.11,96.24 a 0.45,0.45 0 0 1 -0.25,-0.07 0.46,0.46 0 0 1 -0.17,-0.57 c 0.23,-0.87 1.27,-12.49 1.91,-20.14 a 0.47,0.47 0 0 1 0.49,-0.42 0.46,0.46 0 0 1 0.42,0.49 c -1.11,13.26 -1.79,20.16 -2,20.5 a 0.44,0.44 0 0 1 -0.4,0.21 z"
       fill="#231f20"
       id="path116" />
    <path
       d="m 207.64,59.78 c -0.82,0.16 -3.8,-5.81 -4.06,-6.78 -0.4,-1.46 -0.25,-3.06 -0.6,-4.45 -0.43,-1.74 -1.83,-3.31 -2.88,-4.71 a 12.6,12.6 0 0 1 -2.72,-5.33 c -0.32,-2 0.49,-4.3 2.33,-5.1 2.4,-1 5.85,0.59 7.46,-1.47 a 8.18,8.18 0 0 1 0.84,-1.16 2.78,2.78 0 0 1 2.25,-0.35 17.72,17.72 0 0 1 6.93,2.62 2.22,2.22 0 0 0 1.5,0.54 c 0.48,-0.08 0.83,-0.47 1.28,-0.64 a 2.83,2.83 0 0 1 2.35,0.45 c 4.94,2.78 7.13,6.67 6.51,12.24 l -1.11,10 z"
       fill="#ffffff"
       id="path118" />
    <path
       d="m 207.56,60.25 c -0.35,0 -1,-0.36 -2.56,-3.21 a 27.92,27.92 0 0 1 -1.86,-3.92 12.59,12.59 0 0 1 -0.34,-2.42 11.71,11.71 0 0 0 -0.26,-2 11.15,11.15 0 0 0 -2.25,-3.82 l -0.56,-0.73 a 13,13 0 0 1 -2.8,-5.53 c -0.33,-2.07 0.45,-4.66 2.6,-5.59 a 8.18,8.18 0 0 1 3.56,-0.4 c 1.57,0 2.93,0.08 3.72,-0.93 0.1,-0.13 0.19,-0.27 0.28,-0.41 a 3.12,3.12 0 0 1 0.63,-0.81 3.17,3.17 0 0 1 2.61,-0.47 18.4,18.4 0 0 1 7.1,2.7 2.05,2.05 0 0 0 1.19,0.47 1.78,1.78 0 0 0 0.59,-0.29 4.24,4.24 0 0 1 0.59,-0.33 3.27,3.27 0 0 1 2.74,0.49 c 5.17,2.9 7.37,7.05 6.75,12.68 l -1.11,10 a 0.46,0.46 0 0 1 -0.36,0.39 l -20.09,4.12 v 0 a 0.86,0.86 0 0 1 -0.17,0.01 z m 0,-0.92 z m -5.4,-25.85 a 5.69,5.69 0 0 0 -2.25,0.35 c -1.7,0.74 -2.33,2.92 -2.06,4.61 a 12.29,12.29 0 0 0 2.63,5.12 l 0.55,0.72 a 12.09,12.09 0 0 1 2.42,4.16 12.38,12.38 0 0 1 0.28,2.19 12.7,12.7 0 0 0 0.31,2.25 c 0.27,1 2.81,5.93 3.61,6.43 l 19.68,-4 1.07,-9.69 c 0.59,-5.3 -1.41,-9 -6.28,-11.79 a 2.53,2.53 0 0 0 -2,-0.43 2.38,2.38 0 0 0 -0.44,0.25 2.41,2.41 0 0 1 -0.93,0.42 2.6,2.6 0 0 1 -1.82,-0.6 17.3,17.3 0 0 0 -6.76,-2.56 2.37,2.37 0 0 0 -1.88,0.25 2.68,2.68 0 0 0 -0.45,0.6 4.2,4.2 0 0 1 -0.33,0.49 c -1.08,1.38 -2.8,1.33 -4.46,1.28 z"
       fill="#231f20"
       id="path120" />
    <path
       d="m 211.19,63.84 -0.5,8.33 c 0,0 0.58,4.7 5.73,3.56 a 10.49,10.49 0 0 0 7.06,-5.6 c 0,0 1.12,-20 1.51,-25.25 -3.21,-0.23 -6.23,0.64 -9.53,0 a 53.47,53.47 0 0 1 -8.27,-2.48 c -0.59,5.78 -2.44,11 -1.57,16.79 0.6,3.99 5.57,4.65 5.57,4.65 z"
       fill="#ffffff"
       id="path122" />
    <path
       d="m 214.9,76.37 a 4.6,4.6 0 0 1 -2.7,-0.8 5.24,5.24 0 0 1 -2,-3.34 l 0.48,-8 c -1.27,-0.27 -5,-1.34 -5.54,-4.94 -0.6,-4 0.05,-7.62 0.73,-11.46 0.32,-1.77 0.65,-3.59 0.84,-5.45 A 0.43,0.43 0 0 1 207,42 a 0.44,0.44 0 0 1 0.4,0 54.49,54.49 0 0 0 8.19,2.47 20.82,20.82 0 0 0 5.4,0.07 26.25,26.25 0 0 1 4.08,-0.11 0.43,0.43 0 0 1 0.31,0.16 0.5,0.5 0 0 1 0.12,0.33 c -0.39,5.22 -1.5,25 -1.51,25.24 a 0.75,0.75 0 0 1 0,0.16 10.88,10.88 0 0 1 -7.38,5.87 7.92,7.92 0 0 1 -1.71,0.18 z m -3.76,-4.18 a 3.86,3.86 0 0 0 5.18,3.1 A 10.09,10.09 0 0 0 223,70 c 0.08,-1.39 1.07,-19.06 1.47,-24.7 a 29.1,29.1 0 0 0 -3.5,0.13 20.91,20.91 0 0 1 -5.63,-0.09 50.26,50.26 0 0 1 -7.76,-2.34 c -0.2,1.69 -0.49,3.34 -0.78,4.94 -0.67,3.76 -1.31,7.32 -0.73,11.16 0.54,3.59 5.14,4.24 5.18,4.25 a 0.45,0.45 0 0 1 0.4,0.48 l -0.51,8.33 z"
       fill="#231f20"
       id="path124" />
    <path
       d="m 211,67.93 a 8,8 0 0 0 5.67,-1.8 5.82,5.82 0 0 0 2.1,-4.42 16.26,16.26 0 0 1 -7.6,2.13 z"
       fill="#231f20"
       id="path126" />
    <path
       d="m 211.55,68.39 a 4.84,4.84 0 0 1 -0.58,0 0.43,0.43 0 0 1 -0.39,-0.45 l 0.17,-4.1 a 0.43,0.43 0 0 1 0.46,-0.42 16,16 0 0 0 7.35,-2.07 0.45,0.45 0 0 1 0.67,0.34 6.23,6.23 0 0 1 -2.23,4.77 8.15,8.15 0 0 1 -5.45,1.93 z m -0.07,-0.88 v 0 a 7.33,7.33 0 0 0 4.88,-1.7 5.86,5.86 0 0 0 1.91,-3.33 16.29,16.29 0 0 1 -6.68,1.8 z"
       fill="#231f20"
       id="path128" />
    <path
       d="m 215.2,52.38 c 0,0 -2.9,3.85 -2.3,4.58 0.6,0.73 2.41,0.37 2.41,0.37"
       fill="#ffffff"
       id="path130" />
    <path
       d="m 214.35,57.87 a 2.3,2.3 0 0 1 -1.79,-0.62 c -0.68,-0.83 0.87,-3.25 2.29,-5.14 a 0.46,0.46 0 0 1 0.62,-0.09 0.44,0.44 0 0 1 0.09,0.62 c -1.33,1.77 -2.4,3.68 -2.29,4.08 0.27,0.32 1.31,0.31 1.95,0.18 a 0.46,0.46 0 0 1 0.53,0.35 0.45,0.45 0 0 1 -0.35,0.52 5.68,5.68 0 0 1 -1.05,0.1 z"
       fill="#231f20"
       id="path132" />
    <path
       d="m 214.13,61 a 5,5 0 0 1 -3.64,-1.77 0.442069,0.442069 0 1 1 0.64,-0.61 4.11,4.11 0 0 0 3.2,1.48 c 2.33,-0.13 4.19,-2.58 4.21,-2.6 a 0.44,0.44 0 0 1 0.62,-0.09 0.45,0.45 0 0 1 0.09,0.62 c -0.09,0.11 -2.13,2.8 -4.86,3 z"
       fill="#231f20"
       id="path134" />
    <path
       d="m 207.43,52.21 a 1.86,1.86 0 0 1 -1.32,-0.55 1.84,1.84 0 0 1 -0.56,-1.33 v -1.71 a 1.88,1.88 0 0 1 0.54,-1.33 1.92,1.92 0 0 1 1.33,-0.57 h 4.71 v 0 a 1.89,1.89 0 0 1 1.33,0.54 2,2 0 0 1 0.56,1.34 v 1.7 a 1.9,1.9 0 0 1 -1.87,1.91 v 0 h -4.71 z m 4.73,-0.49 z m 0,-4.15 v 0 h -4.71 a 1,1 0 0 0 -0.71,0.3 1,1 0 0 0 -0.28,0.71 v 1.71 a 1,1 0 0 0 0.3,0.7 0.94,0.94 0 0 0 0.71,0.29 h 4.71 a 1,1 0 0 0 1,-1 v -1.71 a 1,1 0 0 0 -1,-1 z"
       fill="#231f20"
       id="path136" />
    <path
       d="M 216.85,52.13 A 1.9,1.9 0 0 1 215,50.25 v -1.7 a 1.91,1.91 0 0 1 1.88,-1.91 h 4.71 v 0 a 1.9,1.9 0 0 1 1.33,0.55 1.84,1.84 0 0 1 0.56,1.33 v 1.7 a 1.82,1.82 0 0 1 -0.54,1.34 1.89,1.89 0 0 1 -1.33,0.57 v 0 h -4.71 z m 4.73,-0.48 z m 0,-4.16 v 0 h -4.71 a 1,1 0 0 0 -1,1 v 1.71 a 1,1 0 0 0 0.3,0.7 0.94,0.94 0 0 0 0.71,0.29 h 4.71 a 1,1 0 0 0 1,-1 v -1.71 a 1,1 0 0 0 -0.3,-0.7 1,1 0 0 0 -0.74,-0.29 z"
       fill="#231f20"
       id="path138" />
    <path
       d="m 213.58,49 a 0.44,0.44 0 1 1 0,-0.88 h 1.82 v 0 a 0.44,0.44 0 0 1 0.44,0.44 0.46,0.46 0 0 1 -0.44,0.45 z"
       fill="#231f20"
       id="path140" />
    <path
       d="m 227.71,52 a 0.46,0.46 0 0 1 -0.25,-0.08 l -4.71,-3.11 a 0.44376232,0.44376232 0 0 1 0.49,-0.74 l 4.76,3.16 a 0.45,0.45 0 0 1 0.13,0.61 0.45,0.45 0 0 1 -0.42,0.16 z"
       fill="#231f20"
       id="path142" />
    <path
       d="m 223.25,52.63 c 1,-1.2 2.46,-3.38 4.27,-2.59 a 3,3 0 0 1 1.19,1 c 1.39,1.83 1,4.15 -0.05,6 -0.93,1.62 -3.72,4 -5.42,1.8"
       fill="#ffffff"
       id="path144" />
    <path
       d="m 224.91,60.2 a 2.51,2.51 0 0 1 -2,-1.06 0.46,0.46 0 1 1 0.72,-0.56 1.6,1.6 0 0 0 1.43,0.7 5,5 0 0 0 3.23,-2.45 c 1.16,-2 1.19,-4.06 0.09,-5.51 a 2.61,2.61 0 0 0 -1,-0.86 c -1.24,-0.54 -2.35,0.71 -3.49,2.16 l -0.23,0.3 a 0.46,0.46 0 1 1 -0.71,-0.57 l 0.22,-0.29 c 1,-1.24 2.59,-3.31 4.58,-2.44 a 3.52,3.52 0 0 1 1.38,1.15 c 1.33,1.76 1.32,4.19 0,6.52 -0.62,1.06 -2.24,2.79 -4,2.91 z"
       fill="#231f20"
       id="path146" />
    <ellipse
       cx="211.17999"
       cy="50.16"
       rx="0.51999998"
       ry="1.09"
       transform="rotate(-0.48,208.68464,49.814859)"
       fill="#231f20"
       id="ellipse148" />
    <ellipse
       cx="218.7"
       cy="50.689999"
       rx="0.51999998"
       ry="1.09"
       transform="rotate(-0.48,217.04023,49.849859)"
       fill="#231f20"
       id="ellipse150" />
    <rect
       x="201.78"
       y="77.730003"
       width="2.3699999"
       height="18.139999"
       transform="rotate(-22.36,202.96703,86.799584)"
       fill="#ffffff"
       id="rect152" />
    <path
       d="M 205.32,96.1 A 0.45,0.45 0 0 1 204.9,95.81 L 198,79 a 0.44,0.44 0 0 1 0.25,-0.59 l 2.19,-0.91 a 0.47,0.47 0 0 1 0.35,0 0.45,0.45 0 0 1 0.25,0.24 l 6.9,16.78 a 0.43,0.43 0 0 1 0,0.35 0.44,0.44 0 0 1 -0.25,0.25 l -2.19,0.9 a 0.39,0.39 0 0 1 -0.18,0.08 z m -6.3,-17 6.55,15.9 1.35,-0.55 -6.55,-15.94 z"
       fill="#231f20"
       id="path154" />
    <rect
       x="199.48"
       y="78.099998"
       width="3.23"
       height="8.2799997"
       transform="rotate(-22.36,201.08543,82.221873)"
       fill="#ffffff"
       id="rect156" />
    <path
       d="m 201.18,87.13 a 0.57,0.57 0 0 1 -0.18,0 0.51,0.51 0 0 1 -0.25,-0.25 L 197.6,79.2 a 0.47,0.47 0 0 1 0.25,-0.6 l 3,-1.23 a 0.53,0.53 0 0 1 0.35,0 0.45,0.45 0 0 1 0.24,0.25 l 3.15,7.66 a 0.44,0.44 0 0 1 -0.25,0.59 l -3,1.23 a 0.51,0.51 0 0 1 -0.16,0.03 z m -2.56,-7.86 2.8,6.81 2.14,-0.88 -2.8,-6.81 z"
       fill="#231f20"
       id="path158" />
    <path
       d="m 204.82,85.19 h -0.11 c -1.1,-0.27 -1.25,-2.07 -1.42,-4 a 8.87,8.87 0 0 0 -0.3,-2 0.39,0.39 0 0 0 -0.25,-0.25 1.59,1.59 0 0 0 -1.06,0.29 0.47,0.47 0 0 1 -0.63,-0.14 0.45,0.45 0 0 1 0.13,-0.63 2.5,2.5 0 0 1 1.82,-0.46 1.26,1.26 0 0 1 0.83,0.75 8.59,8.59 0 0 1 0.38,2.33 c 0.09,1 0.27,3.06 0.73,3.17 a 0.46,0.46 0 0 1 -0.11,0.9 z"
       fill="#231f20"
       id="path160" />
    <path
       d="m 193.13,92.8 c 0,0 3.24,-5.94 6.06,-5.77 2.82,0.17 7.1,7.73 7.1,7.73 z"
       fill="#ffffff"
       id="path162" />
    <path
       d="m 206.29,95.22 h -0.07 l -13.15,-2 a 0.47,0.47 0 0 1 -0.35,-0.24 0.5,0.5 0 0 1 0,-0.43 c 0.35,-0.63 3.49,-6.2 6.48,-6 2.99,0.2 7,7.17 7.48,8 a 0.48,0.48 0 0 1 0,0.49 0.48,0.48 0 0 1 -0.39,0.18 z m -12.43,-2.77 11.55,1.72 c -1.45,-2.38 -4.38,-6.58 -6.25,-6.69 -1.87,-0.11 -4.16,3.15 -5.3,4.97 z"
       fill="#231f20"
       id="path164" />
    <polygon
       points="186.33,90.14 192.19,125.61 223.68,130.56 217.46,94.57 "
       fill="#231f20"
       id="polygon166" />
    <path
       d="m 223.68,131 h -0.07 l -31.49,-5 a 0.45,0.45 0 0 1 -0.37,-0.36 L 185.9,90.21 a 0.44,0.44 0 0 1 0.11,-0.38 0.45,0.45 0 0 1 0.38,-0.13 l 31.13,4.44 a 0.42,0.42 0 0 1 0.37,0.36 l 6.22,36 a 0.41,0.41 0 0 1 -0.12,0.38 0.4,0.4 0 0 1 -0.31,0.12 z m -31.11,-5.77 30.57,4.8 L 217.08,95 186.86,90.7 Z"
       fill="#231f20"
       id="path168" />
    <path
       d="m 239.83,76.27 c 0,0 22.15,44.72 13.74,49 -8.41,4.28 -28,-7.38 -28,-7.38 l -0.07,-9.3 14.92,1.48 L 229.4,100 Z"
       fill="#000000"
       id="path170" />
    <path
       d="m 222.29,109.24 6.56,1.05 a 6.19,6.19 0 0 1 1.4,3.63 5.46,5.46 0 0 1 -2,4.12 l -5.18,-1.74 c 0,0 1.04,-4.94 -0.78,-7.06 z"
       fill="#ffffff"
       id="path172" />
    <path
       d="m 228.26,118.5 a 0.4,0.4 0 0 1 -0.15,0 l -5.17,-1.74 a 0.46,0.46 0 0 1 -0.31,-0.52 c 0,0 1,-4.75 -0.69,-6.67 a 0.47,0.47 0 0 1 -0.05,-0.52 0.46,0.46 0 0 1 0.47,-0.23 l 6.56,1 a 0.46,0.46 0 0 1 0.27,0.15 6.61,6.61 0 0 1 1.51,3.93 5.88,5.88 0 0 1 -2.13,4.46 0.47,0.47 0 0 1 -0.31,0.14 z m -4.66,-2.5 4.54,1.53 a 4.9,4.9 0 0 0 1.65,-3.59 5.71,5.71 0 0 0 -1.18,-3.21 l -5.4,-0.87 c 0.95,2.03 0.57,5.05 0.39,6.14 z"
       fill="#231f20"
       id="path174" />
    <path
       d="m 222.29,109.24 a 4.42,4.42 0 0 0 -1.66,-0.51 c -1.09,-0.11 -6.83,-1 -7.43,0.24 -0.46,0.94 0,1.12 0,1.12 0,0 -1.69,0 -1.25,1.52 0,0 -0.74,1.69 0.62,2.15 0,0 -0.88,0.48 0.16,1.27 1.9,1.44 8.62,4.85 10.62,3.17 a 4.36,4.36 0 0 0 1.3,-2.29 c 0.66,-2.5 -0.2,-5.48 -2.36,-6.67 z"
       fill="#ffffff"
       id="path176" />
    <path
       d="m 221.79,119.1 c -3,0 -7.87,-2.6 -9.33,-3.71 a 1.38,1.38 0 0 1 -0.68,-1.18 0.9,0.9 0 0 1 0.09,-0.33 1.52,1.52 0 0 1 -0.42,-0.55 2.49,2.49 0 0 1 0,-1.75 1.52,1.52 0 0 1 0.21,-1.27 1.63,1.63 0 0 1 0.85,-0.56 2.09,2.09 0 0 1 0.25,-1 c 0.56,-1.14 3.33,-1 7.31,-0.56 l 0.58,0.07 a 4.65,4.65 0 0 1 1.83,0.56 v 0 c 2.23,1.23 3.34,4.31 2.6,7.18 a 4.7,4.7 0 0 1 -1.46,2.53 2.81,2.81 0 0 1 -1.83,0.57 z m -8.33,-9.39 a 0.47,0.47 0 0 1 0.2,0.47 0.46,0.46 0 0 1 -0.45,0.37 1.15,1.15 0 0 0 -0.78,0.31 0.7,0.7 0 0 0 0,0.62 0.55,0.55 0 0 1 0,0.31 1.65,1.65 0 0 0 -0.09,1.17 0.69,0.69 0 0 0 0.44,0.37 0.45,0.45 0 0 1 0.31,0.39 0.45,0.45 0 0 1 -0.24,0.44 c -0.05,0 -0.11,0.1 -0.11,0.13 0,0.03 0.05,0.17 0.32,0.37 2.17,1.65 8.45,4.54 10.05,3.19 a 3.84,3.84 0 0 0 1.16,-2.06 c 0.65,-2.47 -0.28,-5.12 -2.15,-6.15 a 3.76,3.76 0 0 0 -1.48,-0.45 l -0.6,-0.07 c -5.41,-0.67 -6.26,-0.19 -6.38,0 a 1,1 0 0 0 -0.2,0.59 z m -0.08,0 z m 0,0 z"
       fill="#231f20"
       id="path178" />
    <line
       x1="213.21001"
       y1="110.09"
       x2="219.41"
       y2="110.7"
       fill="#ffffff"
       id="line180" />
    <path
       d="m 219.41,111.16 v 0 l -6.2,-0.6 a 0.46,0.46 0 0 1 0.08,-0.91 l 6.21,0.6 a 0.47,0.47 0 0 1 0.41,0.5 0.47,0.47 0 0 1 -0.5,0.41 z"
       fill="#231f20"
       id="path182" />
    <path
       d="m 212,111.61 c 0,0 4.75,1.32 6.48,1.12"
       fill="#ffffff"
       id="path184" />
    <path
       d="m 218,113.2 a 33.28,33.28 0 0 1 -6.21,-1.15 0.46,0.46 0 0 1 -0.31,-0.57 0.44,0.44 0 0 1 0.56,-0.31 c 1.3,0.36 5,1.26 6.31,1.1 a 0.47,0.47 0 0 1 0.51,0.4 0.46,0.46 0 0 1 -0.4,0.51 3.32,3.32 0 0 1 -0.46,0.02 z"
       fill="#231f20"
       id="path186" />
    <path
       d="m 212.11,113.5 a 15.92,15.92 0 0 0 5.62,1.72"
       fill="#ffffff"
       id="path188" />
    <path
       d="m 217.73,115.68 v 0 a 16.18,16.18 0 0 1 -5.83,-1.78 0.45,0.45 0 0 1 -0.19,-0.61 0.46,0.46 0 0 1 0.62,-0.2 15.25,15.25 0 0 0 5.41,1.67 0.45,0.45 0 0 1 0.45,0.46 0.46,0.46 0 0 1 -0.46,0.46 z"
       fill="#231f20"
       id="path190" />
    <path
       d="m 202.43,93.35 a 0.44,0.44 0 0 1 -0.39,-0.22 15.34,15.34 0 0 0 -1.89,-2.62 0.44,0.44 0 1 1 0.64,-0.6 15.76,15.76 0 0 1 2,2.79 0.44,0.44 0 0 1 -0.17,0.6 0.41,0.41 0 0 1 -0.19,0.05 z"
       fill="#231f20"
       id="path192" />
    <path
       d="m 199.7,93.19 a 0.46,0.46 0 0 1 -0.35,-0.17 7.77,7.77 0 0 0 -2,-1.71 0.44,0.44 0 0 1 0.45,-0.75 8.63,8.63 0 0 1 2.25,1.92 0.44,0.44 0 0 1 -0.35,0.71 z"
       fill="#231f20"
       id="path194" />
    <path
       d="m 234.5,107.66 h -0.08 a 0.46,0.46 0 0 1 -0.37,-0.53 l 4.6,-25.28 a 0.45213383,0.45213383 0 1 1 0.89,0.16 L 235,107.29 a 0.45,0.45 0 0 1 -0.5,0.37 z"
       fill="#231f20"
       id="path196" />
    <path
       d="m 249.1,113.65 a 0.46,0.46 0 0 1 -0.38,-0.2 c -1.24,-1.87 -6.43,-2.75 -8.33,-2.94 l -11.56,-1.14 a 0.46,0.46 0 1 1 0.09,-0.91 l 11.56,1.14 c 0.3,0 7.26,0.74 9,3.34 a 0.45,0.45 0 0 1 -0.13,0.63 0.44,0.44 0 0 1 -0.25,0.08 z"
       fill="#231f20"
       id="path198" />
    <path
       d="m 166.39,105 a 0.46,0.46 0 0 1 -0.31,-0.79 c 3.65,-3.43 20.58,-10.47 21.3,-10.77 a 0.47,0.47 0 0 1 0.6,0.25 0.46,0.46 0 0 1 -0.25,0.6 c -0.17,0.07 -17.5,7.27 -21,10.58 a 0.43,0.43 0 0 1 -0.34,0.13 z"
       fill="#231f20"
       id="path200" />
    <path
       d="m 170,230.83 c 0.34,0 3.06,-0.49 6,2.57 2.94,3.06 8.36,21.86 8.82,26.55 A 10.22,10.22 0 0 1 182,267.8 Z"
       fill="#ffffff"
       id="path202" />
    <path
       d="m 182,268.25 h -0.12 a 0.46,0.46 0 0 1 -0.32,-0.3 l -12,-37 a 0.45,0.45 0 0 1 0.07,-0.42 0.43,0.43 0 0 1 0.38,-0.17 h 0.13 a 7.92,7.92 0 0 1 6.2,2.71 c 3.12,3.23 8.5,22.31 8.95,26.83 a 10.62,10.62 0 0 1 -3,8.22 0.47,0.47 0 0 1 -0.29,0.13 z m -11.38,-37 11.56,35.63 a 9.66,9.66 0 0 0 2.21,-6.9 c -0.48,-4.89 -5.91,-23.4 -8.7,-26.28 a 7.17,7.17 0 0 0 -5.09,-2.43 z"
       fill="#231f20"
       id="path204" />
    <path
       d="m 183.44,263.82 c 0,0 -4.44,-22.5 -8.44,-28.82 -4,-6.32 -7.6,-5.11 -7.9,1.38 -0.3,6.49 5.45,29.77 9.34,32.38 3.89,2.61 7.85,-0.98 7,-4.94 z"
       fill="#ffffff"
       id="path206" />
    <path
       d="m 179.15,270.1 a 5.37,5.37 0 0 1 -3,-1 c -4.21,-2.83 -9.82,-26.82 -9.54,-32.79 0.15,-3.3 1.19,-5.45 2.85,-5.88 1.66,-0.43 3.87,1.05 5.9,4.29 4,6.31 8.32,28 8.51,29 a 5.4,5.4 0 0 1 -2.17,5.59 4.55,4.55 0 0 1 -2.55,0.79 z m -9,-38.8 a 1.75,1.75 0 0 0 -0.4,0 c -1.22,0.32 -2,2.21 -2.17,5.05 -0.3,6.4 5.46,29.5 9.14,32 a 3.92,3.92 0 0 0 4.53,0.17 4.49,4.49 0 0 0 1.79,-4.64 v 0 c -0.05,-0.23 -4.53,-22.49 -8.4,-28.67 -1.64,-2.48 -3.25,-3.91 -4.53,-3.91 z"
       fill="#231f20"
       id="path208" />
    <path
       d="M 187.12,186.07 H 187 a 0.46,0.46 0 0 1 -0.37,-0.53 L 195,140.4 a 0.46,0.46 0 0 1 0.9,0.17 l -8.35,45.13 a 0.45,0.45 0 0 1 -0.43,0.37 z"
       fill="#ffffff"
       id="path210" />
    <rect
       x="232.91"
       y="202.21001"
       width="25.059999"
       height="26.790001"
       fill="#ffffff"
       id="rect212" />
    <path
       d="m 258,229.52 h -25.09 a 0.51,0.51 0 0 1 -0.52,-0.51 v -26.8 a 0.51,0.51 0 0 1 0.52,-0.51 H 258 a 0.52,0.52 0 0 1 0.52,0.51 V 229 a 0.52,0.52 0 0 1 -0.52,0.52 z m -24.54,-1 h 24 v -25.79 h -24 z"
       fill="#d1d3d4"
       id="path214" />
    <path
       d="m 258,207.28 h -25.09 a 0.52,0.52 0 1 1 0,-1 H 258 a 0.52,0.52 0 1 1 0,1 z"
       fill="#d1d3d4"
       id="path216" />
    <path
       d="m 247.66,213.17 v 0 h -7.78 v -2.52 H 251 v 2.27 l -5.88,10.74 h -3.29 z"
       fill="#d1d3d4"
       id="path218" />
    <path
       d="m 239.88,205.45 a 0.51662365,0.51662365 0 0 1 -0.26,-1 3,3 0 0 0 1.32,-3.26 1.64,1.64 0 0 0 -1.73,-1.23 2.25,2.25 0 0 0 -1.67,0.68 2.14,2.14 0 0 0 -0.44,1.48 0.51,0.51 0 0 1 -0.45,0.56 0.49,0.49 0 0 1 -0.57,-0.44 3.16,3.16 0 0 1 0.66,-2.26 3.28,3.28 0 0 1 2.42,-1.05 2.64,2.64 0 0 1 2.77,2 4,4 0 0 1 -1.8,4.44 0.47,0.47 0 0 1 -0.25,0.08 z"
       fill="#d1d3d4"
       id="path220" />
    <path
       d="m 252.94,205.45 a 0.5,0.5 0 0 1 -0.45,-0.26 0.52,0.52 0 0 1 0.19,-0.7 3,3 0 0 0 1.32,-3.26 1.63,1.63 0 0 0 -1.72,-1.23 2.25,2.25 0 0 0 -1.69,0.69 2.09,2.09 0 0 0 -0.42,1.46 0.52,0.52 0 0 1 -1,0.13 3.19,3.19 0 0 1 0.67,-2.26 3.24,3.24 0 0 1 2.41,-1.05 2.64,2.64 0 0 1 2.77,2 4,4 0 0 1 -1.8,4.44 0.45,0.45 0 0 1 -0.28,0.04 z"
       fill="#d1d3d4"
       id="path222" />
  </g>
</svg>
