<?xml version="1.0" encoding="UTF-8" standalone="no"?>
<svg
   xmlns:dc="http://purl.org/dc/elements/1.1/"
   xmlns:cc="http://creativecommons.org/ns#"
   xmlns:rdf="http://www.w3.org/1999/02/22-rdf-syntax-ns#"
   xmlns:svg="http://www.w3.org/2000/svg"
   xmlns="http://www.w3.org/2000/svg"
   viewBox="0 0 153.61621 249.4836"
   version="1.1"
   id="svg106"
   width="153.61621"
   height="249.4836">
  <metadata
     id="metadata112">
    <rdf:RDF>
      <cc:Work
         rdf:about="">
        <dc:format>image/svg+xml</dc:format>
        <dc:type
           rdf:resource="http://purl.org/dc/dcmitype/StillImage" />
        <dc:title></dc:title>
      </cc:Work>
    </rdf:RDF>
  </metadata>
  <defs
     id="defs110" />
  <g
     id="_323_notifications_flatline"
     data-name="#323_notifications_flatline"
     transform="translate(-134.5538,-25.006392)">
    <ellipse
       cx="206.78999"
       cy="271.59"
       rx="50.34"
       ry="2.9000001"
       fill="#d1d3d4"
       id="ellipse2" />
    <path
       d="m 150.65,144.35 c -0.28,0.36 -1.22,20.44 -2.25,21.47 -2.8,2.8 -2.44,-3 -2.44,-3 0,0 -5.37,11.71 -8.49,10.82 -5.68,-1.62 0.22,-15.18 1.67,-17.93 1.38,-5.36 1.56,-16.07 1.56,-16.07"
       fill="#ffffff"
       id="path4" />
    <path
       d="m 137.8,174.18 a 1.89,1.89 0 0 1 -0.47,-0.06 3.48,3.48 0 0 1 -2.31,-2.07 c -1.86,-4.36 2.36,-14.05 3.65,-16.52 1.33,-5.26 1.53,-15.79 1.53,-15.9 a 0.51,0.51 0 0 1 0.51,-0.49 0.49,0.49 0 0 1 0.49,0.51 c 0,0.44 -0.2,10.83 -1.58,16.18 a 0.36,0.36 0 0 1 0,0.11 c -1.13,2.16 -5.34,11.73 -3.64,15.72 a 2.5,2.5 0 0 0 1.67,1.5 c 1.86,0.53 5.74,-5.85 7.89,-10.55 a 0.5,0.5 0 0 1 0.58,-0.28 0.52,0.52 0 0 1 0.38,0.52 c -0.09,1.36 0.13,3 0.57,3.22 0.13,0.06 0.47,-0.06 1,-0.6 0.57,-0.87 1.25,-10.36 1.62,-15.46 0.41,-5.73 0.43,-5.77 0.6,-6 a 0.5,0.5 0 0 1 0.7,-0.09 0.5,0.5 0 0 1 0.15,0.59 c -0.09,0.4 -0.27,2.9 -0.46,5.54 -0.73,10.36 -1.21,15.41 -1.9,16.1 -0.69,0.69 -1.53,1.08 -2.13,0.8 a 2.58,2.58 0 0 1 -1.1,-2.1 c -1.7,3.37 -5.08,9.33 -7.75,9.33 z"
       fill="#231f20"
       id="path6" />
    <path
       d="m 223.64,99.47 12,-5.21 c 0,0 2.4,-5.77 4.79,-6.48 a 62.08,62.08 0 0 1 8.57,-1.12 4.76,4.76 0 0 1 1.83,5.07 c -0.71,3.51 -5.35,9.15 -11.83,10.55 l -11.84,10.42"
       fill="#ffffff"
       id="path8" />
    <path
       d="m 227.16,113.2 a 0.52,0.52 0 0 1 -0.38,-0.17 0.49,0.49 0 0 1 0.05,-0.7 l 11.82,-10.42 a 0.51,0.51 0 0 1 0.23,-0.12 c 6.33,-1.37 10.78,-6.88 11.44,-10.16 a 4.31,4.31 0 0 0 -1.48,-4.46 58.56,58.56 0 0 0 -8.31,1.09 c -1.77,0.53 -3.82,4.65 -4.46,6.19 a 0.51,0.51 0 0 1 -0.27,0.27 l -12,5.21 a 0.50159745,0.50159745 0 0 1 -0.4,-0.92 l 11.78,-5.13 c 0.49,-1.13 2.65,-5.88 5,-6.58 a 61.45,61.45 0 0 1 8.69,-1.14 0.51,0.51 0 0 1 0.3,0.07 5.22,5.22 0 0 1 2.06,5.59 c -0.72,3.62 -5.32,9.39 -12.08,10.92 l -11.73,10.34 a 0.52,0.52 0 0 1 -0.26,0.12 z"
       fill="#231f20"
       id="path10" />
    <polygon
       points="241.8,99.47 255.59,81.03 247.99,79.48 233.12,98.44 "
       fill="#231f20"
       id="polygon12" />
    <path
       d="m 241.8,100 h -0.06 l -8.68,-1 a 0.5,0.5 0 0 1 -0.4,-0.3 0.48,0.48 0 0 1 0.07,-0.5 l 14.87,-19 a 0.49,0.49 0 0 1 0.49,-0.18 l 7.61,1.55 a 0.49,0.49 0 0 1 0.36,0.31 0.47,0.47 0 0 1 -0.07,0.47 L 242.2,99.77 a 0.52,0.52 0 0 1 -0.4,0.23 z m -7.74,-1.92 7.51,0.89 L 254.73,81.39 248.2,80 Z"
       fill="#231f20"
       id="path14" />
    <polygon
       points="241.17,97.35 254.05,81.03 248.46,79.85 235.39,96.5 "
       fill="#ffffff"
       id="polygon16" />
    <path
       d="M 233.12,110 227.23,96.34 197.7,110 l 3,23.57 c 0,0 26.55,-15.84 32.42,-23.57 z"
       fill="#0e8162"
       id="path18" />
    <path
       d="m 231,240.43 c 0,0 6.29,15.52 5.72,15.51 -0.57,-0.01 -14.14,2.15 -14.14,2.15 0,0 -6.19,-12.73 -6,-13 0.19,-0.27 14.42,-4.66 14.42,-4.66 z"
       fill="#ffffff"
       id="path20" />
    <path
       d="m 222.58,258.59 a 0.5,0.5 0 0 1 -0.45,-0.28 c -6.3,-13 -6.18,-13.18 -6,-13.47 0.18,-0.29 0.24,-0.46 14.75,-4.89 a 0.51,0.51 0 0 1 0.61,0.29 c 6.18,15.26 5.88,15.7 5.69,16 a 0.5,0.5 0 0 1 -0.44,0.23 c -0.53,0 -8.7,1.29 -14.05,2.14 z m -5.43,-13.24 c 0.63,1.59 3.67,8 5.72,12.19 2.59,-0.42 11,-1.76 13.31,-2.05 -0.49,-1.88 -3.46,-9.45 -5.48,-14.45 -4.78,1.46 -11.9,3.69 -13.55,4.31 z"
       fill="#231f20"
       id="path22" />
    <path
       d="m 236.72,255.94 c 0,0 22.31,1.66 22.91,5.74 0.6,4.08 -33.4,9.91 -33.4,9.91 l -3.65,-13.5 z"
       fill="#231f20"
       id="path24" />
    <path
       d="m 226.23,272.08 a 0.49,0.49 0 0 1 -0.48,-0.36 l -3.65,-13.5 a 0.47,0.47 0 0 1 0.06,-0.4 0.49,0.49 0 0 1 0.34,-0.22 l 14.14,-2.16 h 0.12 c 3.79,0.28 22.74,1.91 23.36,6.17 0.62,4.26 -25.72,9.08 -33.8,10.47 z m -3,-13.58 3.36,12.5 c 16,-2.77 32.87,-7.06 32.54,-9.27 -0.2,-1.42 -6.47,-4.12 -22.39,-5.31 z"
       fill="#231f20"
       id="path26" />
    <polygon
       points="168.96,230.51 178.29,222.97 184.24,237.08 177.79,242.6 "
       fill="#ffffff"
       id="polygon28" />
    <path
       d="m 177.79,243.1 v 0 a 0.49,0.49 0 0 1 -0.35,-0.2 l -8.83,-12.08 a 0.5,0.5 0 0 1 0.09,-0.69 l 9.33,-7.54 a 0.46,0.46 0 0 1 0.44,-0.09 0.49,0.49 0 0 1 0.34,0.29 l 6,14.11 a 0.51,0.51 0 0 1 -0.14,0.57 l -6.55,5.53 a 0.5,0.5 0 0 1 -0.33,0.1 z m -8.14,-12.5 8.23,11.27 5.76,-4.93 -5.55,-13.16 z"
       fill="#231f20"
       id="path30" />
    <path
       d="m 177.79,242.6 c 0,0 4.51,23.25 0.67,22.45 -3.84,-0.8 -19.21,-26.4 -19.21,-26.4 l 9.71,-8.14 z"
       fill="#231f20"
       id="path32" />
    <path
       d="m 178.66,265.56 a 1.53,1.53 0 0 1 -0.3,0 c -3.93,-0.82 -18,-24 -19.54,-26.63 a 0.51,0.51 0 0 1 0.11,-0.64 l 9.71,-8.13 A 0.49,0.49 0 0 1 169,230 a 0.47,0.47 0 0 1 0.34,0.2 l 8.84,12.08 a 0.5,0.5 0 0 1 0.08,0.2 c 0,0.05 1,5 1.62,10.25 1.35,10.76 0.07,12 -0.35,12.43 a 1.2,1.2 0 0 1 -0.87,0.4 z M 159.9,238.75 c 6.15,10.22 16,25.26 18.67,25.81 a 0.28,0.28 0 0 0 0.28,-0.08 c 1.63,-1.61 -0.06,-14.1 -1.52,-21.68 l -8.46,-11.56 z"
       fill="#231f20"
       id="path34" />
    <path
       d="m 204.36,131.87 c 0,0 38.43,54.16 38.51,59 0.18,9.42 -58.29,50.06 -58.29,50.06 L 174.73,223 210.56,190.74 176.89,129.49 Z"
       fill="#231f20"
       id="path36" />
    <path
       d="m 184.58,241.44 h -0.11 a 0.45,0.45 0 0 1 -0.32,-0.25 l -9.86,-17.91 a 0.49,0.49 0 0 1 0.11,-0.61 l 35.53,-32 -33.48,-60.9 a 0.49,0.49 0 0 1 0.48,-0.73 l 27.47,2.34 a 0.52,0.52 0 0 1 0.36,0.21 c 4,5.56 38.52,54.43 38.61,59.29 0.18,9.58 -56.11,48.82 -58.5,50.48 a 0.52,0.52 0 0 1 -0.29,0.08 z m -9.23,-18.3 9.4,17.08 c 2.58,-1.81 15.75,-11.08 28.74,-21.17 25.22,-19.6 28.93,-26.05 28.89,-28.16 -0.07,-3.83 -27.54,-43.37 -38.3,-58.54 L 177.77,130.1 211,190.53 a 0.5,0.5 0 0 1 -0.1,0.61 z"
       fill="#231f20"
       id="path38" />
    <polygon
       points="237.45,244.91 197.06,131.7 166.14,137.83 217.72,253.1 "
       fill="#231f20"
       id="polygon40" />
    <path
       d="m 217.72,253.6 a 0.49,0.49 0 0 1 -0.45,-0.3 L 165.69,138 a 0.49,0.49 0 0 1 0,-0.44 0.5,0.5 0 0 1 0.34,-0.26 L 197,131.21 a 0.51,0.51 0 0 1 0.57,0.32 l 40.39,113.21 a 0.5,0.5 0 0 1 -0.28,0.63 l -19.73,8.19 a 0.41,0.41 0 0 1 -0.23,0.04 z M 166.85,138.2 218,252.45 l 18.85,-7.82 -40.1,-112.36 z"
       fill="#231f20"
       id="path42" />
    <path
       d="m 224.89,208.18 a 0.5,0.5 0 0 1 -0.47,-0.33 l -23.14,-62.67 a 0.49,0.49 0 0 1 0.07,-0.47 l 4,-5.41 a 0.51,0.51 0 0 1 0.7,-0.1 0.5,0.5 0 0 1 0.11,0.7 l -3.84,5.18 23,62.42 a 0.49,0.49 0 0 1 -0.29,0.64 0.38,0.38 0 0 1 -0.14,0.04 z"
       fill="#ffffff"
       id="path44" />
    <path
       d="m 181.75,58 a 1.89,1.89 0 0 1 -2.26,-2 L 178.9,46 a 32.39,32.39 0 0 1 0.32,-9.07 c 0.64,-2.86 2.45,-5.81 5.32,-6.36 1,-0.18 2,-0.07 3,-0.32 1.83,-0.47 3.07,-2.11 4.62,-3.19 a 8.62,8.62 0 0 1 8.47,-0.72 15.22,15.22 0 0 0 2.2,1 c 2.42,0.69 4.85,-1 7.35,-1.2 3.78,-0.34 7.12,2.74 8.66,6.2 2.09,4.7 1.16,11.23 -3.44,13.51 -3.62,1.79 -7.42,0.7 -11.16,0.87 -3.93,0.17 -5.69,3.12 -8.57,5.4 a 21.26,21.26 0 0 1 -9.39,4.35 c -1.28,0.22 -1.69,0.78 -2.84,1.16 A 6.11,6.11 0 0 1 181.75,58 Z"
       fill="#ffffff"
       id="path46" />
    <path
       d="M 181.57,58.47 A 2.36,2.36 0 0 1 179,56.06 L 178.4,46 a 32.75,32.75 0 0 1 0.33,-9.21 c 0.65,-2.86 2.49,-6.13 5.72,-6.74 a 11.6,11.6 0 0 1 1.41,-0.14 7.37,7.37 0 0 0 1.52,-0.17 7.71,7.71 0 0 0 3,-1.91 c 0.48,-0.41 1,-0.84 1.49,-1.21 a 9.06,9.06 0 0 1 9,-0.76 l 0.72,0.37 a 7.33,7.33 0 0 0 1.41,0.64 7.4,7.4 0 0 0 4.21,-0.52 14.09,14.09 0 0 1 2.95,-0.7 c 4.17,-0.37 7.61,3 9.17,6.5 2.17,4.88 1.21,11.74 -3.68,14.16 -2.63,1.31 -5.36,1.15 -8,1 a 31.47,31.47 0 0 0 -3.36,-0.08 c -2.71,0.12 -4.3,1.63 -6.15,3.38 -0.67,0.64 -1.36,1.3 -2.14,1.91 a 21.76,21.76 0 0 1 -9.67,4.48 4.53,4.53 0 0 0 -1.51,0.58 7.52,7.52 0 0 1 -1.25,0.56 6.38,6.38 0 0 1 -1.79,0.36 z M 197,26 a 8,8 0 0 0 -4.6,1.41 15.39,15.39 0 0 0 -1.4,1.17 8.59,8.59 0 0 1 -3.38,2.12 9.36,9.36 0 0 1 -1.72,0.2 12.45,12.45 0 0 0 -1.27,0.12 c -2.76,0.52 -4.36,3.43 -4.94,6 a 31.79,31.79 0 0 0 -0.3,8.93 L 180,56 c 0.06,1.07 0.59,1.52 1.74,1.46 v 0 a 5.69,5.69 0 0 0 1.53,-0.31 6.15,6.15 0 0 0 1.09,-0.49 5.35,5.35 0 0 1 1.81,-0.69 20.61,20.61 0 0 0 9.17,-4.24 c 0.75,-0.59 1.42,-1.23 2.08,-1.85 1.9,-1.81 3.7,-3.52 6.78,-3.66 a 33.37,33.37 0 0 1 3.47,0.08 c 2.62,0.15 5.09,0.29 7.49,-0.9 4.37,-2.16 5.19,-8.39 3.21,-12.85 -1.37,-3.08 -4.51,-6.24 -8.17,-5.91 a 13,13 0 0 0 -2.74,0.66 8.26,8.26 0 0 1 -4.78,0.52 8.12,8.12 0 0 1 -1.61,-0.72 c -0.23,-0.12 -0.45,-0.24 -0.68,-0.34 A 7.77,7.77 0 0 0 197,26 Z"
       fill="#231f20"
       id="path48" />
    <path
       d="m 204.9,48.55 c 0,0 2.71,6.73 1.64,7.79 C 205.47,57.4 203,56 203,56"
       fill="#ffffff"
       id="path50" />
    <path
       d="m 205.39,57.25 a 6.38,6.38 0 0 1 -2.67,-0.77 0.51,0.51 0 0 1 -0.2,-0.68 0.49,0.49 0 0 1 0.67,-0.2 c 0.57,0.31 2.35,1 3,0.39 0.44,-0.44 -0.38,-3.83 -1.75,-7.25 a 0.5004498,0.5004498 0 1 1 0.93,-0.37 c 0.85,2.11 2.7,7.16 1.53,8.33 a 2.05,2.05 0 0 1 -1.51,0.55 z"
       fill="#231f20"
       id="path52" />
    <path
       d="m 205.67,40.55 c 2.08,2.55 0.47,6.7 -0.12,9.5 q -1.26,5.88 -2.78,11.72 c -0.65,2.46 -7.11,1.19 -8.1,0.21 l -1.09,8.37 c 0,0 -2.45,4.25 -7.17,0.77 -4.72,-3.48 -5.25,-7.06 -5.25,-7.06 l 2.76,-11.29 c 0,0 4.26,0.91 7.83,-3.66 3.57,-4.57 5.06,-12.39 5.06,-12.39 0,0 6.84,1.35 8.86,3.83 z"
       fill="#ffffff"
       id="path54" />
    <path
       d="m 189.94,73 a 6.53,6.53 0 0 1 -3.83,-1.47 c -4.82,-3.56 -5.42,-7.23 -5.44,-7.39 a 0.61,0.61 0 0 1 0,-0.19 l 2.77,-11.29 a 0.49,0.49 0 0 1 0.58,-0.37 c 0.17,0 4,0.77 7.33,-3.47 3.45,-4.42 5,-12.11 5,-12.19 a 0.55,0.55 0 0 1 0.22,-0.32 0.48,0.48 0 0 1 0.37,-0.07 c 0.29,0.05 7,1.41 9.16,4 v 0 c 1.88,2.31 1,5.69 0.34,8.41 -0.13,0.53 -0.26,1 -0.36,1.5 -0.84,3.92 -1.78,7.88 -2.79,11.75 a 2.32,2.32 0 0 1 -1.83,1.59 11.31,11.31 0 0 1 -6.35,-0.68 l -1,7.61 a 0.55,0.55 0 0 1 -0.06,0.18 5.17,5.17 0 0 1 -3.17,2.3 4.43,4.43 0 0 1 -0.94,0.1 z m -8.27,-8.92 c 0.12,0.55 1,3.65 5,6.65 a 5,5 0 0 0 3.92,1.2 4.13,4.13 0 0 0 2.46,-1.74 l 1.08,-8.26 a 0.51,0.51 0 0 1 0.34,-0.41 0.5,0.5 0 0 1 0.51,0.12 9.78,9.78 0 0 0 6.13,0.89 c 0.65,-0.17 1,-0.47 1.14,-0.88 1,-3.85 1.94,-7.79 2.77,-11.7 0.1,-0.48 0.23,-1 0.37,-1.54 0.63,-2.5 1.42,-5.61 -0.14,-7.53 -1.56,-1.92 -6.53,-3.2 -8.1,-3.56 -0.39,1.83 -1.94,8.12 -5.05,12.11 -3.11,3.99 -6.57,4 -7.84,3.91 z"
       fill="#231f20"
       id="path56" />
    <path
       d="m 203.28,58.82 c 0,0 -3.44,1.25 -4.42,-2.24"
       fill="#ffffff"
       id="path58" />
    <path
       d="m 201.91,59.53 a 3.8,3.8 0 0 1 -1.71,-0.38 3.7,3.7 0 0 1 -1.82,-2.43 0.51790443,0.51790443 0 1 1 1,-0.27 2.72,2.72 0 0 0 1.31,1.81 3.5,3.5 0 0 0 2.44,0.09 0.50152268,0.50152268 0 1 1 0.35,0.94 5.32,5.32 0 0 1 -1.57,0.24 z"
       fill="#231f20"
       id="path60" />
    <path
       d="m 196.84,49.53 a 5.4,5.4 0 0 0 -0.55,-2.93 7.65,7.65 0 0 0 -1.06,-2.07 2.59,2.59 0 0 0 -2,-1.08 2.47,2.47 0 0 0 -1.8,0.9 4.61,4.61 0 0 0 -0.89,1.85 8.63,8.63 0 0 0 2.36,8.29 l -0.17,-0.28"
       fill="#ffffff"
       id="path62" />
    <path
       d="m 192.92,55 a 0.49,0.49 0 0 1 -0.34,-0.14 9.17,9.17 0 0 1 -2.5,-8.78 5.16,5.16 0 0 1 1,-2 2.93,2.93 0 0 1 2.17,-1.08 3.21,3.21 0 0 1 2.38,1.26 8.57,8.57 0 0 1 1.13,2.21 5.93,5.93 0 0 1 0.57,3.2 0.49,0.49 0 0 1 -0.58,0.4 0.5,0.5 0 0 1 -0.4,-0.58 5.07,5.07 0 0 0 -0.52,-2.65 7.16,7.16 0 0 0 -1,-1.95 2.27,2.27 0 0 0 -1.59,-0.89 1.93,1.93 0 0 0 -1.42,0.73 4,4 0 0 0 -0.78,1.65 8.16,8.16 0 0 0 1.82,7.39 0.48,0.48 0 0 1 0.31,0.23 l 0.17,0.28 a 0.51,0.51 0 0 1 -0.11,0.65 0.54,0.54 0 0 1 -0.31,0.07 z"
       fill="#231f20"
       id="path64" />
    <path
       d="m 194.67,62 c 0,0 -3.14,-1.72 -4.22,-4.34 0,0 -1,6 3.77,8.83 z"
       fill="#231f20"
       id="path66" />
    <path
       d="m 194.22,67 a 0.52,0.52 0 0 1 -0.25,-0.07 c -5,-2.93 -4,-9.27 -4,-9.34 a 0.5,0.5 0 0 1 0.44,-0.41 0.5,0.5 0 0 1 0.52,0.3 c 1,2.42 4,4.08 4,4.1 a 0.51,0.51 0 0 1 0.26,0.49 l -0.46,4.48 a 0.48,0.48 0 0 1 -0.27,0.39 0.46,0.46 0 0 1 -0.24,0.06 z m -3.37,-7.63 a 7.87,7.87 0 0 0 3,6.25 l 0.34,-3.34 a 12.37,12.37 0 0 1 -3.34,-2.94 z"
       fill="#231f20"
       id="path68" />
    <ellipse
       cx="203.22"
       cy="45.369999"
       rx="1.4400001"
       ry="0.56"
       transform="rotate(-68.81,203.23153,45.368599)"
       fill="#231f20"
       id="ellipse70" />
    <path
       d="m 174.44,64.8 c 0,0 17.4,0.7 21.86,10.12 4.46,9.42 3,41.72 5.58,44.44 2.58,2.72 8.72,16 8.52,16.55 -0.2,0.55 -46.53,5.58 -46.53,5.58 0,0 -0.52,-10.56 -2.67,-24.54 -2.15,-13.98 0.38,-53.81 13.24,-52.15 z"
       fill="#0e8162"
       id="path72" />
    <path
       d="m 182.13,157.81 a 0.45,0.45 0 0 1 -0.31,-0.11 0.5,0.5 0 0 1 -0.09,-0.7 c 6.29,-7.94 3.06,-12.16 2.92,-12.34 a 0.49,0.49 0 0 1 0.07,-0.7 0.5,0.5 0 0 1 0.7,0.07 c 0.16,0.2 3.91,5 -2.9,13.59 a 0.49,0.49 0 0 1 -0.39,0.19 z"
       fill="#ffffff"
       id="path74" />
    <path
       d="m 168.65,64.75 c 0,0 -26.65,28.95 -31.18,83.15 l 15,-0.31 c 0,0 6.66,-27.86 25.25,-58.45 z"
       fill="#0e8162"
       id="path76" />
    <path
       d="m 208.8,131.75 h -0.1 a 0.52,0.52 0 0 1 -0.4,-0.44 c -0.17,-0.48 -1.76,-3.23 -3.16,-5.65 -2,-3.45 -4.06,-7 -4.46,-8.09 -0.45,-1.24 -1,-10 -1.76,-21.4 -0.32,-5 -0.6,-9.3 -0.76,-10.92 a 59.55,59.55 0 0 0 -2.34,-10.16 0.52347397,0.52347397 0 1 1 1,-0.31 59.31,59.31 0 0 1 2.38,10.37 c 0.17,1.64 0.45,6 0.76,11 0.54,8.41 1.27,19.92 1.71,21.12 0.37,1 2.5,4.68 4.39,7.94 3.36,5.81 3.35,5.89 3.28,6.2 a 0.5,0.5 0 0 1 -0.54,0.34 z"
       fill="#231f20"
       id="path78" />
    <path
       d="m 154.68,138.7 a 0.45,0.45 0 0 1 -0.16,0 0.51,0.51 0 0 1 -0.31,-0.64 c 0.13,-0.36 13,-36.56 26.43,-53.77 a 0.49,0.49 0 0 1 0.7,-0.08 0.49,0.49 0 0 1 0.08,0.7 C 168.06,102 155.28,138 155.16,138.37 a 0.52,0.52 0 0 1 -0.48,0.33 z"
       fill="#231f20"
       id="path80" />
    <path
       d="m 243.91,97.35 c 0.08,-3.6 0.75,-7.37 3,-10.16 0.58,-0.7 1.49,-1.38 2.31,-1 a 2,2 0 0 1 0.95,1.59 5.62,5.62 0 0 0 0.39,1.87"
       fill="#ffffff"
       id="path82" />
    <path
       d="m 243.91,97.85 v 0 a 0.5,0.5 0 0 1 -0.49,-0.51 c 0.1,-4.57 1.12,-8 3.13,-10.46 0.92,-1.13 2,-1.56 2.91,-1.15 a 2.36,2.36 0 0 1 1.23,2 4.26,4.26 0 0 1 0.06,0.5 3.47,3.47 0 0 0 0.28,1.22 0.5,0.5 0 0 1 -0.21,0.67 0.5,0.5 0 0 1 -0.68,-0.21 4.46,4.46 0 0 1 -0.38,-1.57 c 0,-0.15 0,-0.31 -0.06,-0.46 -0.05,-0.36 -0.21,-1 -0.65,-1.2 -0.44,-0.2 -1.27,0.31 -1.72,0.87 -1.87,2.29 -2.82,5.51 -2.91,9.85 a 0.51,0.51 0 0 1 -0.51,0.45 z"
       fill="#231f20"
       id="path84" />
    <path
       d="m 171.69,54.3 a 11.86,11.86 0 0 0 -4.43,-2 10.18,10.18 0 0 0 -6.19,1.51 15.94,15.94 0 0 0 -6.35,5.63 8.59,8.59 0 0 0 -0.55,8.2 9.36,9.36 0 0 0 6.52,4.44 29.5,29.5 0 0 0 8.13,0.17 56.41,56.41 0 0 1 7.8,-0.09 c 5.33,0.4 10.46,2.15 15.7,3.16 3.31,0.63 2,-2.87 0.75,-4.17 q -3.18,-3.21 -6.64,-6.12 A 131.6,131.6 0 0 0 171.69,54.3 Z"
       fill="#0e8162"
       id="path86" />
    <path
       d="m 184.1,73 a 0.56,0.56 0 0 1 -0.27,-0.08 19.33,19.33 0 0 0 -19.48,-0.83 0.5,0.5 0 0 1 -0.51,-0.85 20.31,20.31 0 0 1 20.54,0.84 0.5,0.5 0 0 1 0.14,0.69 0.48,0.48 0 0 1 -0.42,0.23 z"
       fill="#231f20"
       id="path88" />
    <path
       d="m 280.47,36.18 h -42.84 a 4.49,4.49 0 0 0 -4.48,4.49 v 22.86 a 4.49,4.49 0 0 0 4.48,4.47 h 5.18 v 9 L 248,68 h 32.44 A 4.49,4.49 0 0 0 285,63.53 V 40.67 a 4.49,4.49 0 0 0 -4.53,-4.49 z"
       fill="#ffffff"
       id="path90" />
    <path
       d="m 242.81,77.48 a 0.3,0.3 0 0 1 -0.13,0 0.48,0.48 0 0 1 -0.37,-0.48 v -8.48 h -4.68 a 5,5 0 0 1 -5,-5 V 40.67 a 5,5 0 0 1 5,-5 h 42.84 a 5,5 0 0 1 5,5 v 22.86 a 5,5 0 0 1 -5,5 h -32.16 l -5.07,8.71 a 0.48,0.48 0 0 1 -0.43,0.24 z m -5.18,-40.8 a 4,4 0 0 0 -4,4 v 22.85 a 4,4 0 0 0 4,4 h 5.18 a 0.5,0.5 0 0 1 0.5,0.5 v 7.11 l 4.28,-7.36 a 0.52,0.52 0 0 1 0.44,-0.25 h 32.44 a 4,4 0 0 0 4,-4 V 40.67 a 4,4 0 0 0 -4,-4 z"
       fill="#d1d3d4"
       id="path92" />
    <g
       id="_5xpas6.tif"
       data-name="5xpas6.tif">
      <path
         d="m 259,59.64 h -7.88 a 0.55,0.55 0 0 1 -0.58,-0.48 0.54,0.54 0 0 1 0.1,-0.41 c 0.32,-0.47 0.64,-0.94 0.94,-1.42 a 7.8,7.8 0 0 0 1.17,-2.86 3.6,3.6 0 0 0 0,-0.66 v -4.26 a 6.94,6.94 0 0 1 0.4,-2.39 5.49,5.49 0 0 1 1.49,-2.29 5.84,5.84 0 0 1 2.52,-1.38 c 0.09,0 0.12,-0.05 0.12,-0.14 0,-0.09 0,-0.45 0,-0.67 a 1.69,1.69 0 0 1 3.36,-0.25 6.76,6.76 0 0 1 0,0.9 c 0,0.1 0,0.14 0.13,0.17 a 5.69,5.69 0 0 1 3.86,3.35 6.1,6.1 0 0 1 0.51,2.27 c 0,0.82 0,1.65 0,2.47 0,0.82 0,1.45 0,2.18 a 5.18,5.18 0 0 0 0.5,2.22 15.79,15.79 0 0 0 1.44,2.44 l 0.22,0.32 a 0.55,0.55 0 0 1 0,0.6 0.54,0.54 0 0 1 -0.51,0.29 z m 0.58,-16.37 c 0,-0.19 0,-0.39 0,-0.59 a 0.56,0.56 0 0 0 -0.53,-0.56 0.55,0.55 0 0 0 -0.58,0.46 5.3,5.3 0 0 0 0,0.69 z"
         fill="#d1d3d4"
         id="path94" />
      <path
         d="m 261.61,60.78 a 2.79,2.79 0 0 1 -5.13,0 z"
         fill="#d1d3d4"
         id="path96" />
    </g>
    <circle
       cx="280.67999"
       cy="66.019997"
       r="6.9899998"
       fill="#ffffff"
       id="circle99" />
    <path
       d="m 280.68,73.51 a 7.49,7.49 0 1 1 7.49,-7.51 7.5,7.5 0 0 1 -7.49,7.51 z m 0,-14 a 6.49,6.49 0 1 0 6.49,6.49 6.5,6.5 0 0 0 -6.49,-6.47 z"
       fill="#d1d3d4"
       id="path101" />
    <path
       d="m 280.24,63.31 -1.68,1.38 -0.84,-1 2.65,-2.14 h 1.31 v 8.5 h -1.44 z"
       fill="#d1d3d4"
       id="path103" />
  </g>
</svg>
