<?xml version="1.0" encoding="UTF-8" standalone="no"?>
<svg
   xmlns:dc="http://purl.org/dc/elements/1.1/"
   xmlns:cc="http://creativecommons.org/ns#"
   xmlns:rdf="http://www.w3.org/1999/02/22-rdf-syntax-ns#"
   xmlns:svg="http://www.w3.org/2000/svg"
   xmlns="http://www.w3.org/2000/svg"
   viewBox="0 0 305.53 214.3009"
   version="1.1"
   id="svg165"
   width="305.53"
   height="214.3009">
  <metadata
     id="metadata171">
    <rdf:RDF>
      <cc:Work
         rdf:about="">
        <dc:format>image/svg+xml</dc:format>
        <dc:type
           rdf:resource="http://purl.org/dc/dcmitype/StillImage" />
        <dc:title></dc:title>
      </cc:Work>
    </rdf:RDF>
  </metadata>
  <defs
     id="defs169" />
  <g
     id="_532_sending_emails_flatline"
     data-name="#532_sending_emails_flatline"
     transform="translate(-50.32,-42.85)">
    <polygon
       points="86.74,256.65 86.74,135.89 198.23,68.48 309.71,135.89 309.71,256.65 "
       fill="#f1f2f2"
       id="polygon2" />
    <path
       d="m 309.71,257.15 h -223 a 0.5,0.5 0 0 1 -0.5,-0.5 V 135.89 a 0.5,0.5 0 0 1 0.25,-0.43 L 198,68.05 a 0.49,0.49 0 0 1 0.52,0 L 310,135.46 a 0.5,0.5 0 0 1 0.24,0.43 v 120.76 a 0.5,0.5 0 0 1 -0.53,0.5 z m -222.47,-1 h 222 v -120 l -111,-67.11 -111,67.11 z"
       fill="#231f20"
       id="path4" />
    <path
       d="m 246.65,85.61 c 0,0 5.15,-9.62 4.48,-16 -0.67,-6.38 -7,-7.52 -7,-7.52 0,0 -15.27,-7.95 -18.81,-13.46 l 0.12,8.06 a 22.45,22.45 0 0 1 -7.53,-4.39 c 0,0 -2.38,4.11 0.19,7.77 0,0 -4.5,0.88 -7.46,-2.1 0,0 1.51,12.1 12.18,13.66 7.03,0.98 16.18,14.45 23.83,13.98 z"
       fill="#ffffff"
       id="path6" />
    <path
       d="m 246.26,86.12 c -4.22,0 -8.75,-3.8 -13.13,-7.47 -3.76,-3.15 -7.3,-6.13 -10.36,-6.57 -10.92,-1.6 -12.59,-14 -12.61,-14.1 a 0.5,0.5 0 0 1 0.85,-0.41 8.12,8.12 0 0 0 6.26,2 c -2,-3.67 0.13,-7.45 0.23,-7.61 a 0.49,0.49 0 0 1 0.75,-0.14 24.54,24.54 0 0 0 6.7,4.08 l -0.11,-7.35 a 0.48,0.48 0 0 1 0.35,-0.48 0.5,0.5 0 0 1 0.57,0.2 c 3.32,5.16 17.5,12.69 18.56,13.25 0.77,0.17 6.64,1.64 7.31,8 0.68,6.51 -4.33,15.94 -4.54,16.34 a 0.5,0.5 0 0 1 -0.41,0.26 z m 0.39,-0.51 z M 211.42,59.2 c 0.76,3.12 3.42,10.7 11.5,11.89 3.33,0.49 7,3.55 10.85,6.79 4.25,3.56 8.63,7.24 12.49,7.24 h 0.08 c 0.79,-1.55 4.88,-9.87 4.29,-15.51 -0.62,-6 -6.33,-7 -6.57,-7.08 l -0.14,-0.05 c -0.59,-0.3 -13.36,-7 -18.06,-12.39 l 0.1,6.54 a 0.51,0.51 0 0 1 -0.19,0.4 0.5,0.5 0 0 1 -0.44,0.09 22.07,22.07 0 0 1 -7.22,-4.12 6.82,6.82 0 0 0 0.42,6.7 0.54,0.54 0 0 1 0.05,0.48 0.5,0.5 0 0 1 -0.37,0.3 9.87,9.87 0 0 1 -6.79,-1.28 z"
       fill="#231f20"
       id="path8" />
    <path
       d="m 238.73,185.2 c 0,0 24.61,-29.81 28.68,-52.58 4.07,-22.77 -10.15,-28 -15.11,-29.7 -4.96,-1.7 -30.81,-12.42 -43.79,-3.06 -12.98,9.36 -25.91,67.75 -25.91,67.75 z"
       fill="#0e8162"
       id="path10" />
    <path
       d="m 150,214.87 26.47,-33 c 0,0 18.42,-23.49 8.13,-26 0,0 -14.28,1.86 -37.61,10 -6.93,2.41 -18.84,29.93 -26.36,49 z"
       fill="#231f20"
       id="path12" />
    <path
       d="m 150,215.37 h -29.42 a 0.49,0.49 0 0 1 -0.41,-0.22 0.5,0.5 0 0 1 0,-0.46 c 8.34,-21.16 19.74,-46.9 26.66,-49.31 23.1,-8 37.56,-10 37.71,-10 h 0.18 a 4.18,4.18 0 0 1 3.21,2.72 c 2.37,6.8 -10.51,23.34 -11.06,24 l -26.48,33 a 0.5,0.5 0 0 1 -0.39,0.27 z m -28.63,-1 h 28.39 L 176,181.52 c 0.13,-0.16 13.09,-16.8 10.91,-23.08 a 3.15,3.15 0 0 0 -2.42,-2.05 c -1.26,0.17 -15.38,2.27 -37.41,9.94 -5.08,1.77 -14.2,18.82 -25.76,48.04 z"
       fill="#231f20"
       id="path14" />
    <path
       d="m 194.33,214.87 6.72,-16.37 c 0,0 16.4,4.91 27.34,0.79 7.7,-2.9 10.05,-12.85 13.53,-20.91 0,0 -46,-10.9 -56.27,-15.34 0,0 -0.64,0 -12.41,12.36 -5.26,5.55 -9.45,22.46 -12.47,39.47 z"
       fill="#231f20"
       id="path16" />
    <path
       d="m 194.33,215.37 h -33.56 a 0.5,0.5 0 0 1 -0.39,-0.18 0.52,0.52 0 0 1 -0.11,-0.4 c 3.84,-21.6 8.09,-35 12.61,-39.73 11.92,-12.56 12.56,-12.53 12.79,-12.52 a 0.58,0.58 0 0 1 0.18,0 C 196,167 241.58,177.79 242,177.9 a 0.51,0.51 0 0 1 0.33,0.26 0.51,0.51 0 0 1 0,0.42 c -0.65,1.5 -1.27,3.1 -1.87,4.64 -2.69,6.93 -5.48,14.1 -11.95,16.54 -10.1,3.8 -24.48,0.1 -27.22,-0.66 l -6.55,16 a 0.49,0.49 0 0 1 -0.41,0.27 z m -33,-1 H 194 l 6.6,-16.06 a 0.49,0.49 0 0 1 0.6,-0.29 c 0.17,0 16.37,4.81 27,0.8 6,-2.27 8.75,-9.23 11.37,-16 0.53,-1.37 1.08,-2.78 1.65,-4.13 -5.31,-1.27 -45.51,-10.93 -55.53,-15.13 -0.57,0.43 -2.93,2.5 -12.1,12.15 -4.27,4.55 -8.5,17.9 -12.23,38.66 z"
       fill="#231f20"
       id="path18" />
    <path
       d="m 208.51,99.86 c 0,0 -11,12 -17.14,18 -6.14,6 -18.18,13.77 -18.18,13.77 0,0 -35.9,2.89 -36.28,3.46 -0.38,0.57 0,12.49 0,12.49 0,0 35.08,6.73 41.48,5.57 6.4,-1.16 21.5,-11.31 21.5,-11.31 z"
       fill="#0e8162"
       id="path20" />
    <path
       d="m 223.79,93.9 -1.11,11.29 c 0,0 2,6.48 9.62,5.32 7.62,-1.16 9,-6.38 9,-6.38 l 4.94,-22.06 c 0,0 -4.57,-3.3 -8.88,-16.2 0,0 -15.92,-3 -16.47,3.14 0,0 -3.14,11 -2.91,16.81 0.21,5.65 5.71,7.99 5.81,8.08 z"
       fill="#ffffff"
       id="path22" />
    <path
       d="m 230.55,111.15 a 8.8,8.8 0 0 1 -8.34,-5.81 0.41,0.41 0 0 1 0,-0.19 l 1.06,-11 c -3.57,-1.94 -5.65,-5 -5.78,-8.36 -0.23,-5.84 2.8,-16.51 2.93,-17 a 3.51,3.51 0 0 1 1.49,-2.54 c 4,-3.06 15.09,-1 15.55,-1 a 0.52,0.52 0 0 1 0.39,0.34 c 4.18,12.53 8.65,15.92 8.7,16 a 0.51,0.51 0 0 1 0.19,0.51 l -4.94,22.06 c -0.07,0.25 -1.6,5.57 -9.41,6.77 a 13.17,13.17 0 0 1 -1.84,0.22 z m -7.36,-6 c 0.28,0.78 2.38,5.9 9,4.88 7.17,-1.1 8.58,-6 8.59,-6 l 4.87,-21.73 c -1.05,-0.91 -5,-4.87 -8.71,-16 -1.76,-0.3 -11.12,-1.74 -14.48,0.81 a 2.6,2.6 0 0 0 -1.11,1.93 c 0,0.2 -3.13,11 -2.91,16.74 0.17,4.26 3.47,6.59 5.42,7.59 a 1.28,1.28 0 0 1 0.24,0.15 0.49,0.49 0 0 1 0.15,0.41 z"
       fill="#231f20"
       id="path24" />
    <path
       d="m 240.76,82.45 a 4.89,4.89 0 0 1 1.87,-2.45 6.13,6.13 0 0 1 4.55,-1.12 c 1.85,0.52 2.79,2.78 2.39,4.66 a 6.81,6.81 0 0 1 -4.36,4.95 5.93,5.93 0 0 1 -4.52,-0.48"
       fill="#ffffff"
       id="path26" />
    <path
       d="m 243.54,89.23 a 6.39,6.39 0 0 1 -3.09,-0.78 0.50119856,0.50119856 0 1 1 0.48,-0.88 5.47,5.47 0 0 0 4.14,0.44 6.3,6.3 0 0 0 4,-4.57 c 0.33,-1.57 -0.42,-3.63 -2,-4.07 a 5.55,5.55 0 0 0 -4.14,1 4.29,4.29 0 0 0 -1.67,2.19 0.52497619,0.52497619 0 1 1 -1,-0.32 5.36,5.36 0 0 1 2.06,-2.7 6.55,6.55 0 0 1 5,-1.19 c 2.18,0.6 3.18,3.2 2.75,5.24 a 7.33,7.33 0 0 1 -4.72,5.41 6.19,6.19 0 0 1 -1.81,0.23 z"
       fill="#231f20"
       id="path28" />
    <path
       d="m 229.61,76.92 c 0,0 -4.58,5.31 -3.78,6.43 0.8,1.12 3.45,0.76 3.45,0.76"
       fill="#ffffff"
       id="path30" />
    <path
       d="m 228.35,84.67 a 3.66,3.66 0 0 1 -2.93,-1 c -0.89,-1.25 2,-5 3.81,-7 a 0.5,0.5 0 0 1 0.75,0.65 c -2.2,2.56 -3.95,5.28 -3.74,5.83 0.45,0.62 2.07,0.66 3,0.54 a 0.5042073,0.5042073 0 0 1 0.13,1 9,9 0 0 1 -1.02,-0.02 z"
       fill="#231f20"
       id="path32" />
    <ellipse
       cx="236.99001"
       cy="76.089996"
       rx="1.36"
       ry="0.95999998"
       transform="rotate(-80.81,236.98884,76.096378)"
       fill="#231f20"
       id="ellipse34" />
    <ellipse
       cx="225.37"
       cy="75.349998"
       rx="0.95999998"
       ry="1.36"
       transform="rotate(-1.99,225.90485,75.341607)"
       fill="#231f20"
       id="ellipse36" />
    <path
       d="m 223.79,93.9 c 0,0 6.86,2.31 11.23,0.35 0,0 -5.5,9 -12,7.39 z"
       fill="#231f20"
       id="path38" />
    <path
       d="m 224.64,102.34 a 6.94,6.94 0 0 1 -1.73,-0.21 0.51,0.51 0 0 1 -0.38,-0.53 l 0.76,-7.74 a 0.52,0.52 0 0 1 0.22,-0.38 0.5,0.5 0 0 1 0.43,0 c 0.07,0 6.74,2.22 10.88,0.36 a 0.51,0.51 0 0 1 0.58,0.13 0.5,0.5 0 0 1 0,0.59 c -0.16,0.3 -4.8,7.78 -10.76,7.78 z m -1.07,-1.09 c 4.49,0.79 8.5,-3.78 10.18,-6 -3.59,0.88 -7.95,-0.19 -9.53,-0.65 z"
       fill="#231f20"
       id="path40" />
    <path
       d="m 223.88,78.91 h -0.33 l -3.69,-0.29 a 4,4 0 0 1 -3.67,-4.3 l 0.24,-3 a 0.5,0.5 0 0 1 0.54,-0.45 l 10.66,0.84 a 0.52,0.52 0 0 1 0.34,0.18 0.48,0.48 0 0 1 0.12,0.36 l -0.24,3 a 4,4 0 0 1 -4,3.67 z m -6.49,-7 -0.2,2.46 a 3,3 0 0 0 2.75,3.22 l 3.69,0.29 v 0 a 2.92,2.92 0 0 0 2.18,-0.7 3,3 0 0 0 1.05,-2 l 0.19,-2.46 z"
       fill="#231f20"
       id="path42" />
    <path
       d="m 237.14,80 h -0.33 l -3.69,-0.3 a 4,4 0 0 1 -3.67,-4.3 l 0.24,-3 a 0.5,0.5 0 0 1 0.54,-0.46 l 10.66,0.85 a 0.49,0.49 0 0 1 0.45,0.53 l -0.23,3 a 4,4 0 0 1 -4,3.68 z m -0.25,-1 a 3,3 0 0 0 2.18,-0.71 3,3 0 0 0 1,-2 l 0.2,-2.46 -9.63,-0.83 -0.19,2.45 a 3,3 0 0 0 2.75,3.22 z"
       fill="#231f20"
       id="path44" />
    <path
       d="m 230,74.82 v 0 l -2.6,-0.21 a 0.5,0.5 0 0 1 -0.46,-0.54 0.52,0.52 0 0 1 0.54,-0.46 l 2.6,0.21 a 0.5,0.5 0 0 1 0,1 z"
       fill="#231f20"
       id="path46" />
    <path
       d="m 228.39,92.46 c -3.13,0 -5.6,-2.42 -6.59,-5.24 a 0.5,0.5 0 0 1 0.08,-0.47 0.44,0.44 0 0 1 0.42,-0.2 30.31,30.31 0 0 0 12.52,-2 0.5,0.5 0 0 1 0.49,0.05 0.49,0.49 0 0 1 0.21,0.45 c 0,0.23 -0.52,5.72 -5.35,7.1 a 6.24,6.24 0 0 1 -1.78,0.31 z M 223,87.58 c 1.05,2.21 3.48,4.64 6.87,3.66 3.12,-0.89 4.16,-3.91 4.49,-5.39 A 31.92,31.92 0 0 1 223,87.58 Z"
       fill="#231f20"
       id="path48" />
    <path
       d="m 265.11,112.18 c 5.82,2.73 15.27,66.69 5,71 -16,6.67 -59.31,-16 -59.31,-16 l 8.52,-16.77 c 0,0 29.42,8.76 31.46,2.78 2.04,-5.98 -8.06,-38.87 -4.62,-42.45 3.44,-3.58 18.95,1.44 18.95,1.44 z"
       fill="#0e8162"
       id="path50" />
    <path
       d="m 220.93,157.18 a 69.94,69.94 0 0 1 -14.55,-4.67 c -3.58,-1.71 -6.67,-3.35 -10.66,-4.21 a 42.9,42.9 0 0 0 -15.07,-0.56 1.25,1.25 0 0 0 -0.57,0.19 c -0.59,0.5 0.28,1.36 1,1.59 a 20.26,20.26 0 0 0 6,0.82 57.53,57.53 0 0 0 -15,3.45 c -0.55,0.21 -1.2,0.6 -1.11,1.17 0.09,0.57 1.05,0.74 1.73,0.63 l 11.9,-2 a 27.61,27.61 0 0 0 -8.76,2.56 c -0.39,0.19 -0.84,0.47 -0.86,0.91 0,0.76 1.06,0.9 1.81,0.75 a 64.08,64.08 0 0 0 10.7,-3.15 l -7.89,3.25 a 1.05,1.05 0 0 0 0.76,1.29 3.12,3.12 0 0 0 1.65,-0.13 l 8.43,-2.26 -5.41,2 c -0.85,0.31 -1.88,0.89 -1.74,1.79 0.16,1.06 1.63,1.14 2.69,1 a 57.15,57.15 0 0 1 12.67,-0.47 c 1.55,0.09 3.1,-0.17 4.58,0.28 2.13,0.65 4.28,2.19 6.26,3.23 3.1,1.62 6.19,3.27 9.28,4.92"
       fill="#ffffff"
       id="path52" />
    <path
       d="m 218.81,169.94 a 0.44,0.44 0 0 1 -0.22,-0.05 q -4.62,-2.47 -9.28,-4.92 c -0.62,-0.32 -1.26,-0.7 -1.91,-1.09 a 21.09,21.09 0 0 0 -4.27,-2.1 9.51,9.51 0 0 0 -2.89,-0.25 c -0.53,0 -1.05,0 -1.58,0 a 56.29,56.29 0 0 0 -12.57,0.47 3.87,3.87 0 0 1 -2.62,-0.37 1.45,1.45 0 0 1 -0.59,-1 1.6,1.6 0 0 1 0.59,-1.48 l -1.3,0.35 a 3.39,3.39 0 0 1 -1.91,0.12 1.69,1.69 0 0 1 -1,-0.87 1.23,1.23 0 0 1 0,-1 c -0.77,0.18 -1.53,0.35 -2.3,0.51 a 2.52,2.52 0 0 1 -2,-0.34 1.07,1.07 0 0 1 -0.37,-0.88 c 0,-0.78 0.82,-1.16 1.11,-1.3 l 0.58,-0.27 -3.45,0.58 a 2.56,2.56 0 0 1 -1.79,-0.26 1.13,1.13 0 0 1 -0.46,-0.75 c -0.06,-0.4 0,-1.15 1.4,-1.66 a 57.51,57.51 0 0 1 10.93,-3 19.17,19.17 0 0 1 -1.91,-0.38 2.24,2.24 0 0 1 -1.52,-1.42 1,1 0 0 1 0.34,-0.95 1.57,1.57 0 0 1 0.79,-0.29 43.13,43.13 0 0 1 15.23,0.56 40.53,40.53 0 0 1 9.49,3.64 l 1.28,0.61 a 70.62,70.62 0 0 0 14.39,4.58 0.46,0.46 0 0 1 0.34,0.55 0.45,0.45 0 0 1 -0.55,0.34 71.94,71.94 0 0 1 -14.64,-4.69 l -1.28,-0.62 a 40,40 0 0 0 -9.29,-3.56 42,42 0 0 0 -14.91,-0.55 0.64,0.64 0 0 0 -0.33,0.09 c 0,0.28 0.43,0.66 0.85,0.79 a 20,20 0 0 0 5.86,0.8 v 0 a 0.46,0.46 0 0 1 0,0.91 57.34,57.34 0 0 0 -14.86,3.43 c -0.4,0.15 -0.86,0.42 -0.82,0.67 a 0.21,0.21 0 0 0 0.09,0.15 1.7,1.7 0 0 0 1.11,0.1 l 9.21,-1.56 a 27.37,27.37 0 0 1 2.71,-0.46 0.47,0.47 0 0 1 0.51,0.39 0.46,0.46 0 0 1 -0.38,0.52 l -2.67,0.45 a 27.18,27.18 0 0 0 -6,2.07 c -0.49,0.24 -0.6,0.42 -0.6,0.52 a 0.17,0.17 0 0 0 0.06,0.15 1.69,1.69 0 0 0 1.19,0.13 63.63,63.63 0 0 0 10.64,-3.13 0.46,0.46 0 0 1 0.59,0.25 0.47,0.47 0 0 1 -0.25,0.6 l -7.66,3.16 a 0.22,0.22 0 0 0 0,0.13 0.77,0.77 0 0 0 0.44,0.39 2.61,2.61 0 0 0 1.4,-0.13 l 8.43,-2.27 a 0.46,0.46 0 0 1 0.27,0.87 l -5.4,2 c -0.47,0.17 -1.55,0.64 -1.45,1.29 a 0.55,0.55 0 0 0 0.23,0.38 2.87,2.87 0 0 0 1.93,0.21 57,57 0 0 1 12.78,-0.48 c 0.5,0 1,0 1.51,0 a 10.09,10.09 0 0 1 3.17,0.29 20.7,20.7 0 0 1 4.46,2.19 c 0.64,0.37 1.27,0.74 1.88,1.06 q 4.65,2.44 9.28,4.92 a 0.45,0.45 0 0 1 0.19,0.62 0.44,0.44 0 0 1 -0.23,0.24 z"
       fill="#231f20"
       id="path54" />
    <path
       d="m 210.34,105.75 c -2.07,1.21 -13.17,26.17 -18,38.08"
       fill="#ffffff"
       id="path56" />
    <path
       d="m 192.37,144.29 a 0.46,0.46 0 0 1 -0.43,-0.63 c 4.37,-10.83 15.81,-36.93 18.17,-38.31 a 0.46,0.46 0 1 1 0.47,0.79 c -1.77,1 -12.33,24.33 -17.79,37.86 a 0.45,0.45 0 0 1 -0.42,0.29 z"
       fill="#231f20"
       id="path58" />
    <polygon
       points="195.48,186.75 195.68,181.41 131.2,153.74 130.63,158.82 "
       fill="#ffffff"
       id="polygon60" />
    <path
       d="m 195.48,187.25 a 0.45,0.45 0 0 1 -0.2,0 l -64.85,-27.93 a 0.5,0.5 0 0 1 -0.3,-0.52 l 0.57,-5.08 a 0.47,0.47 0 0 1 0.25,-0.37 0.48,0.48 0 0 1 0.45,0 L 195.88,181 a 0.49,0.49 0 0 1 0.3,0.48 l -0.2,5.34 a 0.52,0.52 0 0 1 -0.24,0.41 0.48,0.48 0 0 1 -0.26,0.02 z M 131.16,158.51 195,186 l 0.17,-4.28 -63.55,-27.27 z"
       fill="#231f20"
       id="path62" />
    <path
       d="m 131.2,153.74 c 0,0 18.89,-9.06 19.37,-8.8 0.48,0.26 67.29,27 67.29,27 l -22.18,9.47 z"
       fill="#ffffff"
       id="path64" />
    <path
       d="m 195.68,181.91 a 0.48,0.48 0 0 1 -0.2,0 L 131,154.2 a 0.5,0.5 0 0 1 -0.3,-0.45 0.49,0.49 0 0 1 0.28,-0.46 c 19.13,-9.18 19.55,-8.95 19.83,-8.79 1,0.45 66.58,26.71 67.24,27 a 0.48,0.48 0 0 1 0.31,0.46 0.49,0.49 0 0 1 -0.3,0.46 l -22.18,9.47 a 0.48,0.48 0 0 1 -0.2,0.02 z m -63.27,-28.2 63.27,27.16 20.87,-8.87 c -10.32,-4.14 -62.76,-25.13 -66.06,-26.51 -1.3,0.3 -11.3,4.98 -18.08,8.22 z"
       fill="#231f20"
       id="path66" />
    <polygon
       points="217.86,171.94 195.68,181.41 195.48,186.75 217.03,176.72 "
       fill="#ffffff"
       id="polygon68" />
    <path
       d="m 195.48,187.25 a 0.46,0.46 0 0 1 -0.28,-0.08 0.48,0.48 0 0 1 -0.22,-0.44 l 0.2,-5.34 a 0.52,0.52 0 0 1 0.3,-0.44 l 22.19,-9.47 a 0.48,0.48 0 0 1 0.5,0.07 0.47,0.47 0 0 1 0.18,0.48 l -0.82,4.77 a 0.53,0.53 0 0 1 -0.28,0.37 l -21.56,10 a 0.52,0.52 0 0 1 -0.21,0.08 z m 0.69,-5.5 -0.17,4.25 20.58,-9.58 0.62,-3.62 z"
       fill="#231f20"
       id="path70" />
    <polygon
       points="197.76,137.98 195.68,181.41 131.2,153.74 129.87,106.81 "
       fill="#ffffff"
       id="polygon72" />
    <path
       d="m 195.68,181.91 a 0.48,0.48 0 0 1 -0.2,0 L 131,154.2 a 0.49,0.49 0 0 1 -0.3,-0.45 l -1.34,-46.93 a 0.5,0.5 0 0 1 0.23,-0.43 0.49,0.49 0 0 1 0.48,0 L 198,137.53 a 0.48,0.48 0 0 1 0.29,0.47 l -2.08,43.43 a 0.5,0.5 0 0 1 -0.23,0.4 0.45,0.45 0 0 1 -0.3,0.08 z m -64,-28.51 63.53,27.27 2,-42.38 -66.82,-30.69 z"
       fill="#231f20"
       id="path74" />
    <path
       d="m 231.83,179 a 0.54,0.54 0 0 1 -0.21,0 l -13.73,-6.33 a 0.5,0.5 0 0 1 -0.28,-0.57 l 4.15,-17.36 a 0.49,0.49 0 0 1 0.57,-0.38 l 26.84,4.3 -0.88,-42.54 a 0.49,0.49 0 0 1 0.49,-0.51 v 0 a 0.51,0.51 0 0 1 0.5,0.49 l 0.89,43.14 a 0.48,0.48 0 0 1 -0.18,0.38 0.49,0.49 0 0 1 -0.4,0.12 l -27,-4.32 -3.95,16.51 L 232,178 a 0.49,0.49 0 0 1 0.24,0.66 0.49,0.49 0 0 1 -0.41,0.34 z"
       fill="#231f20"
       id="path76" />
    <path
       d="m 112.84,214.87 c -2.33,-1.76 -5.12,-2.69 -7.09,0 z"
       fill="#ffffff"
       id="path78" />
    <path
       d="m 112.84,215.33 h -7.09 a 0.47,0.47 0 0 1 -0.41,-0.25 0.46,0.46 0 0 1 0,-0.48 4.23,4.23 0 0 1 2.82,-1.83 c 1.45,-0.22 3.11,0.37 4.92,1.74 a 0.47,0.47 0 0 1 0.16,0.51 0.48,0.48 0 0 1 -0.4,0.31 z m -6.07,-0.91 h 4.55 a 4.86,4.86 0 0 0 -3,-0.75 3,3 0 0 0 -1.55,0.75 z"
       fill="#231f20"
       id="path80" />
    <path
       d="m 163.93,199.85 h -0.08 a 0.5,0.5 0 0 1 -0.41,-0.57 c 0.08,-0.5 2,-12.24 5.71,-18.2 a 0.5,0.5 0 0 1 0.85,0.52 c -3.57,5.79 -5.56,17.72 -5.58,17.84 a 0.49,0.49 0 0 1 -0.49,0.41 z"
       fill="#ffffff"
       id="path82" />
    <polygon
       points="214,142.37 217.63,151.76 225.59,144.97 228.86,116.09 230.55,114.35 228.81,111.44 225.73,112.69 226.75,116.11 "
       fill="#231f20"
       id="polygon84" />
    <polygon
       points="86.74,256.65 86.74,135.89 198.23,211.81 309.71,135.89 309.71,256.65 "
       fill="#ffffff"
       id="polygon86" />
    <path
       d="m 309.71,257.15 h -223 a 0.5,0.5 0 0 1 -0.5,-0.5 V 135.89 a 0.49,0.49 0 0 1 0.27,-0.44 0.51,0.51 0 0 1 0.52,0 l 111.2,75.74 111.2,-75.74 a 0.49,0.49 0 0 1 0.51,0 0.48,0.48 0 0 1 0.27,0.44 v 120.76 a 0.5,0.5 0 0 1 -0.47,0.5 z m -222.47,-1 h 222 V 136.83 l -110.7,75.4 a 0.52,0.52 0 0 1 -0.56,0 L 87.24,136.83 Z"
       fill="#231f20"
       id="path88" />
    <path
       d="m 198.23,212.31 a 0.54,0.54 0 0 1 -0.28,-0.08 L 86.46,136.3 a 0.5,0.5 0 0 1 -0.13,-0.69 0.51,0.51 0 0 1 0.7,-0.14 l 111.2,75.74 111.2,-75.74 a 0.5,0.5 0 0 1 0.69,0.14 0.49,0.49 0 0 1 -0.13,0.69 l -111.48,75.93 a 0.57,0.57 0 0 1 -0.28,0.08 z"
       fill="#231f20"
       id="path90" />
    <polygon
       points="309.71,256.65 86.74,256.65 198.22,187.16 "
       fill="#ffffff"
       id="polygon92" />
    <path
       d="m 309.71,257.15 h -223 a 0.5,0.5 0 0 1 -0.48,-0.36 0.49,0.49 0 0 1 0.22,-0.56 L 198,186.74 a 0.51,0.51 0 0 1 0.53,0 L 310,256.23 a 0.49,0.49 0 0 1 0.22,0.56 0.5,0.5 0 0 1 -0.51,0.36 z m -221.22,-1 H 308 l -109.73,-68.4 z"
       fill="#231f20"
       id="path94" />
    <rect
       x="258.39001"
       y="204.08"
       width="64.330002"
       height="35.66"
       transform="rotate(-14.34,290.5251,221.91086)"
       fill="#0e8162"
       id="rect96" />
    <path
       d="m 263.81,247.65 a 0.59,0.59 0 0 1 -0.26,-0.07 0.56,0.56 0 0 1 -0.23,-0.31 l -8.83,-34.55 a 0.51,0.51 0 0 1 0.36,-0.61 l 62.33,-15.93 a 0.55,0.55 0 0 1 0.38,0 0.48,0.48 0 0 1 0.23,0.31 l 8.83,34.55 a 0.5,0.5 0 0 1 -0.36,0.61 l -62.33,15.93 z m -8.22,-34.65 8.58,33.58 61.36,-15.69 -8.53,-33.62 z"
       fill="#231f20"
       id="path98" />
    <polygon
       points="326.14,231.21 263.81,247.15 290.02,219.8 "
       fill="#0e8162"
       id="polygon100" />
    <path
       d="m 263.81,247.65 a 0.5,0.5 0 0 1 -0.43,-0.25 0.48,0.48 0 0 1 0.07,-0.6 l 26.21,-27.34 a 0.51,0.51 0 0 1 0.51,-0.14 l 36.12,11.42 a 0.5,0.5 0 0 1 0.35,0.49 0.51,0.51 0 0 1 -0.38,0.47 l -62.33,15.93 z m 26.36,-27.28 -24.79,25.86 58.94,-15.07 z"
       fill="#231f20"
       id="path102" />
    <polygon
       points="317.31,196.66 254.98,212.6 291.54,225.74 "
       fill="#0e8162"
       id="polygon104" />
    <path
       d="m 291.54,226.24 a 0.47,0.47 0 0 1 -0.17,0 L 254.81,213.1 a 0.5,0.5 0 0 1 -0.33,-0.49 0.51,0.51 0 0 1 0.37,-0.47 l 62.33,-15.93 a 0.51,0.51 0 0 1 0.55,0.22 0.5,0.5 0 0 1 -0.05,0.6 l -25.77,29.07 a 0.48,0.48 0 0 1 -0.37,0.14 z m -34.86,-13.56 34.71,12.47 24.46,-27.6 z"
       fill="#231f20"
       id="path106" />
    <rect
       x="316.66"
       y="168.32001"
       width="36.639999"
       height="20.309999"
       transform="rotate(-13.89,335.00529,178.48179)"
       fill="#0e8162"
       id="rect108" />
    <path
       d="m 319.63,193.23 a 0.51,0.51 0 0 1 -0.49,-0.38 l -4.87,-19.71 a 0.51,0.51 0 0 1 0.36,-0.61 l 35.57,-8.79 a 0.48,0.48 0 0 1 0.6,0.36 l 4.88,19.71 a 0.5,0.5 0 0 1 -0.06,0.38 0.48,0.48 0 0 1 -0.31,0.23 l -35.56,8.79 z m -4.27,-19.85 4.64,18.74 34.59,-8.55 -4.59,-18.74 z"
       fill="#231f20"
       id="path110" />
    <polygon
       points="355.19,183.93 319.63,192.73 334.68,177.27 "
       fill="#0e8162"
       id="polygon112" />
    <path
       d="m 319.63,193.23 a 0.48,0.48 0 0 1 -0.43,-0.25 0.5,0.5 0 0 1 0.07,-0.6 l 15.05,-15.45 a 0.49,0.49 0 0 1 0.51,-0.13 l 20.52,6.66 a 0.5,0.5 0 0 1 0,1 l -35.56,8.79 z m 15.19,-15.38 -13.61,14 32.16,-7.95 z"
       fill="#231f20"
       id="path114" />
    <polygon
       points="350.32,164.22 314.75,173.02 335.51,180.66 "
       fill="#0e8162"
       id="polygon116" />
    <path
       d="m 335.52,181.16 a 0.57,0.57 0 0 1 -0.18,0 l -20.76,-7.64 a 0.5,0.5 0 0 1 -0.32,-0.5 0.49,0.49 0 0 1 0.37,-0.46 l 35.57,-8.79 a 0.5,0.5 0 0 1 0.55,0.22 0.51,0.51 0 0 1 -0.06,0.6 L 335.89,181 a 0.54,0.54 0 0 1 -0.37,0.16 z m -19.06,-8 18.91,7 13.49,-15 z"
       fill="#231f20"
       id="path118" />
    <rect
       x="270.39999"
       y="165"
       width="31.940001"
       height="17.700001"
       transform="rotate(-24.12,286.386,173.85065)"
       fill="#0e8162"
       id="rect120" />
    <path
       d="m 275.42,189 a 0.49,0.49 0 0 1 -0.46,-0.29 l -7.23,-16.16 a 0.49,0.49 0 0 1 0.25,-0.66 l 29.14,-13.05 a 0.51,0.51 0 0 1 0.67,0.25 L 305,175.2 a 0.5,0.5 0 0 1 0,0.38 0.55,0.55 0 0 1 -0.26,0.28 l -29.15,13 a 0.51,0.51 0 0 1 -0.17,0.14 z m -6.58,-16.4 6.83,15.24 28.23,-12.64 -6.82,-15.24 z"
       fill="#231f20"
       id="path122" />
    <polygon
       points="304.56,175.4 275.42,188.45 285.93,172.87 "
       fill="#0e8162"
       id="polygon124" />
    <path
       d="M 275.42,189 A 0.49,0.49 0 0 1 275,188.22 l 10.52,-15.58 a 0.5,0.5 0 0 1 0.48,-0.22 l 18.63,2.54 a 0.5,0.5 0 0 1 0.43,0.42 0.51,0.51 0 0 1 -0.29,0.53 l -29.15,13 a 0.51,0.51 0 0 1 -0.2,0.09 z m 10.75,-15.55 -9.36,13.88 25.95,-11.62 z"
       fill="#231f20"
       id="path126" />
    <polygon
       points="297.33,159.25 268.18,172.3 287.18,175.64 "
       fill="#0e8162"
       id="polygon128" />
    <path
       d="m 287.17,176.14 h -0.08 l -19,-3.34 a 0.49,0.49 0 0 1 -0.4,-0.43 0.5,0.5 0 0 1 0.29,-0.52 l 29.14,-13.05 a 0.51,0.51 0 0 1 0.59,0.13 0.49,0.49 0 0 1 0,0.59 l -10.15,16.4 a 0.51,0.51 0 0 1 -0.39,0.22 z m -17.3,-4 17.06,3 9.12,-14.72 z"
       fill="#231f20"
       id="path130" />
    <path
       d="m 169.43,43.35 h -58.64 a 6.93,6.93 0 0 0 -6.93,6.93 v 30 a 6.93,6.93 0 0 0 6.93,6.93 H 163 l 6.22,10.66 0.08,-10.66 h 0.17 a 6.93,6.93 0 0 0 6.93,-6.93 v -30 a 6.93,6.93 0 0 0 -6.97,-6.93 z"
       fill="#ffffff"
       id="path132" />
    <path
       d="m 169.18,98.37 a 0.5,0.5 0 0 1 -0.43,-0.25 l -6.07,-10.41 h -51.89 a 7.44,7.44 0 0 1 -7.43,-7.43 v -30 a 7.44,7.44 0 0 1 7.43,-7.43 h 58.64 a 7.43,7.43 0 0 1 7.43,7.43 v 30 a 7.43,7.43 0 0 1 -7.1,7.42 l -0.08,10.18 a 0.48,0.48 0 0 1 -0.37,0.47 0.27,0.27 0 0 1 -0.13,0.02 z M 110.79,43.85 a 6.44,6.44 0 0 0 -6.43,6.43 v 30 a 6.44,6.44 0 0 0 6.43,6.43 H 163 a 0.5,0.5 0 0 1 0.44,0.25 l 5.3,9.09 0.06,-8.84 a 0.5,0.5 0 0 1 0.5,-0.5 h 0.17 a 6.44,6.44 0 0 0 6.43,-6.43 v -30 a 6.43,6.43 0 0 0 -6.43,-6.43 z"
       fill="#231f20"
       id="path134" />
    <polygon
       points="134.46,60.04 130.45,66.85 156.73,50.77 "
       fill="#231f20"
       id="polygon136" />
    <path
       d="m 130.45,67.35 a 0.5,0.5 0 0 1 -0.35,-0.15 0.51,0.51 0 0 1 -0.08,-0.61 l 4,-6.8 a 0.49,0.49 0 0 1 0.24,-0.21 l 22.27,-9.28 a 0.5,0.5 0 0 1 0.45,0.89 l -26.27,16.08 a 0.5,0.5 0 0 1 -0.26,0.08 z m 4.36,-6.91 -2.91,4.93 19.1,-11.66 z"
       fill="#231f20"
       id="path138" />
    <polygon
       points="156.73,50.77 134.46,60.04 143.06,64.43 "
       fill="#0e8162"
       id="polygon140" />
    <path
       d="m 143.06,64.89 a 0.5,0.5 0 0 1 -0.21,0 L 134.26,60.5 A 0.46,0.46 0 0 1 134,60 a 0.44,0.44 0 0 1 0.28,-0.4 l 22.27,-9.28 a 0.46,0.46 0 0 1 0.49,0.75 l -13.66,13.68 a 0.47,0.47 0 0 1 -0.32,0.14 z m -7.51,-4.81 7.45,3.79 11.8,-11.79 z"
       fill="#231f20"
       id="path142" />
    <polygon
       points="122.01,53.85 156.73,50.77 128.44,57.52 "
       fill="#0e8162"
       id="polygon144" />
    <path
       d="m 128.44,58 a 0.43,0.43 0 0 1 -0.22,-0.06 l -6.44,-3.68 a 0.46,0.46 0 0 1 -0.22,-0.49 0.46,0.46 0 0 1 0.41,-0.36 l 34.72,-3.08 a 0.48,0.48 0 0 1 0.49,0.38 0.46,0.46 0 0 1 -0.34,0.52 L 128.55,58 Z m -4.94,-3.81 5,2.87 22,-5.27 z"
       fill="#231f20"
       id="path146" />
    <polygon
       points="134.46,60.04 156.73,50.77 128.44,57.52 130.45,66.85 "
       fill="#0e8162"
       id="polygon148" />
    <path
       d="m 130.45,67.3 h -0.07 a 0.45,0.45 0 0 1 -0.37,-0.36 l -2,-9.32 a 0.45,0.45 0 0 1 0.34,-0.54 l 28.28,-6.76 a 0.48,0.48 0 0 1 0.55,0.3 0.47,0.47 0 0 1 -0.26,0.57 l -22.14,9.21 -3.93,6.68 a 0.47,0.47 0 0 1 -0.4,0.22 z m -1.45,-9.44 1.67,7.75 3.42,-5.8 a 0.45,0.45 0 0 1 0.22,-0.19 l 17,-7.09 z"
       fill="#231f20"
       id="path150" />
    <text
       transform="translate(126.73,80.54)"
       font-size="13.06px"
       font-family="MyriadPro-Regular, 'Myriad Pro'"
       id="text160"><tspan
         letter-spacing="0.01em"
         id="tspan152">S</tspan><tspan
         x="6.52"
         y="0"
         id="tspan154">e</tspan><tspan
         x="13.06"
         y="0"
         letter-spacing="0em"
         id="tspan156">n</tspan><tspan
         x="20.25"
         y="0"
         letter-spacing="0em"
         id="tspan158">t</tspan></text>
    <path
       d="m 165.4,244.85 a 0.5,0.5 0 0 1 0,-1 c 1.33,0 2.66,0 4,-0.1 a 0.5,0.5 0 0 1 0,1 c -1.34,0.05 -2.68,0.08 -4,0.1 z m -4,0 v 0 c -1.33,0 -2.67,0 -4,-0.1 a 0.5,0.5 0 0 1 -0.48,-0.51 0.52,0.52 0 0 1 0.52,-0.49 c 1.33,0.05 2.65,0.08 4,0.1 a 0.5,0.5 0 0 1 0,1 z m 12,-0.28 a 0.49,0.49 0 0 1 -0.49,-0.47 0.5,0.5 0 0 1 0.47,-0.53 c 1.32,-0.07 2.65,-0.16 4,-0.27 a 0.49,0.49 0 0 1 0.53,0.46 0.5,0.5 0 0 1 -0.46,0.54 c -1.33,0.1 -2.66,0.19 -4,0.27 z m -20,0 v 0 c -1.34,-0.08 -2.67,-0.17 -4,-0.28 a 0.50159745,0.50159745 0 1 1 0.08,-1 c 1.33,0.11 2.65,0.2 4,0.28 a 0.5,0.5 0 0 1 0,1 z m 28,-0.63 a 0.52,0.52 0 0 1 -0.5,-0.45 0.5,0.5 0 0 1 0.45,-0.55 q 2,-0.21 4,-0.45 a 0.5042073,0.5042073 0 1 1 0.13,1 q -2,0.26 -4,0.45 z m -35.93,0 h -0.05 c -1.33,-0.15 -2.66,-0.31 -4,-0.48 a 0.5042073,0.5042073 0 1 1 0.13,-1 c 1.31,0.17 2.63,0.33 4,0.47 a 0.50089919,0.50089919 0 0 1 -0.06,1 z m 43.87,-1 a 0.5,0.5 0 0 1 -0.49,-0.42 0.49,0.49 0 0 1 0.42,-0.57 c 1.31,-0.2 2.63,-0.41 3.94,-0.63 a 0.49,0.49 0 0 1 0.57,0.41 0.48,0.48 0 0 1 -0.4,0.57 c -1.32,0.23 -2.64,0.44 -4,0.64 z m -51.79,-0.08 h -0.08 c -1.32,-0.21 -2.64,-0.44 -3.95,-0.68 a 0.50803543,0.50803543 0 0 1 0.18,-1 c 1.31,0.25 2.62,0.47 3.93,0.68 a 0.50159745,0.50159745 0 0 1 -0.08,1 z m 59.68,-1.27 a 0.50249378,0.50249378 0 0 1 -0.1,-1 c 1.31,-0.26 2.62,-0.53 3.91,-0.81 a 0.51195703,0.51195703 0 0 1 0.22,1 l -3.93,0.81 z m -67.53,-0.2 h -0.11 c -1.31,-0.28 -2.61,-0.58 -3.91,-0.9 a 0.49,0.49 0 0 1 -0.36,-0.6 0.5,0.5 0 0 1 0.6,-0.37 c 1.29,0.32 2.58,0.61 3.88,0.89 a 0.5,0.5 0 0 1 0.38,0.6 0.49,0.49 0 0 1 -0.51,0.38 z m 75.3,-1.51 a 0.49,0.49 0 0 1 -0.48,-0.38 0.5,0.5 0 0 1 0.36,-0.61 q 1.95,-0.48 3.87,-1 a 0.5,0.5 0 0 1 0.61,0.35 0.52,0.52 0 0 1 -0.35,0.62 c -1.29,0.34 -2.59,0.67 -3.89,1 z m -83.11,-0.38 h -0.14 c -1.29,-0.36 -2.57,-0.73 -3.85,-1.12 a 0.52201533,0.52201533 0 1 1 0.3,-1 c 1.26,0.39 2.54,0.76 3.82,1.11 a 0.51,0.51 0 0 1 0.35,0.62 0.5,0.5 0 0 1 -0.46,0.39 z m 90.84,-1.71 a 0.50487622,0.50487622 0 0 1 -0.14,-1 c 1.28,-0.37 2.55,-0.77 3.81,-1.17 a 0.52347397,0.52347397 0 1 1 0.31,1 c -1.27,0.41 -2.55,0.8 -3.84,1.18 a 0.32,0.32 0 0 1 -0.12,-0.01 z m -98.48,-0.64 a 0.45,0.45 0 0 1 -0.16,0 c -1.27,-0.43 -2.53,-0.89 -3.77,-1.36 a 0.5,0.5 0 0 1 0.35,-0.93 c 1.24,0.46 2.48,0.91 3.74,1.34 a 0.51,0.51 0 0 1 0.31,0.64 0.49,0.49 0 0 1 -0.45,0.31 z m 106.1,-1.82 a 0.49,0.49 0 0 1 -0.47,-0.33 0.51,0.51 0 0 1 0.31,-0.64 c 1.26,-0.44 2.51,-0.9 3.75,-1.37 a 0.49,0.49 0 0 1 0.64,0.29 0.5,0.5 0 0 1 -0.29,0.65 c -1.24,0.47 -2.5,0.93 -3.77,1.38 a 0.47,0.47 0 0 1 -0.15,0.02 z m -113.57,-1 a 0.43,0.43 0 0 1 -0.19,0 c -1.24,-0.52 -2.48,-1.06 -3.68,-1.6 a 0.5,0.5 0 0 1 -0.24,-0.67 0.49,0.49 0 0 1 0.66,-0.24 c 1.19,0.54 2.41,1.08 3.64,1.59 a 0.49,0.49 0 0 1 0.27,0.65 0.48,0.48 0 0 1 -0.44,0.26 z m 121.06,-1.84 a 0.48,0.48 0 0 1 -0.46,-0.31 0.49,0.49 0 0 1 0.27,-0.65 c 1.23,-0.51 2.45,-1 3.66,-1.57 a 0.5,0.5 0 0 1 0.66,0.26 0.51,0.51 0 0 1 -0.25,0.66 c -1.22,0.54 -2.45,1.06 -3.69,1.58 a 0.63,0.63 0 0 1 -0.17,0.02 z M 99.54,231 a 0.59,0.59 0 0 1 -0.22,-0.05 c -1.2,-0.6 -2.39,-1.23 -3.55,-1.87 a 0.5,0.5 0 0 1 -0.2,-0.68 0.51,0.51 0 0 1 0.68,-0.2 c 1.15,0.64 2.33,1.26 3.52,1.85 a 0.52,0.52 0 0 1 0.22,0.68 0.51,0.51 0 0 1 -0.45,0.27 z m 135.63,-1.76 a 0.48,0.48 0 0 1 -0.45,-0.28 0.5,0.5 0 0 1 0.23,-0.67 c 1.2,-0.58 2.39,-1.17 3.57,-1.78 a 0.50092415,0.50092415 0 0 1 0.46,0.89 c -1.19,0.61 -2.38,1.21 -3.6,1.79 a 0.41,0.41 0 0 1 -0.21,0.04 z m -142.62,-2.1 a 0.5,0.5 0 0 1 -0.26,-0.08 c -1.15,-0.69 -2.29,-1.41 -3.4,-2.14 a 0.5,0.5 0 0 1 -0.14,-0.69 0.49,0.49 0 0 1 0.69,-0.14 c 1.1,0.72 2.23,1.43 3.37,2.12 a 0.5,0.5 0 0 1 0.17,0.68 0.51,0.51 0 0 1 -0.43,0.25 z m 149.72,-1.59 a 0.52,0.52 0 0 1 -0.44,-0.25 0.51,0.51 0 0 1 0.2,-0.68 c 1.16,-0.65 2.31,-1.32 3.44,-2 a 0.50249378,0.50249378 0 1 1 0.52,0.86 q -1.71,1 -3.48,2 a 0.5,0.5 0 0 1 -0.24,0.07 z M 85.88,222.73 a 0.52,0.52 0 0 1 -0.29,-0.09 q -1.64,-1.19 -3.21,-2.43 a 0.5,0.5 0 0 1 -0.08,-0.7 0.52,0.52 0 0 1 0.71,-0.08 c 1,0.82 2.09,1.62 3.16,2.4 a 0.5,0.5 0 0 1 0.12,0.7 0.51,0.51 0 0 1 -0.41,0.2 z m -6.26,-5 a 0.52,0.52 0 0 1 -0.33,-0.12 c -0.9,-0.79 -1.8,-1.6 -2.66,-2.41 l -0.31,-0.3 a 0.49,0.49 0 0 1 0,-0.7 0.5,0.5 0 0 1 0.71,0 l 0.3,0.29 c 0.86,0.81 1.74,1.61 2.64,2.38 a 0.5,0.5 0 0 1 -0.33,0.88 z m -5.8,-5.5 a 0.51,0.51 0 0 1 -0.36,-0.15 c -0.94,-1 -1.86,-2 -2.74,-2.94 a 0.49,0.49 0 0 1 0,-0.7 0.5,0.5 0 0 1 0.71,0 c 0.88,1 1.79,2 2.72,2.91 a 0.5,0.5 0 0 1 0,0.71 0.54,0.54 0 0 1 -0.33,0.21 z m -5.34,-6 a 0.51,0.51 0 0 1 -0.39,-0.19 c -0.86,-1 -1.69,-2.1 -2.49,-3.15 a 0.51,0.51 0 0 1 0.1,-0.7 0.5,0.5 0 0 1 0.7,0.1 c 0.79,1 1.62,2.09 2.46,3.12 a 0.49,0.49 0 0 1 -0.06,0.7 0.51,0.51 0 0 1 -0.32,0.21 z m -4.81,-6.39 a 0.49,0.49 0 0 1 -0.41,-0.22 c -0.76,-1.11 -1.5,-2.25 -2.19,-3.38 a 0.5,0.5 0 0 1 0.85,-0.52 c 0.68,1.11 1.41,2.24 2.16,3.34 a 0.49,0.49 0 0 1 -0.13,0.69 0.47,0.47 0 0 1 -0.28,0.18 z m -4.18,-6.81 a 0.51,0.51 0 0 1 -0.44,-0.26 c -0.65,-1.18 -1.27,-2.39 -1.85,-3.58 a 0.5,0.5 0 0 1 0.24,-0.67 0.49,0.49 0 0 1 0.66,0.23 c 0.57,1.18 1.19,2.37 1.82,3.54 a 0.48,0.48 0 0 1 -0.19,0.67 0.44,0.44 0 0 1 -0.24,0.16 z M 56,185.91 a 0.5,0.5 0 0 1 -0.47,-0.31 c -0.51,-1.23 -1,-2.5 -1.44,-3.75 a 0.5,0.5 0 0 1 0.94,-0.34 c 0.44,1.24 0.92,2.49 1.43,3.71 a 0.51,0.51 0 0 1 -0.27,0.65 0.46,0.46 0 0 1 -0.19,0.04 z m -2.66,-7.54 a 0.49,0.49 0 0 1 -0.48,-0.36 c -0.37,-1.29 -0.71,-2.6 -1,-3.9 a 0.5,0.5 0 0 1 0.38,-0.6 0.5,0.5 0 0 1 0.59,0.38 c 0.29,1.28 0.62,2.57 1,3.84 a 0.5,0.5 0 0 1 -0.34,0.62 0.36,0.36 0 0 1 -0.13,0.02 z m -1.75,-7.8 a 0.5,0.5 0 0 1 -0.5,-0.42 c -0.21,-1.33 -0.38,-2.67 -0.51,-4 a 0.50202092,0.50202092 0 0 1 1,-0.09 c 0.13,1.3 0.3,2.62 0.51,3.93 a 0.5,0.5 0 0 1 -0.41,0.58 z m -0.77,-7.95 a 0.51,0.51 0 0 1 -0.5,-0.49 c 0,-0.66 0,-1.32 0,-2 0,-0.68 0,-1.38 0,-2.06 a 0.49,0.49 0 0 1 0.52,-0.48 0.5,0.5 0 0 1 0.48,0.51 c 0,0.67 0,1.35 0,2 0,0.65 0,1.29 0,1.94 a 0.5,0.5 0 0 1 -0.49,0.52 z m 0.27,-8 v 0 a 0.49,0.49 0 0 1 -0.45,-0.54 c 0.14,-1.34 0.32,-2.69 0.55,-4 a 0.49,0.49 0 0 1 0.57,-0.41 0.5,0.5 0 0 1 0.41,0.58 c -0.22,1.29 -0.4,2.61 -0.53,3.93 a 0.52,0.52 0 0 1 -0.53,0.45 z m 1.35,-7.88 h -0.12 a 0.5,0.5 0 0 1 -0.36,-0.61 c 0.31,-1.31 0.68,-2.61 1.09,-3.88 a 0.5,0.5 0 0 1 0.63,-0.32 0.49,0.49 0 0 1 0.32,0.62 c -0.4,1.25 -0.76,2.53 -1.07,3.82 a 0.5,0.5 0 0 1 -0.47,0.38 z m 2.45,-7.61 a 0.41,0.41 0 0 1 -0.19,0 0.5,0.5 0 0 1 -0.28,-0.65 c 0.5,-1.24 1.06,-2.48 1.65,-3.68 a 0.5,0.5 0 1 1 0.89,0.44 c -0.57,1.18 -1.12,2.39 -1.61,3.62 a 0.51,0.51 0 0 1 -0.44,0.28 z M 58.43,132 A 0.47,0.47 0 0 1 58.18,131.93 0.49,0.49 0 0 1 58,131.25 c 0.68,-1.15 1.39,-2.3 2.13,-3.42 a 0.5,0.5 0 0 1 0.83,0.55 c -0.72,1.1 -1.43,2.24 -2.1,3.37 A 0.5,0.5 0 0 1 58.43,132 Z m 4.41,-6.68 a 0.47,0.47 0 0 1 -0.3,-0.1 0.5,0.5 0 0 1 -0.11,-0.69 c 0.8,-1.08 1.63,-2.15 2.48,-3.18 a 0.49,0.49 0 0 1 0.7,-0.07 0.5,0.5 0 0 1 0.07,0.7 c -0.84,1 -1.66,2.07 -2.44,3.14 a 0.51,0.51 0 0 1 -0.4,0.17 z m 5.07,-6.18 a 0.46,0.46 0 0 1 -0.33,-0.13 0.5,0.5 0 0 1 0,-0.71 c 0.9,-1 1.85,-2 2.8,-2.89 a 0.49,0.49 0 0 1 0.7,0 0.5,0.5 0 0 1 0,0.71 c -0.94,0.91 -1.87,1.87 -2.77,2.85 a 0.49,0.49 0 0 1 -0.4,0.14 z m 5.72,-5.59 a 0.48,0.48 0 0 1 -0.37,-0.17 0.49,0.49 0 0 1 0,-0.7 c 1,-0.89 2.06,-1.75 3.11,-2.57 a 0.51,0.51 0 0 1 0.62,0.8 c -1,0.8 -2.07,1.65 -3.07,2.52 a 0.5,0.5 0 0 1 -0.29,0.09 z m 83.1,-1.58 a 0.5,0.5 0 0 1 -0.44,-0.27 17.31,17.31 0 0 0 -2.32,-3.11 0.50284192,0.50284192 0 0 1 0.75,-0.67 17.33,17.33 0 0 1 2.45,3.32 0.49,0.49 0 0 1 -0.21,0.67 0.46,0.46 0 0 1 -0.23,0.03 z M 80,108.62 a 0.47,0.47 0 0 1 -0.41,-0.22 0.49,0.49 0 0 1 0.13,-0.69 c 1.1,-0.76 2.24,-1.49 3.38,-2.18 a 0.49,0.49 0 0 1 0.69,0.17 0.5,0.5 0 0 1 -0.17,0.69 c -1.13,0.67 -2.25,1.4 -3.34,2.14 A 0.47,0.47 0 0 1 80,108.62 Z M 151.46,106 a 0.49,0.49 0 0 1 -0.32,-0.12 33.37,33.37 0 0 0 -3.18,-2.33 0.50202092,0.50202092 0 0 1 0.55,-0.84 34.92,34.92 0 0 1 3.27,2.41 0.5,0.5 0 0 1 -0.32,0.88 z M 86.8,104.5 a 0.51,0.51 0 0 1 -0.45,-0.27 0.5,0.5 0 0 1 0.21,-0.67 c 1.18,-0.62 2.4,-1.21 3.63,-1.76 a 0.49,0.49 0 0 1 0.66,0.25 0.51,0.51 0 0 1 -0.25,0.66 c -1.21,0.54 -2.41,1.12 -3.57,1.73 a 0.49,0.49 0 0 1 -0.23,0.06 z m 58,-2.88 a 0.46,0.46 0 0 1 -0.22,-0.06 c -1.15,-0.57 -2.37,-1.11 -3.61,-1.59 a 0.5,0.5 0 0 1 -0.29,-0.64 0.5,0.5 0 0 1 0.65,-0.29 c 1.27,0.49 2.52,1 3.7,1.63 a 0.5,0.5 0 0 1 0.22,0.67 0.51,0.51 0 0 1 -0.49,0.28 z m -50.67,-0.4 a 0.51,0.51 0 0 1 -0.47,-0.32 0.49,0.49 0 0 1 0.29,-0.64 c 1.25,-0.48 2.53,-0.92 3.81,-1.32 a 0.48,0.48 0 0 1 0.62,0.33 0.49,0.49 0 0 1 -0.33,0.62 c -1.25,0.4 -2.52,0.83 -3.75,1.3 a 0.47,0.47 0 0 1 -0.21,0.03 z m 7.62,-2.39 a 0.50358713,0.50358713 0 0 1 -0.12,-1 c 1.29,-0.33 2.61,-0.62 3.93,-0.87 a 0.5,0.5 0 0 1 0.59,0.39 0.51,0.51 0 0 1 -0.4,0.59 c -1.3,0.25 -2.6,0.54 -3.88,0.86 z m 35.6,-0.09 h -0.13 c -1.24,-0.35 -2.53,-0.67 -3.85,-0.94 a 0.5,0.5 0 0 1 -0.39,-0.59 0.51,0.51 0 0 1 0.59,-0.39 c 1.34,0.28 2.66,0.6 3.92,1 a 0.51,0.51 0 0 1 0.35,0.62 0.51,0.51 0 0 1 -0.53,0.3 z M 109.6,97.32 a 0.5012235,0.5012235 0 0 1 -0.07,-1 c 1.32,-0.18 2.66,-0.33 4,-0.44 a 0.50159745,0.50159745 0 1 1 0.08,1 c -1.31,0.12 -2.64,0.26 -3.94,0.44 z m 19.93,-0.18 h -0.07 c -1.27,-0.16 -2.6,-0.3 -3.94,-0.39 a 0.5,0.5 0 0 1 -0.47,-0.53 0.51,0.51 0 0 1 0.54,-0.47 c 1.36,0.1 2.71,0.23 4,0.4 a 0.50089919,0.50089919 0 0 1 -0.06,1 z m -12,-0.51 a 0.5,0.5 0 0 1 -0.5,-0.48 0.51,0.51 0 0 1 0.48,-0.52 c 1.33,0 2.69,-0.06 4,0 a 0.51,0.51 0 0 1 0.49,0.51 0.5,0.5 0 0 1 -0.51,0.49 c -1.31,0 -2.66,0 -4,0 z"
       fill="#d1d3d4"
       id="path162" />
  </g>
</svg>
