<?xml version="1.0" encoding="UTF-8" standalone="no"?>
<svg
   xmlns:dc="http://purl.org/dc/elements/1.1/"
   xmlns:cc="http://creativecommons.org/ns#"
   xmlns:rdf="http://www.w3.org/1999/02/22-rdf-syntax-ns#"
   xmlns:svg="http://www.w3.org/2000/svg"
   xmlns="http://www.w3.org/2000/svg"
   viewBox="0 0 352.68161 255.04001"
   version="1.1"
   id="svg75"
   width="352.68161"
   height="255.04001">
  <metadata
     id="metadata81">
    <rdf:RDF>
      <cc:Work
         rdf:about="">
        <dc:format>image/svg+xml</dc:format>
        <dc:type
           rdf:resource="http://purl.org/dc/dcmitype/StillImage" />
        <dc:title></dc:title>
      </cc:Work>
    </rdf:RDF>
  </metadata>
  <defs
     id="defs79" />
  <g
     id="_503_spotlight_flatline"
     data-name="#503_spotlight_flatline"
     transform="translate(-23.66,-22.5)">
    <rect
       x="24.16"
       y="22.959999"
       width="351.69"
       height="254.08"
       fill="#231f20"
       id="rect2" />
    <path
       d="M 375.84,277.54 H 24.16 a 0.5,0.5 0 0 1 -0.5,-0.5 V 23 a 0.5,0.5 0 0 1 0.5,-0.5 h 351.68 a 0.5,0.5 0 0 1 0.5,0.5 v 254 a 0.5,0.5 0 0 1 -0.5,0.54 z m -351.18,-1 H 375.34 V 23.46 H 24.66 Z"
       fill="#231f20"
       id="path4" />
    <polygon
       points="237.3,45.18 93.14,231.76 277.59,237.6 258.93,49.88 "
       fill="#e6e7e8"
       id="polygon6" />
    <path
       d="m 277.59,237.6 c 0,13.29 -40.87,24.09 -91.59,24.29 h -1.46 c -21.82,0 -41.88,-2 -57.74,-5.24 -21.52,-4.45 -35.32,-11.34 -35.32,-19.06 0,-13.42 41.67,-24.3 93.06,-24.3 51.39,0 93.05,10.89 93.05,24.31 z"
       fill="#ffffff"
       id="path8" />
    <path
       d="m 184.54,213.3 c 51.39,0 93,10.88 93,24.3 0,13.42 -40.82,24.09 -91.54,24.29 h -1.46 c -21.82,0 -41.88,-2 -57.74,-5.24 -21.52,-4.45 -35.32,-11.34 -35.32,-19.06 0,-13.42 41.67,-24.3 93.06,-24.3 m 0,-1 c -52.74,0 -94.06,11.11 -94.06,25.3 0,11.35 25.26,17.79 36.12,20 16.64,3.44 36.68,5.26 57.94,5.26 H 186 c 24.61,-0.1 47.72,-2.68 65,-7.27 10.28,-2.72 27.52,-8.68 27.52,-18 0,-14.19 -41.31,-25.3 -94,-25.3 z"
       fill="#231f20"
       id="path10" />
    <path
       d="m 216,246.82 -30,15.07 h -1.46 c -21.82,0 -41.88,-2 -57.74,-5.24 l 65.33,-13.31 3.87,1 -27.78,8.85 c 0,0 8.54,1.69 11.08,1.9 2.54,0.21 25.92,-7.59 25.92,-7.59 z"
       fill="#e6e7e8"
       id="path12" />
    <path
       d="m 192.73,237.55 c 0,0 -1.35,6.37 0,6.73 1.35,0.36 10.54,-2.81 9.44,-4.77 -1.1,-1.96 -7.35,-2 -7.35,-2 z"
       fill="#231f20"
       id="path14" />
    <path
       d="m 193,244.81 a 1.41,1.41 0 0 1 -0.39,0 c -1.57,-0.43 -0.9,-4.77 -0.36,-7.32 a 0.5,0.5 0 0 1 0.49,-0.4 h 2.09 c 0.67,0 6.56,0.06 7.78,2.21 a 1.36,1.36 0 0 1 -0.23,1.58 c -1.38,1.76 -7.38,3.93 -9.38,3.93 z m 0.15,-6.76 c -0.55,2.77 -0.68,5.46 -0.26,5.76 0.91,0.25 7.39,-1.9 8.7,-3.59 0.24,-0.3 0.17,-0.43 0.15,-0.46 -0.7,-1.25 -4.61,-1.71 -6.91,-1.71 z"
       fill="#231f20"
       id="path16" />
    <path
       d="m 189.18,179.64 c 0,0 1.35,27.18 1.1,28.89 -0.25,1.71 0.05,24.37 -0.19,30 l 8.65,3.22 c 0,0 3.13,-48.48 3.43,-55.34 0.3,-6.86 0.65,-9.1 0.65,-9.1 z"
       fill="#231f20"
       id="path18" />
    <path
       d="m 198.74,242.25 h -0.17 L 189.92,239 a 0.5,0.5 0 0 1 -0.33,-0.49 c 0.12,-2.83 0.11,-10.15 0.1,-16.6 0,-6.74 0,-12.56 0.1,-13.45 0.19,-1.37 -0.74,-21.25 -1.11,-28.8 a 0.52,0.52 0 0 1 0.42,-0.52 l 13.63,-2.32 a 0.51,0.51 0 0 1 0.44,0.13 0.52,0.52 0 0 1 0.14,0.44 c 0,0 -0.35,2.31 -0.64,9 -0.29,6.69 -3.4,54.86 -3.43,55.35 a 0.51,0.51 0 0 1 -0.22,0.39 0.57,0.57 0 0 1 -0.28,0.12 z m -8.14,-4.06 7.69,2.85 c 0.38,-5.87 3.1,-48.32 3.38,-54.65 0.21,-4.83 0.44,-7.37 0.57,-8.47 l -12.54,2.13 c 0.18,3.65 1.31,26.91 1.08,28.55 -0.12,0.82 -0.11,7.17 -0.09,13.31 0.01,6.51 0.02,13.23 -0.09,16.28 z"
       fill="#231f20"
       id="path20" />
    <path
       d="m 194.17,177.92 c 0,0 6.42,37.71 6.9,41.39 0.48,3.68 2.56,21.55 2.56,21.55 l 10.82,1.22 -1.75,-64.16 z"
       fill="#231f20"
       id="path22" />
    <path
       d="m 214.45,242.58 h -0.06 l -10.82,-1.23 a 0.5,0.5 0 0 1 -0.44,-0.44 c 0,-0.18 -2.09,-17.91 -2.56,-21.54 -0.47,-3.63 -6.83,-41 -6.89,-41.36 a 0.47,0.47 0 0 1 0.11,-0.41 0.49,0.49 0 0 1 0.38,-0.18 h 18.53 a 0.51,0.51 0 0 1 0.5,0.49 l 1.8,64.16 a 0.55,0.55 0 0 1 -0.16,0.38 0.51,0.51 0 0 1 -0.39,0.13 z m -10.37,-2.18 9.85,1.12 -1.72,-63.1 h -17.45 c 0.82,4.8 6.36,37.43 6.8,40.82 0.44,3.39 2.21,18.51 2.52,21.16 z"
       fill="#231f20"
       id="path24" />
    <path
       d="m 219.5,195.18 a 0.5,0.5 0 0 1 -0.5,-0.5 10.31,10.31 0 0 0 -0.18,-1.92 c -0.16,-0.61 -1.28,-1 -3.33,-1.28 -1.16,-0.13 -4.23,-0.49 -4.9,0.18 a 5.76,5.76 0 0 0 -0.71,2.52 0.49,0.49 0 0 1 -0.54,0.45 0.51,0.51 0 0 1 -0.46,-0.54 c 0,-0.4 0.26,-2.39 1,-3.14 0.74,-0.75 2.28,-0.86 5.71,-0.47 2.65,0.31 3.9,0.92 4.19,2 a 11.12,11.12 0 0 1 0.21,2.16 0.5,0.5 0 0 1 -0.49,0.54 z"
       fill="#231f20"
       id="path26" />
    <polygon
       points="226.74,195.08 225.67,213.2 202.16,213.2 202.82,193.77 "
       fill="#ffffff"
       id="polygon28" />
    <path
       d="m 225.67,213.7 h -23.5 a 0.48,0.48 0 0 1 -0.36,-0.15 0.47,0.47 0 0 1 -0.14,-0.37 l 0.65,-19.42 a 0.5,0.5 0 0 1 0.16,-0.36 0.54,0.54 0 0 1 0.37,-0.13 l 23.91,1.31 a 0.51,0.51 0 0 1 0.35,0.17 0.48,0.48 0 0 1 0.12,0.36 l -1.06,18.12 a 0.5,0.5 0 0 1 -0.5,0.47 z m -23,-1 h 22.53 l 1,-17.15 -22.9,-1.25 z"
       fill="#231f20"
       id="path30" />
    <polygon
       points="199.88,194.83 202.82,193.77 202.16,213.2 198.66,211.98 "
       fill="#ffffff"
       id="polygon32" />
    <path
       d="m 202.17,213.7 a 0.47,0.47 0 0 1 -0.17,0 l -3.51,-1.22 a 0.5,0.5 0 0 1 -0.33,-0.51 l 1.22,-17.14 a 0.51,0.51 0 0 1 0.33,-0.44 l 2.94,-1.06 a 0.51,0.51 0 0 1 0.46,0.07 0.5,0.5 0 0 1 0.21,0.42 l -0.65,19.43 a 0.51,0.51 0 0 1 -0.22,0.39 0.51,0.51 0 0 1 -0.28,0.06 z m -3,-2.07 2.51,0.87 0.6,-18 -1.93,0.7 z"
       fill="#231f20"
       id="path34" />
    <path
       d="m 210.85,184.47 a 24.13,24.13 0 0 1 0.29,3.59 c -0.15,0.37 -1,2.24 -0.74,3.2 0.26,0.96 4,2.34 5.29,0.72 1.29,-1.62 0.44,-9.27 0.44,-9.27 z"
       fill="#ffffff"
       id="path36" />
    <path
       d="m 213.82,193.23 a 5.74,5.74 0 0 1 -1.19,-0.14 c -1.17,-0.26 -2.52,-0.91 -2.71,-1.72 a 6.69,6.69 0 0 1 0.72,-3.4 22,22 0 0 0 -0.29,-3.43 0.51,0.51 0 0 1 0.34,-0.55 l 5.28,-1.76 a 0.5,0.5 0 0 1 0.43,0.06 0.49,0.49 0 0 1 0.23,0.36 c 0.08,0.81 0.79,7.92 -0.55,9.64 a 2.72,2.72 0 0 1 -2.26,0.94 z m -2.42,-8.42 c 0.39,3 0.25,3.32 0.2,3.44 v 0.1 a 5.51,5.51 0 0 0 -0.67,2.79 3.76,3.76 0 0 0 2.25,1 c 0.47,0.07 1.63,0.18 2.15,-0.49 0.77,-1 0.67,-5.37 0.4,-8.3 z"
       fill="#231f20"
       id="path38" />
    <path
       d="m 196,132.24 c -0.81,0 -1.62,-0.12 -2.56,-0.17 -0.94,-0.05 -2,-0.33 -2,-1.2 0,-0.87 0.83,-1.39 0.61,-2.11 a 1.82,1.82 0 0 0 -0.32,-0.51 8.05,8.05 0 0 1 1,-11.12 c -0.24,0.09 -0.51,-0.15 -0.54,-0.4 a 1.07,1.07 0 0 1 0.25,-0.72 5.08,5.08 0 0 1 2.38,-1.55 15.31,15.31 0 0 1 9,-0.31 c 2.28,0.59 5.06,2.29 4.85,5 a 2.16,2.16 0 0 1 -1.79,2 c -0.41,2.94 -1.87,5 -3.72,7.17 a 11.81,11.81 0 0 1 -4.64,3.39 6.4,6.4 0 0 1 -2.52,0.53 z"
       fill="#ffffff"
       id="path40" />
    <path
       d="m 196,132.74 h -0.08 c -0.48,0 -1,-0.05 -1.48,-0.09 l -1.1,-0.08 c -1.52,-0.08 -2.47,-0.7 -2.52,-1.67 a 2.29,2.29 0 0 1 0.39,-1.26 c 0.19,-0.34 0.3,-0.56 0.25,-0.73 a 1.21,1.21 0 0 0 -0.21,-0.31 8.57,8.57 0 0 1 0.51,-11.35 1,1 0 0 1 -0.19,-0.46 1.47,1.47 0 0 1 0.35,-1.07 5.5,5.5 0 0 1 2.6,-1.73 16,16 0 0 1 9.34,-0.32 c 2.76,0.7 5.45,2.69 5.23,5.55 a 2.74,2.74 0 0 1 -1.85,2.44 14.57,14.57 0 0 1 -3.78,7.07 12.28,12.28 0 0 1 -4.84,3.53 6.93,6.93 0 0 1 -2.62,0.48 z m -3.39,-16.11 a 0.5,0.5 0 0 1 0.43,0.24 0.49,0.49 0 0 1 -0.1,0.63 7.56,7.56 0 0 0 -0.94,10.43 2.13,2.13 0 0 1 0.41,0.68 1.93,1.93 0 0 1 -0.32,1.51 1.58,1.58 0 0 0 -0.27,0.72 c 0,0.48 0.86,0.7 1.58,0.73 l 1.13,0.08 c 0.48,0 0.94,0.08 1.4,0.09 v 0 a 6.14,6.14 0 0 0 2.33,-0.41 11.25,11.25 0 0 0 4.44,-3.25 c 2,-2.37 3.24,-4.26 3.6,-6.92 a 0.52,0.52 0 0 1 0.46,-0.43 1.66,1.66 0 0 0 1.33,-1.58 c 0.2,-2.61 -2.72,-4.06 -4.47,-4.51 a 14.81,14.81 0 0 0 -8.75,0.29 4.46,4.46 0 0 0 -2.14,1.38 0.61,0.61 0 0 0 -0.16,0.32 z"
       fill="#231f20"
       id="path42" />
    <path
       d="m 207.75,125.45 c 0,0 2.2,3.37 1.74,4.06 -0.46,0.69 -2,0.23 -2,0.23"
       fill="#ffffff"
       id="path44" />
    <path
       d="m 208.51,130.39 a 4.21,4.21 0 0 1 -1.15,-0.18 0.49,0.49 0 0 1 -0.33,-0.62 0.5,0.5 0 0 1 0.62,-0.33 c 0.49,0.15 1.27,0.21 1.42,0 a 11.54,11.54 0 0 0 -1.74,-3.5 0.5,0.5 0 0 1 0.14,-0.69 0.49,0.49 0 0 1 0.69,0.14 c 1.09,1.66 2.28,3.81 1.74,4.61 a 1.59,1.59 0 0 1 -1.39,0.57 z"
       fill="#231f20"
       id="path46" />
    <path
       d="m 207.29,121 c 1.41,1.16 1,3.59 1,5.17 0,2.23 -0.1,4.46 -0.23,6.68 -0.08,1.41 -3.74,1.43 -4.39,1 l 0.55,5.58 -7.67,-3 0.34,-4.61 a 4.69,4.69 0 0 0 3.93,-2.85 c 1.44,-2.87 1.26,-9.12 1.26,-9.12 0,0 3.84,0.04 5.21,1.15 z"
       fill="#ffffff"
       id="path48" />
    <path
       d="m 204.19,140 a 0.57,0.57 0 0 1 -0.18,0 l -7.67,-3 a 0.49,0.49 0 0 1 -0.31,-0.5 l 0.33,-4.61 a 0.5,0.5 0 0 1 0.5,-0.46 4.18,4.18 0 0 0 3.48,-2.57 c 1.37,-2.73 1.21,-8.83 1.21,-8.89 a 0.54,0.54 0 0 1 0.14,-0.36 0.46,0.46 0 0 1 0.38,-0.15 c 0.5,0 4.09,0 5.54,1.23 1.45,1.23 1.26,3.12 1.18,4.72 0,0.3 0,0.59 0,0.85 0,2.22 -0.11,4.47 -0.23,6.7 a 1.51,1.51 0 0 1 -0.95,1.25 6.38,6.38 0 0 1 -3.37,0.4 l 0.48,4.86 a 0.49,0.49 0 0 1 -0.19,0.44 0.5,0.5 0 0 1 -0.34,0.09 z m -7.14,-3.81 6.57,2.55 -0.47,-4.77 a 0.5,0.5 0 0 1 0.77,-0.46 5.42,5.42 0 0 0 3.24,-0.21 c 0.23,-0.13 0.36,-0.26 0.37,-0.41 0.13,-2.21 0.2,-4.45 0.23,-6.65 0,-0.28 0,-0.57 0,-0.89 0.07,-1.38 0.16,-3.09 -0.82,-3.89 -0.98,-0.8 -3.15,-1 -4.41,-1 0,1.59 -0.08,6.35 -1.33,8.84 a 5.28,5.28 0 0 1 -3.9,3.07 z"
       fill="#231f20"
       id="path50" />
    <path
       d="m 203.47,126.86 a 3.1,3.1 0 0 0 -0.62,-1.53 4.35,4.35 0 0 0 -0.8,-1 1.45,1.45 0 0 0 -1.2,-0.37 1.34,1.34 0 0 0 -0.88,0.68 2.68,2.68 0 0 0 -0.28,1.11 4.78,4.78 0 0 0 2.19,4.25 l -0.13,-0.14"
       fill="#ffffff"
       id="path52" />
    <path
       d="m 201.8,130.47 a 0.38,0.38 0 0 1 -0.19,-0.06 5.26,5.26 0 0 1 -2.42,-4.7 2.89,2.89 0 0 1 0.35,-1.32 1.81,1.81 0 0 1 1.21,-0.93 1.92,1.92 0 0 1 1.62,0.48 4.87,4.87 0 0 1 0.9,1.12 3.45,3.45 0 0 1 0.7,1.8 0.5,0.5 0 0 1 -0.5,0.5 v 0 a 0.5,0.5 0 0 1 -0.5,-0.49 2.71,2.71 0 0 0 -0.54,-1.27 4,4 0 0 0 -0.7,-0.9 1,1 0 0 0 -0.78,-0.26 0.82,0.82 0 0 0 -0.54,0.44 1.94,1.94 0 0 0 -0.22,0.89 4.29,4.29 0 0 0 1.7,3.62 0.4,0.4 0 0 1 0.23,0.12 0.61,0.61 0 0 1 0.08,0.73 0.56,0.56 0 0 1 -0.4,0.23 z"
       fill="#231f20"
       id="path54" />
    <path
       d="m 195,137.84 0.66,-2.45 9.82,0.61 1.06,3.65 A 19.33,19.33 0 0 1 195,137.84 Z"
       fill="#ffffff"
       id="path56" />
    <path
       d="m 203.74,140.38 a 20.54,20.54 0 0 1 -9,-2.09 0.49,0.49 0 0 1 -0.27,-0.58 l 0.67,-2.45 a 0.51,0.51 0 0 1 0.51,-0.37 l 9.83,0.61 a 0.48,0.48 0 0 1 0.44,0.36 l 1.06,3.65 a 0.51,0.51 0 0 1 -0.05,0.4 0.52,0.52 0 0 1 -0.33,0.23 15.1,15.1 0 0 1 -2.86,0.24 z m -8.18,-2.81 a 19.53,19.53 0 0 0 10.31,1.68 l -0.8,-2.78 -9.06,-0.56 z"
       fill="#231f20"
       id="path58" />
    <path
       d="m 209.41,139.88 c 0,0 -12.57,-6 -19.55,-2.25 -6.98,3.75 -2.41,26.14 -1.9,29.88 0.51,3.74 -0.26,15.25 -0.26,15.25 l 28,-1.08 c 0,0 -3.12,-38.35 -6.29,-41.8 z"
       fill="#000000"
       id="path60" />
    <path
       d="m 209.71,141.83 c 0,0 -4.66,-0.59 -5.4,6.31 -0.74,6.9 5.24,37.86 5.24,37.86 l 9.44,-1.17 c 0,0 -3.52,-26.86 -5,-34.2 -1.48,-7.34 -2.77,-8.98 -4.28,-8.8 z"
       fill="#000000"
       id="path62" />
    <path
       d="m 209.16,184.45 a 0.49,0.49 0 0 1 -0.49,-0.42 c 0,-0.28 -4.4,-28.41 -4.92,-34.38 -0.3,-3.42 0.37,-6.16 1.88,-7.7 a 3.74,3.74 0 0 1 2.93,-1.21 0.50089919,0.50089919 0 1 1 -0.06,1 2.8,2.8 0 0 0 -2.16,0.91 c -0.75,0.77 -2,2.69 -1.59,6.92 0.52,5.93 4.86,34 4.91,34.31 a 0.51,0.51 0 0 1 -0.42,0.57 z"
       fill="#231f20"
       id="path64" />
    <path
       d="m 204.34,240.12 c 0,0 -0.1,7 0.88,7.35 0.98,0.35 11.43,1 10.78,-0.66 -0.65,-1.66 -6,-1.55 -6.45,-2.44 -0.45,-0.89 -0.33,-5.55 -0.33,-5.55 z"
       fill="#231f20"
       id="path66" />
    <path
       d="m 211.29,248.38 a 39.53,39.53 0 0 1 -6.23,-0.44 c -0.88,-0.29 -1.29,-2.92 -1.22,-7.83 a 0.51,0.51 0 0 1 0.37,-0.47 l 4.88,-1.31 a 0.53,0.53 0 0 1 0.44,0.09 0.5,0.5 0 0 1 0.19,0.41 20.29,20.29 0 0 0 0.27,5.3 8.17,8.17 0 0 0 2.13,0.56 c 1.9,0.37 3.86,0.74 4.34,1.94 a 0.83,0.83 0 0 1 -0.18,0.91 c -0.6,0.65 -2.74,0.84 -4.99,0.84 z m -6.45,-7.87 c 0,2.89 0.21,6.1 0.61,6.52 1.11,0.36 9,0.64 10,-0.11 -0.4,-0.64 -2.29,-1 -3.56,-1.25 -1.64,-0.31 -2.52,-0.5 -2.82,-1.06 -0.44,-0.81 -0.44,-3.71 -0.41,-5.14 z"
       fill="#231f20"
       id="path68" />
    <circle
       cx="247.14999"
       cy="49.869999"
       r="11.77"
       fill="#ffffff"
       id="circle70" />
    <path
       d="m 247.16,62.15 a 12.28,12.28 0 1 1 12.27,-12.28 12.3,12.3 0 0 1 -12.27,12.28 z m 0,-23.55 A 11.28,11.28 0 1 0 258.43,49.87 11.29,11.29 0 0 0 247.16,38.6 Z"
       fill="#231f20"
       id="path72" />
  </g>
</svg>
