<?xml version="1.0" encoding="UTF-8" standalone="no"?>
<svg
   xmlns:dc="http://purl.org/dc/elements/1.1/"
   xmlns:cc="http://creativecommons.org/ns#"
   xmlns:rdf="http://www.w3.org/1999/02/22-rdf-syntax-ns#"
   xmlns:svg="http://www.w3.org/2000/svg"
   xmlns="http://www.w3.org/2000/svg"
   viewBox="0 0 225.33992 223.94292"
   version="1.1"
   id="svg139"
   width="225.33992"
   height="223.94292">
  <metadata
     id="metadata145">
    <rdf:RDF>
      <cc:Work
         rdf:about="">
        <dc:format>image/svg+xml</dc:format>
        <dc:type
           rdf:resource="http://purl.org/dc/dcmitype/StillImage" />
        <dc:title></dc:title>
      </cc:Work>
    </rdf:RDF>
  </metadata>
  <defs
     id="defs143" />
  <g
     id="_521_user_interface_flatline"
     data-name="#521_user_interface_flatline"
     transform="translate(-87.332373,-37.997081)">
    <path
       d="m 288.75,48.44 -1.17,8.3 -26.82,189.09 H 130.39 l 26.82,-189.09 1.18,-8.3 a 11.8,11.8 0 0 1 11.31,-9.91 h 110.55 a 8.4,8.4 0 0 1 8.5,9.91 z"
       fill="#ffffff"
       id="path2" />
    <path
       d="M 260.76,246.33 H 130.39 a 0.5,0.5 0 0 1 -0.38,-0.17 0.52,0.52 0 0 1 -0.12,-0.4 l 28,-197.39 A 12.34,12.34 0 0 1 169.7,38 h 110.55 a 9,9 0 0 1 6.94,3 9.17,9.17 0 0 1 2.06,7.44 l -1.17,8.3 -26.83,189.16 a 0.5,0.5 0 0 1 -0.49,0.43 z m -129.8,-1 h 129.36 l 27.94,-197 v 0 a 8.18,8.18 0 0 0 -1.82,-6.64 8,8 0 0 0 -6.19,-2.7 H 169.7 a 11.31,11.31 0 0 0 -10.82,9.48 l -1.17,8.3 z"
       fill="#231f20"
       id="path4" />
    <path
       d="M 214.2,136.64 H 157 a 0.56,0.56 0 0 1 -0.38,-0.17 0.52,0.52 0 0 1 -0.11,-0.4 L 165,76.61 a 0.51,0.51 0 0 1 0.5,-0.43 h 57.18 a 0.5,0.5 0 0 1 0.5,0.57 l -8.43,59.46 a 0.51,0.51 0 0 1 -0.55,0.43 z m -56.61,-1 h 56.18 l 8.29,-58.46 h -56.18 z"
       fill="#d1d3d4"
       id="path6" />
    <path
       d="M 268.52,77.18 H 238 a 0.5,0.5 0 0 1 -0.5,-0.5 0.5,0.5 0 0 1 0.5,-0.5 h 30.53 a 0.5,0.5 0 0 1 0.5,0.5 0.5,0.5 0 0 1 -0.51,0.5 z"
       fill="#d1d3d4"
       id="path8" />
    <path
       d="m 267.4,85.09 h -30.53 a 0.5,0.5 0 0 1 0,-1 h 30.53 a 0.5,0.5 0 0 1 0,1 z"
       fill="#d1d3d4"
       id="path10" />
    <path
       d="m 266.28,93 h -30.54 a 0.51,0.51 0 0 1 -0.5,-0.5 0.5,0.5 0 0 1 0.5,-0.5 h 30.54 a 0.5,0.5 0 0 1 0.5,0.5 0.5,0.5 0 0 1 -0.5,0.5 z"
       fill="#d1d3d4"
       id="path12" />
    <path
       d="m 265.16,100.92 h -30.54 a 0.5,0.5 0 0 1 0,-1 h 30.54 a 0.5,0.5 0 0 1 0,1 z"
       fill="#d1d3d4"
       id="path14" />
    <path
       d="m 264,108.83 h -30.5 a 0.5,0.5 0 0 1 -0.5,-0.5 0.5,0.5 0 0 1 0.5,-0.5 H 264 a 0.5,0.5 0 0 1 0.5,0.5 0.5,0.5 0 0 1 -0.5,0.5 z"
       fill="#d1d3d4"
       id="path16" />
    <path
       d="m 254.08,116.75 h -21.71 a 0.51,0.51 0 0 1 -0.5,-0.5 0.5,0.5 0 0 1 0.5,-0.5 h 21.71 a 0.5,0.5 0 0 1 0.5,0.5 0.5,0.5 0 0 1 -0.5,0.5 z"
       fill="#d1d3d4"
       id="path18" />
    <path
       d="m 258.34,136.14 h -27 a 4.76,4.76 0 0 1 -4.81,-5.61 v 0 a 6.69,6.69 0 0 1 6.4,-5.61 h 27 a 4.76,4.76 0 0 1 4.82,5.61 v 0 a 6.69,6.69 0 0 1 -6.41,5.61 z"
       fill="#d1d3d4"
       id="path20" />
    <path
       d="m 182.25,214.33 h -27 a 4.75,4.75 0 0 1 -4.81,-5.61 v 0 a 6.69,6.69 0 0 1 6.4,-5.61 h 27 a 4.75,4.75 0 0 1 4.81,5.61 v 0 a 6.68,6.68 0 0 1 -6.4,5.61 z"
       fill="#d1d3d4"
       id="path22" />
    <path
       d="m 243.57,214.33 h -27 a 4.75,4.75 0 0 1 -4.81,-5.61 v 0 a 6.68,6.68 0 0 1 6.4,-5.61 h 27 a 4.75,4.75 0 0 1 4.81,5.61 v 0 a 6.68,6.68 0 0 1 -6.4,5.61 z"
       fill="#d1d3d4"
       id="path24" />
    <path
       d="M 194.22,195.94 H 148.6 a 0.53,0.53 0 0 1 -0.38,-0.18 0.46,0.46 0 0 1 -0.11,-0.39 l 6,-42.55 a 0.51,0.51 0 0 1 0.5,-0.43 h 45.61 a 0.49,0.49 0 0 1 0.38,0.17 0.49,0.49 0 0 1 0.12,0.4 l -6,42.55 a 0.51,0.51 0 0 1 -0.5,0.43 z m -45,-1 h 44.61 l 5.89,-41.55 h -44.65 z"
       fill="#d1d3d4"
       id="path26" />
    <path
       d="m 255.54,195.94 h -45.62 a 0.51,0.51 0 0 1 -0.38,-0.18 0.5,0.5 0 0 1 -0.12,-0.39 l 6,-42.55 a 0.5,0.5 0 0 1 0.49,-0.43 h 45.62 a 0.49,0.49 0 0 1 0.38,0.17 0.49,0.49 0 0 1 0.12,0.4 l -6,42.55 a 0.5,0.5 0 0 1 -0.49,0.43 z m -45,-1 h 44.6 l 5.9,-41.55 h -44.65 z"
       fill="#d1d3d4"
       id="path28" />
    <path
       d="m 184.05,231.49 a 2.08,2.08 0 0 1 -1.6,-0.71 2.11,2.11 0 0 1 -0.48,-1.71 2.69,2.69 0 0 1 2.61,-2.27 2.11,2.11 0 0 1 1.6,0.7 2.08,2.08 0 0 1 0.47,1.71 2.68,2.68 0 0 1 -2.6,2.28 z m 0.53,-3.69 a 1.72,1.72 0 0 0 -1.62,1.41 1.13,1.13 0 0 0 0.25,0.92 1.09,1.09 0 0 0 0.84,0.36 1.7,1.7 0 0 0 1.61,-1.42 v 0 a 1.11,1.11 0 0 0 -0.24,-0.91 1.09,1.09 0 0 0 -0.84,-0.36 z"
       fill="#d1d3d4"
       id="path30" />
    <ellipse
       cx="193.78999"
       cy="229.14"
       rx="1.98"
       ry="1.72"
       transform="rotate(-42.97,193.8045,229.15517)"
       fill="#d1d3d4"
       id="ellipse32" />
    <ellipse
       cx="203.27"
       cy="229.14"
       rx="1.98"
       ry="1.72"
       transform="matrix(0.73,-0.68,0.68,0.73,-101.65,200.04)"
       fill="#d1d3d4"
       id="ellipse34" />
    <ellipse
       cx="212.75"
       cy="229.14"
       rx="1.98"
       ry="1.72"
       transform="rotate(-42.97,212.76177,229.14934)"
       fill="#d1d3d4"
       id="ellipse36" />
    <path
       d="m 177.21,62.69 h -7.55 a 0.5,0.5 0 0 1 0,-1 h 7.55 a 0.5,0.5 0 0 1 0,1 z"
       fill="#d1d3d4"
       id="path38" />
    <path
       d="m 176.73,66.09 h -7.56 a 0.51,0.51 0 0 1 -0.5,-0.5 0.5,0.5 0 0 1 0.5,-0.5 h 7.56 a 0.5,0.5 0 0 1 0.5,0.5 0.51,0.51 0 0 1 -0.5,0.5 z"
       fill="#d1d3d4"
       id="path40" />
    <path
       d="m 176.24,69.48 h -7.55 a 0.5,0.5 0 0 1 -0.5,-0.5 0.51,0.51 0 0 1 0.5,-0.5 h 7.55 a 0.5,0.5 0 0 1 0.5,0.5 0.5,0.5 0 0 1 -0.5,0.5 z"
       fill="#d1d3d4"
       id="path42" />
    <path
       d="m 288.75,48.44 -1.17,8.3 H 157.21 l 1.18,-8.3 a 11.8,11.8 0 0 1 11.31,-9.91 h 110.55 a 8.4,8.4 0 0 1 8.5,9.91 z"
       fill="#231f20"
       id="path44" />
    <path
       d="m 226.69,48.14 h -14.36 a 0.5,0.5 0 0 1 -0.5,-0.5 0.5,0.5 0 0 1 0.5,-0.5 h 14.36 a 0.5,0.5 0 0 1 0.5,0.5 0.5,0.5 0 0 1 -0.5,0.5 z"
       fill="#d1d3d4"
       id="path46" />
    <path
       d="m 234,48.14 h -2.54 a 0.51,0.51 0 0 1 -0.5,-0.5 0.5,0.5 0 0 1 0.5,-0.5 H 234 a 0.5,0.5 0 0 1 0.5,0.5 0.5,0.5 0 0 1 -0.5,0.5 z"
       fill="#d1d3d4"
       id="path48" />
    <path
       d="m 155.7,113.46 9.32,9.62 c 0,0 16.82,-18.37 17,-20.67 a 40.73,40.73 0 0 1 3.42,-11.93 1,1 0 0 1 0.46,-0.57 c 0.53,-0.2 0.91,0.54 1,1.1 a 15.29,15.29 0 0 1 -0.05,4.11 c 1.67,-2.31 3.37,-4.59 5.12,-6.84 a 0.89,0.89 0 0 1 0.61,-0.44 0.82,0.82 0 0 1 0.52,0.23 8,8 0 0 1 2.39,3.54 6.93,6.93 0 0 1 0.51,2.29 c 0.07,4.42 -3.89,11.6 -8,13.41 0,0 -19.14,32.8 -22.58,32.42 -3.44,-0.38 -17,-15.69 -17,-15.69 z"
       fill="#ffffff"
       id="path50" />
    <path
       d="m 165.43,140.23 h -0.08 c -3.53,-0.4 -15.94,-14.28 -17.35,-15.86 a 0.5,0.5 0 0 1 0,-0.62 l 7.32,-10.57 a 0.51,0.51 0 0 1 0.37,-0.21 0.49,0.49 0 0 1 0.4,0.15 l 8.95,9.23 c 6.47,-7.09 16.4,-18.46 16.54,-20 a 41.53,41.53 0 0 1 3.42,-12.07 1.44,1.44 0 0 1 0.74,-0.83 1,1 0 0 1 0.87,0.07 2,2 0 0 1 0.79,1.48 17.75,17.75 0 0 1 0.11,2.42 c 1.33,-1.82 2.69,-3.63 4.07,-5.4 a 1.35,1.35 0 0 1 1,-0.63 1.38,1.38 0 0 1 0.85,0.34 8.55,8.55 0 0 1 2.57,3.7 7.57,7.57 0 0 1 0.54,2.46 c 0.07,4.43 -3.74,11.74 -8.16,13.81 -3.38,5.79 -19.24,32.53 -22.95,32.53 z M 149,124 c 5.43,6.09 14.1,15 16.45,15.23 v 0 c 2.06,0 12.79,-16.3 22.06,-32.18 a 0.52,0.52 0 0 1 0.23,-0.21 c 4.05,-1.78 7.78,-8.8 7.71,-12.94 a 6.34,6.34 0 0 0 -0.47,-2.13 7.59,7.59 0 0 0 -2.24,-3.31 c -0.13,-0.11 -0.18,-0.13 -0.2,-0.13 a 1.4,1.4 0 0 0 -0.22,0.24 c -1.74,2.24 -3.46,4.54 -5.12,6.84 a 0.5,0.5 0 0 1 -0.9,-0.37 14.74,14.74 0 0 0 0.05,-4 1.06,1.06 0 0 0 -0.31,-0.69 0.88,0.88 0 0 0 -0.17,0.31 40.23,40.23 0 0 0 -3.38,11.77 c -0.21,2.35 -14.32,17.87 -17.15,21 a 0.52,0.52 0 0 1 -0.36,0.16 0.64,0.64 0 0 1 -0.37,-0.15 l -8.89,-9.18 z"
       fill="#231f20"
       id="path52" />
    <path
       d="m 90,251.37 c 0,0 -3.25,8.9 -1.81,9.76 1.44,0.86 30.14,0 28.41,-1.72 -1.73,-1.72 -9.37,-7.46 -9.37,-7.46"
       fill="#ffffff"
       id="path54" />
    <path
       d="m 94.77,261.94 c -3.67,0 -6.43,-0.13 -6.85,-0.38 -1.56,-0.93 0.34,-6.89 1.6,-10.36 a 0.52,0.52 0 0 1 0.65,-0.3 0.5,0.5 0 0 1 0.29,0.64 c -1.6,4.41 -2.55,8.69 -2,9.17 2,0.89 24.45,-0.16 27.51,-1.22 -2.11,-1.95 -9,-7.09 -9,-7.14 a 0.5,0.5 0 1 1 0.6,-0.8 c 0.31,0.23 7.7,5.78 9.43,7.51 a 0.68,0.68 0 0 1 0.07,0.92 c -1.07,1.31 -14.01,1.96 -22.3,1.96 z"
       fill="#231f20"
       id="path56" />
    <path
       d="m 119,81.45 c -1.36,-0.06 -2.72,-0.29 -4.29,-0.43 -1.57,-0.14 -3.35,-0.67 -3.38,-2.13 0,-1.26 1.48,-2.3 1.15,-3.51 a 2.77,2.77 0 0 0 -0.52,-0.89 13.56,13.56 0 0 1 2.34,-18.64 c -0.41,0.14 -0.85,-0.27 -0.89,-0.7 a 1.69,1.69 0 0 1 0.47,-1.18 8.45,8.45 0 0 1 4.12,-2.49 25.84,25.84 0 0 1 15.23,0 c 3.8,1.11 8.37,4.14 7.87,8.73 a 3.64,3.64 0 0 1 -3.14,3.34 c -0.85,4.92 -3.43,8.28 -6.67,11.84 a 19.86,19.86 0 0 1 -8,5.44 10.81,10.81 0 0 1 -4.29,0.62 z"
       fill="#ffffff"
       id="path58" />
    <path
       d="M 119.62,82 H 119 v 0 c -0.81,0 -1.6,-0.13 -2.45,-0.23 -0.59,-0.07 -1.2,-0.14 -1.86,-0.2 -2.37,-0.2 -3.8,-1.18 -3.83,-2.62 a 3.58,3.58 0 0 1 0.68,-1.91 c 0.33,-0.55 0.61,-1 0.49,-1.48 a 2.16,2.16 0 0 0 -0.39,-0.65 14.08,14.08 0 0 1 1.71,-18.91 1.4,1.4 0 0 1 -0.41,-0.84 2.13,2.13 0 0 1 0.58,-1.55 9,9 0 0 1 4.31,-2.61 26.38,26.38 0 0 1 15.52,0 c 4.46,1.3 8.73,4.67 8.22,9.27 a 4.24,4.24 0 0 1 -3.2,3.74 c -1,5.06 -3.86,8.56 -6.73,11.72 a 20.25,20.25 0 0 1 -8.19,5.57 11.29,11.29 0 0 1 -3.83,0.7 z m -5.37,-26.64 a 0.55,0.55 0 0 1 0.48,0.27 0.51,0.51 0 0 1 -0.09,0.64 13.08,13.08 0 0 0 -2.25,17.95 3,3 0 0 1 0.6,1.06 2.85,2.85 0 0 1 -0.59,2.25 2.9,2.9 0 0 0 -0.54,1.38 c 0,1.33 2.44,1.6 2.92,1.65 0.66,0 1.29,0.13 1.89,0.2 0.82,0.1 1.6,0.19 2.38,0.22 v 0 a 10.21,10.21 0 0 0 4.07,-0.58 19.18,19.18 0 0 0 7.78,-5.29 c 3.56,-3.91 5.77,-7.06 6.55,-11.59 a 0.5,0.5 0 0 1 0.47,-0.42 3.16,3.16 0 0 0 2.66,-2.89 c 0.5,-4.59 -4.49,-7.32 -7.51,-8.2 a 25.4,25.4 0 0 0 -14.93,0 7.74,7.74 0 0 0 -3.84,2.32 1.23,1.23 0 0 0 -0.37,0.82 0.38,0.38 0 0 0 0.16,0.25 z"
       fill="#231f20"
       id="path60" />
    <path
       d="m 98.58,111 c 0,0 -10.58,21.54 -9.76,28.14 0.82,6.6 22.68,4 22.68,4 l -1.15,-32.72 z"
       fill="#ffffff"
       id="path62" />
    <path
       d="m 102.48,144.16 c -0.66,0 -1.34,0 -2,0 -7.66,-0.24 -11.75,-1.9 -12.14,-4.92 -0.87,-6.67 9.37,-27.53 9.8,-28.41 a 0.52,0.52 0 0 1 0.43,-0.28 l 11.77,-0.57 a 0.49,0.49 0 0 1 0.36,0.13 0.46,0.46 0 0 1 0.16,0.35 l 1.14,32.68 a 0.51,0.51 0 0 1 -0.44,0.52 90,90 0 0 1 -9.08,0.5 z M 98.9,111.5 c -1.2,2.47 -10.36,21.59 -9.58,27.58 0.68,4.92 15.43,4.32 21.68,3.63 L 109.87,111 Z"
       fill="#231f20"
       id="path64" />
    <path
       d="m 140.78,247.16 0.57,14 c 0,0 26.22,0.19 24.69,-1.72 -1.53,-1.91 -13.4,-10.33 -13.4,-10.33 l -1.91,-10.34 z"
       fill="#ffffff"
       id="path66" />
    <path
       d="m 144.72,261.65 h -3.37 a 0.5,0.5 0 0 1 -0.5,-0.48 l -0.57,-14 a 0.51,0.51 0 0 1 0.17,-0.4 l 10,-8.42 a 0.51,0.51 0 0 1 0.49,-0.09 0.52,0.52 0 0 1 0.32,0.38 l 1.88,10.14 c 1.5,1.07 11.85,8.46 13.33,10.31 a 0.73,0.73 0 0 1 0.1,0.77 c -0.76,1.5 -12.81,1.79 -21.85,1.79 z m -2.89,-1 c 10.53,0.06 21.75,-0.34 23.63,-1.13 -1.68,-1.76 -9.2,-7.25 -13.11,-10 a 0.47,0.47 0 0 1 -0.2,-0.31 l -1.76,-9.49 -9.1,7.71 z"
       fill="#231f20"
       id="path68" />
    <path
       d="m 145.53,149 10.17,102 -16.84,0.38 -19.13,-72.06 -10.6,72.68 -19.52,-1 c 0,0 3.4,-40.57 5.17,-56 1.77,-15.43 4.51,-42.14 4.51,-42.14 z"
       fill="#231f20"
       id="path70" />
    <path
       d="m 139.26,70.72 c 0,0 3.51,5.79 2.69,6.93 -0.82,1.14 -3.35,0.26 -3.35,0.26"
       fill="#ffffff"
       id="path72" />
    <path
       d="m 140.43,78.73 a 6.57,6.57 0 0 1 -2,-0.35 0.5,0.5 0 0 1 0.32,-0.94 c 0.72,0.24 2.33,0.54 2.78,-0.09 0.45,-0.63 -0.95,-3.47 -2.71,-6.37 a 0.5,0.5 0 1 1 0.85,-0.51 c 1.11,1.82 3.59,6.2 2.68,7.47 a 2.28,2.28 0 0 1 -1.92,0.79 z"
       fill="#231f20"
       id="path74" />
    <path
       d="m 138.75,63.24 c 2.3,2 1.45,6.1 1.33,8.76 q -0.27,5.61 -0.78,11.22 c -0.22,2.36 -6.37,2.18 -7.43,1.43 l 0.61,9.41 -12.73,-5.45 0.83,-10.81 c 0,0 4.06,0.18 6.65,-4.56 2.59,-4.74 2.77,-12.18 2.77,-12.18 0,0 6.51,0.2 8.75,2.18 z"
       fill="#ffffff"
       id="path76" />
    <path
       d="m 132.48,94.56 a 0.45,0.45 0 0 1 -0.2,0 l -12.72,-5.45 a 0.52,0.52 0 0 1 -0.31,-0.5 l 0.83,-10.81 a 0.5,0.5 0 0 1 0.52,-0.46 c 0.15,0 3.79,0.09 6.19,-4.3 2.5,-4.58 2.71,-11.88 2.71,-12 a 0.48,0.48 0 0 1 0.16,-0.35 0.44,0.44 0 0 1 0.36,-0.13 c 0.27,0 6.71,0.23 9.06,2.31 v 0 c 2.1,1.85 1.82,5.1 1.6,7.72 0,0.5 -0.08,1 -0.1,1.43 -0.18,3.73 -0.44,7.51 -0.78,11.24 a 2.18,2.18 0 0 1 -1.47,1.74 10.46,10.46 0 0 1 -5.91,0.36 L 133,94 a 0.5,0.5 0 0 1 -0.49,0.53 z m -12.2,-6.27 11.64,5 -0.54,-8.6 a 0.47,0.47 0 0 1 0.25,-0.47 0.49,0.49 0 0 1 0.53,0 9.08,9.08 0 0 0 5.75,-0.12 c 0.56,-0.25 0.86,-0.57 0.89,-1 0.35,-3.71 0.61,-7.48 0.78,-11.19 0,-0.46 0.06,-1 0.1,-1.48 0.21,-2.39 0.46,-5.36 -1.26,-6.88 v 0 c -1.74,-1.54 -6.41,-1.94 -7.94,-2 -0.09,1.79 -0.56,7.77 -2.81,11.9 -2.25,4.13 -5.41,4.7 -6.63,4.8 z"
       fill="#231f20"
       id="path78" />
    <path
       d="m 158.28,114.29 c 0,0 -15.05,-15.9 -21,-21.88 -5.53,-5.54 -21.61,-10.58 -28.93,-2.64 0,0 -12,16.79 -14.35,26.55 l 7,4.31 a 321.33,321.33 0 0 0 -2.7,34.87 c 13.28,10.5 47.23,-6.5 47.23,-6.5 l -3.07,-24 5.49,5.5 z"
       fill="#000000"
       id="path80" />
    <path
       d="m 139.32,80.42 c 0,0 -3,1.67 -4.4,-1.39"
       fill="#ffffff"
       id="path82" />
    <path
       d="m 137.53,81.38 a 3.57,3.57 0 0 1 -1,-0.15 3.5,3.5 0 0 1 -2.07,-2 0.50112374,0.50112374 0 0 1 0.91,-0.42 2.55,2.55 0 0 0 1.46,1.45 3.16,3.16 0 0 0 2.24,-0.29 0.51,0.51 0 0 1 0.68,0.2 0.48,0.48 0 0 1 -0.19,0.67 4.41,4.41 0 0 1 -2.03,0.54 z"
       fill="#231f20"
       id="path84" />
    <path
       d="m 132,72.85 a 5.1,5.1 0 0 0 -0.95,-2.61 7,7 0 0 0 -1.29,-1.75 2.45,2.45 0 0 0 -2,-0.7 2.32,2.32 0 0 0 -1.52,1.11 4.51,4.51 0 0 0 -0.54,1.84 8.07,8.07 0 0 0 3.43,7.26 l -0.2,-0.23"
       fill="#ffffff"
       id="path86" />
    <path
       d="m 129.13,78.51 a 0.47,0.47 0 0 1 -0.28,-0.09 8.58,8.58 0 0 1 -3.65,-7.73 4.81,4.81 0 0 1 0.61,-2 2.72,2.72 0 0 1 1.85,-1.34 2.92,2.92 0 0 1 2.42,0.82 7.48,7.48 0 0 1 1.38,1.83 5.48,5.48 0 0 1 1,2.88 0.5,0.5 0 0 1 -1,0 4.57,4.57 0 0 0 -0.88,-2.35 6.7,6.7 0 0 0 -1.19,-1.63 2,2 0 0 0 -1.58,-0.57 1.77,1.77 0 0 0 -1.17,0.87 3.84,3.84 0 0 0 -0.47,1.62 7.6,7.6 0 0 0 2.79,6.5 0.51,0.51 0 0 1 0.33,0.17 l 0.2,0.23 a 0.5,0.5 0 0 1 0,0.66 0.5,0.5 0 0 1 -0.36,0.13 z"
       fill="#231f20"
       id="path88" />
    <path
       d="m 131.87,84.65 a 10,10 0 0 1 -4.54,-3.36 c 0,0 0,5.71 4.81,7.55 z"
       fill="#231f20"
       id="path90" />
    <path
       d="m 132.14,89.34 h -0.18 c -5.08,-1.94 -5.13,-8 -5.13,-8 a 0.49,0.49 0 0 1 0.36,-0.48 0.5,0.5 0 0 1 0.56,0.22 9.45,9.45 0 0 0 4.25,3.09 0.5,0.5 0 0 1 0.33,0.44 l 0.27,4.2 a 0.51,0.51 0 0 1 -0.2,0.43 0.47,0.47 0 0 1 -0.26,0.1 z M 128,82.88 A 7.25,7.25 0 0 0 131.59,88 L 131.4,85 A 11.62,11.62 0 0 1 128,82.88 Z"
       fill="#231f20"
       id="path92" />
    <path
       d="m 142.88,126.69 a 0.51,0.51 0 0 1 -0.36,-0.15 152.61,152.61 0 0 1 -10.79,-12.42 0.51,0.51 0 0 1 0.1,-0.7 0.5,0.5 0 0 1 0.7,0.1 151.14,151.14 0 0 0 10.71,12.33 0.49,0.49 0 0 1 0,0.7 0.47,0.47 0 0 1 -0.36,0.14 z"
       fill="#231f20"
       id="path94" />
    <path
       d="m 119.45,177.8 a 0.46,0.46 0 0 1 -0.32,-0.11 c -0.26,-0.21 -6.21,-5.28 -6.24,-13.28 a 0.5,0.5 0 0 1 0.49,-0.5 v 0 a 0.49,0.49 0 0 1 0.49,0.5 c 0,7.53 5.83,12.47 5.89,12.51 a 0.51,0.51 0 0 1 0.06,0.71 0.52,0.52 0 0 1 -0.37,0.17 z"
       fill="#ffffff"
       id="path96" />
    <ellipse
       cx="137.22"
       cy="68.050003"
       rx="1.34"
       ry="0.52999997"
       transform="rotate(-78.19,137.22336,68.048757)"
       fill="#231f20"
       id="ellipse98" />
    <path
       d="m 100.88,117.68 h -0.08 a 0.51,0.51 0 0 1 -0.41,-0.58 c 0.11,-0.73 2.92,-17.95 6.08,-23.7 a 0.49,0.49 0 0 1 0.68,-0.19 0.48,0.48 0 0 1 0.19,0.67 c -3.07,5.6 -5.94,23.2 -6,23.38 a 0.49,0.49 0 0 1 -0.46,0.42 z"
       fill="#231f20"
       id="path100" />
    <path
       d="M 289.16,195 A 10.2,10.2 0 0 0 288,189.55 c -0.73,-1.21 -1.85,-2.17 -2.45,-3.45 -1,-2.22 -0.31,-4.83 -0.55,-7.26 a 9.11,9.11 0 0 0 -2.55,-5.41 c -1.27,-1.28 -2.91,-2.17 -4.13,-3.51 -2,-2.2 -2.56,-5.29 -3.69,-8 a 20.12,20.12 0 0 0 -8,-9.37 c 2.17,4.37 -2.78,9.93 -0.53,14.26 0.71,1.38 2.06,2.38 2.59,3.84 1.25,3.51 -2.94,7.32 -1.6,10.81 0.67,1.74 2.54,2.75 3.41,4.4 1.17,2.22 0.25,4.93 0.34,7.44 0.13,3.47 2.24,6.57 4.75,9 1.56,1.49 3.3,2.79 5,4.14 2,1.62 2.87,3.31 4.64,0.72 A 22.34,22.34 0 0 0 289.16,195 Z"
       fill="#231f20"
       id="path102" />
    <path
       d="m 291.41,197 c -0.65,-2.68 -1.11,-5.6 0,-8.13 1.23,-2.86 4.32,-4.89 4.68,-8 0.24,-2 -0.79,-4.09 -0.39,-6.09 0.4,-2 2,-3.37 3.39,-4.85 a 20.28,20.28 0 0 0 5.24,-12.4 31.13,31.13 0 0 1 5,8.25 c 1.06,3.05 1.08,6.63 -0.73,9.31 a 8.45,8.45 0 0 0 -1.26,2.06 c -0.61,2 1.08,3.82 1.95,5.7 a 6.55,6.55 0 0 1 -0.61,6.72 c -1.78,2.21 -5.19,3.07 -6.07,5.76 a 13.58,13.58 0 0 0 -0.3,3.06 9,9 0 0 1 -6.46,7.7 c -2.09,0.51 -2.05,-0.32 -2.43,-2.09 -0.53,-2.36 -1.42,-4.65 -2.01,-7 z"
       fill="#231f20"
       id="path104" />
    <path
       d="m 284.73,177.69 c -1.49,-5.15 -2.08,-10.54 -3.65,-15.67 a 85.74,85.74 0 0 0 -4.88,-11.68 l 6.39,2.69 c 2.05,0.87 4.27,1.89 5.24,3.89 1.68,3.49 -1.34,8 0.43,11.41 a 28.22,28.22 0 0 0 2.53,3.18 c 1.88,2.64 1.59,6.28 0.56,9.35 -0.45,1.32 -2.38,8.16 -4.11,6.26 -0.7,-0.76 -0.76,-3.59 -1.05,-4.63 -0.45,-1.61 -0.99,-3.19 -1.46,-4.8 z"
       fill="#231f20"
       id="path106" />
    <path
       d="M 288.28,246.16 C 287,237.73 283,208 283,207.74 l 1,-0.13 c 0,0.3 4,30 5.31,38.4 z"
       fill="#231f20"
       id="path108" />
    <path
       d="m 289.67,254.12 h -1 c 0.08,-10 4.24,-48.2 6.64,-50.82 l 0.74,0.68 c -1.6,1.73 -6.28,36.44 -6.38,50.14 z"
       fill="#231f20"
       id="path110" />
    <path
       d="m 291.84,252.21 h -1 c 1,-21.57 -3.62,-66.87 -3.67,-67.32 l 1,-0.11 c 0.05,0.42 4.63,45.79 3.67,67.43 z"
       fill="#231f20"
       id="path112" />
    <path
       d="m 277.27,222 h 23.8 l -1.66,27 c -0.29,4.68 -3.76,8.31 -7.94,8.31 h -4.6 c -4.18,0 -7.64,-3.63 -7.93,-8.31 z"
       fill="#ffffff"
       id="path114" />
    <path
       d="m 291.47,257.87 h -4.6 c -4.43,0 -8.14,-3.86 -8.45,-8.79 l -1.66,-27 a 0.51,0.51 0 0 1 0.51,-0.55 h 23.8 a 0.55,0.55 0 0 1 0.38,0.16 0.57,0.57 0 0 1 0.14,0.39 l -1.67,27 c -0.3,4.92 -4.01,8.79 -8.45,8.79 z m -13.65,-35.33 1.63,26.46 c 0.27,4.39 3.53,7.82 7.42,7.82 h 4.6 c 3.89,0 7.15,-3.43 7.42,-7.82 l 1.63,-26.48 z"
       fill="#231f20"
       id="path116" />
    <polygon
       points="263.27,46.22 312.19,46.22 301.16,128.47 252.24,128.47 "
       fill="#ffffff"
       id="polygon118" />
    <path
       d="m 301.16,129 h -48.92 a 0.48,0.48 0 0 1 -0.37,-0.17 0.46,0.46 0 0 1 -0.12,-0.39 l 11,-82.26 a 0.51,0.51 0 0 1 0.5,-0.43 h 48.92 a 0.52,0.52 0 0 1 0.38,0.17 0.56,0.56 0 0 1 0.12,0.4 l -11,82.25 a 0.51,0.51 0 0 1 -0.51,0.43 z m -48.35,-1 h 47.91 l 10.9,-81.25 h -47.91 z"
       fill="#231f20"
       id="path120" />
    <path
       d="m 292.89,116.26 h -28.1 a 3.16,3.16 0 0 1 -3.19,-3.69 l 0.38,-2.87 a 4.37,4.37 0 0 1 4.19,-3.69 h 28.09 a 3.15,3.15 0 0 1 3.19,3.69 l -0.38,2.87 a 4.35,4.35 0 0 1 -4.18,3.69 z"
       fill="#000000"
       id="path122" />
    <path
       d="m 294.91,101.15 h -28.09 a 3.15,3.15 0 0 1 -3.19,-3.69 l 0.38,-2.87 a 4.35,4.35 0 0 1 4.19,-3.69 h 28.09 a 3.16,3.16 0 0 1 3.19,3.69 l -0.38,2.87 a 4.37,4.37 0 0 1 -4.19,3.69 z"
       fill="#ffffff"
       id="path124" />
    <path
       d="m 294.91,101.65 h -28.09 a 3.7,3.7 0 0 1 -2.83,-1.24 3.75,3.75 0 0 1 -0.86,-3 l 0.39,-2.87 a 4.87,4.87 0 0 1 4.68,-4.12 h 28.09 a 3.7,3.7 0 0 1 2.83,1.24 3.77,3.77 0 0 1 0.86,3 l -0.39,2.87 a 4.87,4.87 0 0 1 -4.68,4.12 z M 268.2,91.4 a 3.84,3.84 0 0 0 -3.69,3.25 l -0.39,2.87 a 2.8,2.8 0 0 0 0.62,2.23 2.72,2.72 0 0 0 2.08,0.9 h 28.09 a 3.84,3.84 0 0 0 3.69,-3.26 l 0.39,-2.87 a 2.77,2.77 0 0 0 -0.63,-2.23 2.71,2.71 0 0 0 -2.07,-0.89 z"
       fill="#d1d3d4"
       id="path126" />
    <path
       d="m 296.94,86 h -28.09 a 3.16,3.16 0 0 1 -3.2,-3.69 l 0.39,-2.87 a 4.34,4.34 0 0 1 4.18,-3.69 h 28.09 a 3.16,3.16 0 0 1 3.2,3.69 l -0.39,2.87 A 4.34,4.34 0 0 1 296.94,86 Z"
       fill="#ffffff"
       id="path128" />
    <path
       d="m 296.94,86.53 h -28.09 a 3.65,3.65 0 0 1 -3.69,-4.26 l 0.38,-2.87 a 4.88,4.88 0 0 1 4.68,-4.12 h 28.09 a 3.65,3.65 0 0 1 3.69,4.26 l -0.38,2.87 a 4.88,4.88 0 0 1 -4.68,4.12 z M 270.22,76.28 a 3.85,3.85 0 0 0 -3.69,3.26 l -0.38,2.87 a 2.79,2.79 0 0 0 0.62,2.22 2.72,2.72 0 0 0 2.08,0.9 h 28.09 a 3.85,3.85 0 0 0 3.69,-3.26 L 301,79.4 a 2.65,2.65 0 0 0 -2.7,-3.12 z"
       fill="#d1d3d4"
       id="path130" />
    <path
       d="m 299,70.91 h -28.1 a 3.16,3.16 0 0 1 -3.19,-3.69 l 0.38,-2.87 a 4.36,4.36 0 0 1 4.19,-3.69 h 28.09 a 3.15,3.15 0 0 1 3.19,3.69 l -0.38,2.87 A 4.35,4.35 0 0 1 299,70.91 Z"
       fill="#ffffff"
       id="path132" />
    <path
       d="m 299,71.41 h -28.1 a 3.7,3.7 0 0 1 -2.9,-1.24 3.78,3.78 0 0 1 -0.86,-3 l 0.39,-2.87 a 4.87,4.87 0 0 1 4.68,-4.13 h 28.09 a 3.68,3.68 0 0 1 2.83,1.24 3.75,3.75 0 0 1 0.86,3 l -0.38,2.87 A 4.88,4.88 0 0 1 299,71.41 Z M 272.25,61.16 a 3.85,3.85 0 0 0 -3.69,3.26 l -0.38,2.87 a 2.65,2.65 0 0 0 2.69,3.12 H 299 a 3.84,3.84 0 0 0 3.68,-3.25 l 0.39,-2.87 a 2.8,2.8 0 0 0 -0.62,-2.23 2.72,2.72 0 0 0 -2.08,-0.9 z"
       fill="#d1d3d4"
       id="path134" />
    <path
       d="m 297.83,54.43 h -21.54 a 0.5,0.5 0 0 1 -0.5,-0.5 0.51,0.51 0 0 1 0.5,-0.5 h 21.54 a 0.5,0.5 0 0 1 0.5,0.5 0.5,0.5 0 0 1 -0.5,0.5 z"
       fill="#d1d3d4"
       id="path136" />
  </g>
</svg>
